<?xml version="1.0" standalone="no"?>
<!DOCTYPE svg PUBLIC "-//W3C//DTD SVG 1.1//EN" "http://www.w3.org/Graphics/SVG/1.1/DTD/svg11.dtd" >
<svg xmlns="http://www.w3.org/2000/svg" xmlns:xlink="http://www.w3.org/1999/xlink" version="1.1">
<metadata></metadata>
<defs>
<font id="blender_pro_boldbold" horiz-adv-x="1062" >
<font-face units-per-em="2048" ascent="1638" descent="-410" />
<missing-glyph horiz-adv-x="481" />
<glyph horiz-adv-x="0" />
<glyph horiz-adv-x="682" />
<glyph unicode="&#xd;" horiz-adv-x="1024" />
<glyph unicode=" "  horiz-adv-x="481" />
<glyph unicode="&#x09;" horiz-adv-x="481" />
<glyph unicode="&#xa0;" horiz-adv-x="481" />
<glyph unicode="!" horiz-adv-x="544" d="M90 -6v242h250v-242h-250zM113 332v893h204v-893h-204z" />
<glyph unicode="&#x22;" horiz-adv-x="780" d="M86 885l18 166v260h201v-287l-16 -139h-203zM391 885l19 166v260h200v-287l-16 -139h-203z" />
<glyph unicode="#" horiz-adv-x="1093" d="M37 340l35 192h172l20 111h-172l35 195h172l35 186h201l-35 -186h84l34 186h201l-35 -186h172l-34 -195h-172l-21 -111h172l-35 -192h-172l-37 -195h-200l37 195h-84l-37 -195h-201l35 195h-170zM444 532h84l21 111h-84z" />
<glyph unicode="$" horiz-adv-x="1118" d="M63 225l203 68q41 -57 90 -94q5 -2 15 -2h106l2 327l-256 70q-75 21 -117.5 84.5t-42.5 138.5v117q0 71 31 117q20 30 70.5 79.5t81.5 67.5q68 37 127 37h108v135h119v-135h76q131 0 260 -170q24 -35 41 -72l-207 -59q-47 67 -90 94q-2 2 -12 2h-70v-321l238 -64 q74 -21 116.5 -85t42.5 -138v-129q0 -73 -32 -117q-20 -30 -70 -79.5t-80 -67.5q-68 -37 -127 -37h-90v-176h-119v176h-117q-135 0 -260 170q-17 25 -37 63zM279 825q0 -13 7 -22.5t15 -11.5l178 -50v289h-96l-12 -2q-24 -12 -58 -47t-34 -47v-109zM596 197h80l12 2 q23 12 57.5 47t34.5 47v123q0 13 -8 23t-16 12l-158 43z" />
<glyph unicode="%" horiz-adv-x="1712" d="M72 772v262q0 64 26 99q11 15 35.5 38.5t42.5 36.5q54 35 113 35h131q57 0 115 -35q17 -13 40.5 -37t34.5 -38q27 -36 27 -99v-262q0 -62 -27 -98q-34 -44 -75 -76q-58 -35 -115 -35h-131q-59 0 -113 35q-43 31 -78 76q-26 35 -26 98zM242 788q0 -6 2 -10q20 -28 47 -45 q2 -2 10 -2h107q8 0 10 2q20 12 47 45q2 2 2 10v230q0 8 -2 10q-27 33 -47 45q-2 2 -10 2h-107q-8 0 -10 -2q-27 -17 -47 -45l-2 -10v-230zM352 -2l678 1227h234l-676 -1227h-236zM973 188v263q0 63 26 98q35 45 78 76q53 34 113 34h131q59 0 115 -34q41 -32 75 -76 q27 -36 27 -98v-263q0 -62 -27 -98q-34 -44 -75 -76q-56 -34 -115 -34h-131q-60 0 -113 34q-43 31 -78 76q-26 35 -26 98zM1143 205q0 -6 2 -10q20 -28 47 -45q3 -3 10 -3h107q7 0 10 3q20 12 47 45q2 2 2 10v229q0 8 -2 10q-27 33 -47 45q-3 3 -10 3h-107q-7 0 -10 -3 q-27 -17 -47 -45l-2 -10v-229z" />
<glyph unicode="&#x26;" horiz-adv-x="1148" d="M90 272v160q0 57 20.5 95t61.5 79q-40 40 -61 79.5t-21 96.5v166q0 70 37 125q14 21 52 59.5t59 53.5q64 45 143 45h201q134 0 262 -168q41 -59 51 -88l-209 -55q-22 33 -52 64t-48 40q-4 2 -11 2h-192q-13 0 -37.5 -23t-38.5 -47q-2 -4 -2 -10v-160q0 -6 2 -10 q12 -23 36 -45t38 -22h262v-203h-262q-13 0 -37.5 -22.5t-36.5 -45.5l-2 -10v-154l2 -10q14 -23 38.5 -45t37.5 -22h276q14 0 41 24.5t41 48.5q2 5 2 15v301h267v-209h-58v-109q0 -71 -37 -123q-13 -20 -49.5 -56.5t-58.5 -51.5q-61 -45 -148 -45h-114v-2h-164 q-79 0 -143 45q-22 15 -59.5 53.5t-51.5 58.5q-37 55 -37 125z" />
<glyph unicode="'" horiz-adv-x="475" d="M86 885l18 166v260h201v-287l-16 -139h-203z" />
<glyph unicode="(" horiz-adv-x="706" d="M72 291v627q0 66 34 116q37 53 136 148q18 17 49 46.5t55.5 53t44.5 43.5l154 -145q-4 -4 -79 -73t-128 -123.5t-53 -70.5v-618q0 -20 105 -120t157 -142l-156 -148q-15 15 -63.5 60.5t-73.5 70.5q-118 114 -148 156q-34 50 -34 119z" />
<glyph unicode=")" horiz-adv-x="724" d="M66 35q52 42 156 141t104 119v618q0 16 -53 70.5t-127.5 123t-77.5 71.5l149 145q8 -7 65.5 -58t88.5 -81q94 -90 135 -150q33 -49 33 -116v-627q0 -70 -33 -119t-148 -156q-114 -106 -141 -133z" />
<glyph unicode="*" horiz-adv-x="935" d="M61 967l58 172l217 -76l-4 233h178l-4 -231l223 78l53 -172l-219 -68l142 -186l-146 -105l-133 189l-133 -193l-146 107l138 184z" />
<glyph unicode="+" horiz-adv-x="1052" d="M104 401v193h291v289h199v-289h291v-193h-291v-284h-199v284h-291z" />
<glyph unicode="," horiz-adv-x="555" d="M0 -174l182 389l199 -61l-152 -328h-229z" />
<glyph unicode="-" horiz-adv-x="653" d="M51 401v193h455v-193h-455z" />
<glyph unicode="." horiz-adv-x="546" d="M92 0v258h252v-258h-252z" />
<glyph unicode="/" horiz-adv-x="905" d="M-45 0l668 1225h233l-666 -1225h-235z" />
<glyph unicode="0" d="M80 291v641q0 68 33 117q22 30 70.5 80t78.5 67q61 37 127 37h227q64 0 125 -37q31 -17 79.5 -66.5t70.5 -80.5q33 -49 33 -117v-641q0 -68 -33 -117q-22 -31 -70.5 -80.5t-79.5 -66.5q-61 -37 -125 -37h-227q-66 0 -127 37q-30 17 -78.5 67t-70.5 80q-33 49 -33 117z M295 293q0 -6 2 -8q19 -28 45 -53.5t45 -34.5q4 -2 10 -2h211q6 0 10 2q18 9 44.5 35t44.5 53l2 8v635q0 8 -2 10q-18 27 -44.5 53t-44.5 35q-4 2 -10 2h-211q-8 0 -10 -2q-19 -9 -45 -34.5t-45 -53.5l-2 -10v-635z" />
<glyph unicode="1" d="M201 1018v207h458v-1225h-215v1018h-243z" />
<glyph unicode="2" d="M98 979q17 48 43 82q130 170 265 170h217q80 0 143 -47q23 -15 61 -52.5t52 -58.5q36 -53 36 -125v-131q0 -73 -42.5 -130t-108.5 -91l-404 -209q-32 -17 -32 -43v-139h573v-205h-788v352q0 139 153 219l408 211q26 13 26 41v125l-2 10q-14 24 -38 46t-39 22h-207 q-9 0 -13 -2q-27 -15 -56.5 -44t-41.5 -62z" />
<glyph unicode="3" d="M47 246l209 55q22 -33 52 -64t48 -40q4 -2 11 -2h233q13 0 37.5 22.5t38.5 46.5q2 4 2 10v166q0 7 -2 11q-12 23 -36 45t-38 22h-2h-260v203h260h2q14 0 38 22t36 45l2 11v147l-2 10q-14 24 -38.5 46t-37.5 22h-233q-5 0 -9 -2q-26 -13 -57.5 -41.5t-42.5 -62.5l-209 57 q22 49 49 88q132 168 262 168h242q79 0 143 -45q21 -15 59 -53.5t52 -59.5q37 -55 37 -125v-153q0 -57 -20.5 -95t-61.5 -79q40 -40 61 -79.5t21 -97.5v-172q0 -70 -37 -125q-14 -20 -51.5 -58.5t-59.5 -53.5q-64 -45 -143 -45h-242q-134 0 -262 168q-41 59 -51 88z" />
<glyph unicode="4" d="M29 244v184l516 797h248v-776h125v-205h-125v-244h-215v244h-549zM281 449h297v464z" />
<glyph unicode="5" d="M70 246l209 55q18 -34 46 -64t48 -40q4 -2 14 -2h217q8 0 12 2q43 26 66 67q2 4 2 10v207l-2 11q-22 42 -66 69q-4 2 -12 2h-483v662h719v-205h-504v-252h270q84 0 146 -49q23 -15 59.5 -50.5t50.5 -56.5q37 -55 37 -127v-213q0 -70 -37 -125q-14 -22 -51 -60t-59 -52 q-61 -45 -146 -45h-225q-135 0 -264 168q-31 44 -47 88z" />
<glyph unicode="6" d="M86 270v678q0 70 37 125q13 20 52 59t61 54q61 45 141 45h221q133 0 260 -168q35 -51 51 -90l-209 -58l-4 9q-14 30 -42.5 59t-49.5 39q-8 4 -12 4h-211q-9 0 -27.5 -15t-32.5 -31l-14 -15q-6 -6 -6 -23v-213q72 62 119 62h201q80 0 141 -43q22 -15 60.5 -53t51.5 -58 q37 -55 37 -127v-238q0 -70 -37 -125q-14 -20 -52 -58.5t-60 -53.5q-61 -45 -141 -45h-244q-80 0 -141 45q-22 15 -61 53.5t-52 58.5q-37 55 -37 123zM301 293l2 -29q14 -24 38.5 -46.5t39.5 -22.5h237q13 0 37.5 22t38.5 45q2 4 2 27v219l-2 12q-14 25 -38.5 47.5 t-37.5 22.5h-192q-26 0 -33 -6q-74 -53 -92 -88v-203z" />
<glyph unicode="7" d="M86 1020v205h850v-168l-504 -1057h-244l502 1020h-604z" />
<glyph unicode="8" d="M80 272v168q0 58 21.5 97.5t62.5 78.5q-41 40 -62.5 78.5t-21.5 96.5v159q0 70 37 125q14 20 52 59t60 54q61 45 144 45h237q81 0 142 -45q22 -14 60 -53t52 -60q37 -55 37 -125v-159q0 -57 -21 -96t-61 -79q40 -40 61 -79.5t21 -96.5v-168q0 -70 -37 -125 q-14 -21 -52 -59.5t-60 -52.5q-61 -45 -142 -45h-22h-193h-22q-83 0 -144 45q-22 15 -60.5 53.5t-51.5 58.5q-37 55 -37 125zM295 270l2 -10q12 -23 35.5 -44t38.5 -21h3h3h3h3h3h2h3h3h3h3h3h3h3h3h3h3h2h3h3h3h3h3h3h3h3h3h3h2h3h3h3h3h3h3h3h3h3h2h3h3h3h3h3h3h3h3h3h2h3 h3h3h3h3h3h3h3h3h2h3h3h3h3h3h3h3h2h3h3h3h3h3h3h3h2h3h3h3h3h3h2h8q14 0 38 21t36 44q2 2 2 10v164l-2 10q-14 23 -39.5 45.5t-38.5 22.5h-233q-14 0 -38 -22t-38 -46q-2 -4 -2 -10v-164zM295 791l2 -11q12 -23 36.5 -45t39.5 -22h3h3h3h3h3h3h3h2h3h3h3h3h3h3h3h3h3h3h3h3 h3h3h3h2h3h3h3h3h3h3h3h3h3h3h3h3h3h2h3h3h3h3h3h3h3h3h3h3h3h3h3h2h3h3h3h3h3h3h3h3h3h3h3h3h2h3h3h3h3h3h3h3h3h3h3h2h3h3h9q14 0 38 22t36 45q2 3 2 11v159l-2 11q-14 23 -38.5 45t-37.5 22h-233q-15 0 -39.5 -21.5t-38.5 -45.5q-2 -5 -2 -11v-159z" />
<glyph unicode="9" d="M78 709v239q0 70 37 125q14 20 52 59t60 54q61 45 144 45h241q81 0 142 -45q22 -14 60 -53t52 -60q37 -55 37 -123v-678q0 -70 -37 -125q-14 -21 -52 -59.5t-60 -52.5q-61 -45 -142 -45h-219q-134 0 -262 168q-33 48 -51 92l209 55l4 -10q13 -30 41 -58t51 -38 q8 -4 14 -4h211q14 0 38.5 21t37.5 44q2 4 2 16v218q-72 -64 -117 -64h-200q-83 0 -144 43q-22 15 -60.5 53t-51.5 58q-37 55 -37 125zM293 711l2 -11q14 -25 38.5 -47t39.5 -22h190q29 0 37 6q70 53 88 88v223l-2 10q-14 24 -38.5 46t-37.5 22h-237q-15 0 -38.5 -20 t-37.5 -43q-2 -4 -2 -19z" />
<glyph unicode=":" horiz-adv-x="546" d="M92 0v258h252v-258h-252zM92 510v258h252v-258h-252z" />
<glyph unicode=";" horiz-adv-x="546" d="M-6 -174l182 389l199 -61l-152 -328h-229zM113 508v258h252v-258h-252z" />
<glyph unicode="&#x3c;" horiz-adv-x="1478" d="M-27 608l631 611h283l-539 -510h936v-199h-930l533 -508h-283z" />
<glyph unicode="=" horiz-adv-x="995" d="M59 272v189h764v-189h-764zM59 580v190h764v-190h-764z" />
<glyph unicode="&#x3e;" horiz-adv-x="1478" d="M57 510v199h934l-538 510h282l633 -611l-633 -606h-280l530 508h-928z" />
<glyph unicode="?" horiz-adv-x="950" d="M49 977q23 49 47 86q47 69 114 118.5t146 49.5h244q80 0 143 -47q21 -14 56 -51t49 -58q37 -55 37 -125v-141q0 -72 -42 -129.5t-106 -89.5q-5 -2 -29 -12.5t-43 -20t-41.5 -22.5t-35.5 -26.5t-13 -25.5v-149h-215v158q0 31 7.5 58t19 48t31.5 41.5t37.5 33.5t45.5 29.5 t46 25.5t49.5 23.5t46.5 22.5q27 14 27 41v133l-2 10q-14 24 -38 46t-38 22h-230q-7 0 -16 -6q-21 -14 -47 -39.5t-39 -48.5l-8 -14zM344 0v240h248v-240h-248z" />
<glyph unicode="@" horiz-adv-x="1312" d="M72 -39v971q0 70 32 117q21 30 70.5 80t79.5 67q61 37 127 37h440q66 0 127 -37q29 -17 77 -65.5t73 -81.5q32 -47 32 -117v-750l17 -182h-205l-4 45q-70 -55 -133 -55h-86q-87 0 -148 45q-23 17 -54.5 49t-43.5 51q-37 53 -37 127v348q0 76 37 127q14 20 44.5 52.5 t53.5 48.5q61 43 148 43h86q55 0 121 -47v92q0 8 -2 10q-18 27 -50.5 59t-50.5 41q-4 2 -10 2h-424q-8 0 -10 -2q-18 -9 -50 -41t-50 -59l-3 -10v-963q1 -6 3 -8q18 -27 50 -58t50 -40q4 -2 10 -2h115l31 -195h-154q-66 0 -127 37q-30 17 -79.5 67t-70.5 80q-32 47 -32 117z M641 266l2 -12q25 -45 66 -70q8 -4 12 -4h78q16 0 60 34.5t67 61.5v320q-23 27 -66.5 60.5t-60.5 33.5h-78q-10 0 -12 -2q-39 -24 -66 -72q-2 -4 -2 -10v-340z" />
<glyph unicode="A" horiz-adv-x="1124" d="M-49 0l428 1225h250l426 -1225h-230l-90 260h-465l-90 -260h-229zM338 465h330l-164 483z" />
<glyph unicode="B" horiz-adv-x="1136" d="M90 0v1225h576q81 0 147 -47q21 -15 58 -52.5t51 -58.5q34 -49 34 -127v-152q0 -60 -19.5 -99t-59.5 -79q40 -40 59.5 -78.5t19.5 -97.5v-155q0 -73 -34 -123q-14 -21 -51 -58.5t-58 -52.5q-64 -45 -147 -45h-576zM305 205h361q14 0 38.5 22t34.5 45q2 7 2 15v145l-2 10 q-14 25 -38 47.5t-37 22.5h-359v-307zM305 711h361q14 0 38.5 22t34.5 45q2 5 2 15v145l-2 10q-14 25 -38 48.5t-37 23.5h-359v-309z" />
<glyph unicode="C" horiz-adv-x="1132" d="M90 289v645q0 66 33 115q22 30 70.5 80t78.5 67q68 37 127 37h256q131 0 260 -170q17 -25 43 -72l-208 -59q-62 76 -93 94q-2 2 -8 2h-241l-9 -2q-21 -11 -49 -38.5t-43 -51.5q-2 -4 -2 -23v-622q0 -17 33.5 -48.5t60.5 -45.5q2 -2 15 -2h233q6 0 10 2q19 9 42.5 33 t36.5 44l14 19l208 -55q-18 -43 -43 -78q-125 -170 -260 -170h-256q-66 0 -127 37q-31 18 -80 66.5t-69 78.5q-33 49 -33 117z" />
<glyph unicode="D" horiz-adv-x="1153" d="M90 0v1225h561q72 0 125 -35q31 -18 78 -68t70 -82q32 -44 32 -116v-627q0 -73 -30 -117q-20 -30 -70 -77.5t-82 -65.5q-68 -37 -123 -37h-561zM305 205h332q12 0 14 2q26 14 58 45.5t32 48.5v617q0 6 -2 10q-18 29 -44 54.5t-46 35.5q-2 2 -18 2h-326v-815z" />
<glyph unicode="E" horiz-adv-x="1056" d="M90 0v1225h770v-205h-555v-309h516v-205h-516v-301h555v-205h-770z" />
<glyph unicode="F" horiz-adv-x="1011" d="M90 0v1225h768v-205h-553v-309h516v-205h-516v-506h-215z" />
<glyph unicode="G" horiz-adv-x="1224" d="M90 289v647q0 68 33 117q22 30 70.5 80t78.5 67q58 35 127 35h299q141 0 260 -170q33 -48 43 -72l-206 -59q-46 61 -97 94q-2 2 -10 2h-278l-11 -2q-19 -10 -47 -35.5t-45 -52.5l-2 -8v-641q0 -17 33.5 -48t60.5 -46q1 0 4 -1t7 -1h278l10 2q25 14 60 48.5t35 51.5v199 h-265v204h480v-413q14 -135 39 -287h-211l-11 49q-1 -1 -11.5 -8t-14.5 -10t-14.5 -9.5t-16.5 -9.5t-16.5 -8t-18 -7.5t-17 -4.5t-18.5 -2h-299q-66 0 -127 37q-31 18 -80 66t-69 77q-33 49 -33 119z" />
<glyph unicode="H" horiz-adv-x="1171" d="M90 0v1225h215v-514h447v514h215v-1225h-215v506h-447v-506h-215z" />
<glyph unicode="I" horiz-adv-x="509" d="M90 0v1225h215v-1225h-215z" />
<glyph unicode="J" horiz-adv-x="966" d="M-6 238l207 55q14 -32 38 -59t44 -37q1 -1 3 -1t4.5 -0.5t5.5 -0.5h3h139q10 -1 56.5 43t46.5 53v934h215v-936q0 -65 -35 -117q-22 -31 -69.5 -79.5t-76.5 -65.5q-65 -37 -126 -37h-152q-136 0 -262 170q-11 15 -41 78z" />
<glyph unicode="K" horiz-adv-x="1103" d="M90 0v1225h215v-510h21q74 88 216 260t208 250h264l-510 -611q53 -63 239.5 -288.5t272.5 -325.5h-264l-424 512h-23v-512h-215z" />
<glyph unicode="L" horiz-adv-x="983" d="M90 0v1225h215v-1020h543v-205h-758z" />
<glyph unicode="M" horiz-adv-x="1353" d="M90 0v1225h246l287 -604l282 604h244v-1225h-215v838l-244 -537h-141l-244 535v-836h-215z" />
<glyph unicode="N" horiz-adv-x="1161" d="M90 0v1225h232l419 -824v824h215v-1225h-227l-424 813v-813h-215z" />
<glyph unicode="O" horiz-adv-x="1206" d="M92 291v641q0 68 33 117q22 30 70.5 80t78.5 67q61 37 127 37h312q66 0 127 -37q29 -17 76 -65.5t73 -81.5q33 -49 33 -117v-641q0 -68 -33 -117q-26 -33 -73 -81.5t-76 -65.5q-61 -37 -127 -37h-312q-66 0 -127 37q-30 17 -78.5 67t-70.5 80q-33 49 -33 117zM307 293 q0 -6 2 -8q18 -27 45 -53t45 -35q4 -2 11 -2h295q6 0 10 2q18 9 45 35t45 53l2 8v633q0 8 -2 10q-18 27 -45 54t-45 36q-4 2 -10 2h-295q-9 0 -11 -2q-18 -9 -45 -36t-45 -54l-2 -10v-633z" />
<glyph unicode="P" horiz-adv-x="1099" d="M90 0v1225h576q81 0 145 -45q21 -15 59 -53.5t52 -59.5q36 -53 36 -125v-180q0 -72 -36 -125q-13 -20 -51 -57t-60 -52q-62 -45 -145 -45h-361v-483h-215zM305 688h361q13 0 38 23t37 45q2 4 2 8v176q0 10 -2 14q-11 20 -31 42.5t-34 23.5h-10h-361v-332z" />
<glyph unicode="Q" horiz-adv-x="1214" d="M92 291v641q0 68 33 117q22 30 70.5 80t78.5 67q61 37 127 37h312q66 0 127 -37q29 -17 76 -65.5t73 -81.5q33 -49 33 -117v-641q0 -68 -33 -117q-26 -33 -73 -81.5t-76 -65.5q-58 -30 -82 -33l2 -4l80 -178h-228l-75 178h-136q-66 0 -127 37q-30 17 -78.5 67t-70.5 80 q-33 49 -33 117zM307 299q0 -6 2 -8q19 -28 46 -56.5t44 -37.5q4 -2 11 -2h47l-13 30l197 66l41 -96h27q6 0 10 2q35 18 86 94l2 8v633q0 6 -2 8q-18 27 -43 52t-43 34q-4 2 -10 2h-299q-9 0 -11 -2q-19 -10 -45.5 -35t-44.5 -51l-2 -8v-633z" />
<glyph unicode="R" horiz-adv-x="1185" d="M90 0v1225h576q81 0 145 -45q21 -15 59 -53.5t52 -59.5q36 -53 36 -125v-180q0 -72 -36 -125q-13 -20 -51 -57t-60 -52q-25 -19 -53 -28l243 -500h-233l-227 483h-236v-483h-215zM305 688h361q13 0 38 23t37 45q2 4 2 8v176q0 10 -2 14q-11 20 -31 42.5t-34 23.5h-371 v-332z" />
<glyph unicode="S" horiz-adv-x="1169" d="M33 223l203 68q41 -57 90 -94q4 -2 14 -2h336l12 2q23 12 57.5 47t34.5 47v121q0 13 -8 22.5t-16 11.5l-533 152q-75 21 -117.5 84.5t-42.5 138.5v111q0 71 31 117q20 30 70.5 79.5t81.5 67.5q68 37 127 37h303q44 0 84 -15.5t73.5 -44.5t55.5 -53t47 -57q24 -35 41 -72 l-207 -59q-47 67 -90 94q-2 2 -12 2h-289l-12 -2q-24 -12 -56 -45t-32 -45v-102q0 -13 7 -23t15 -12l535 -156q74 -21 116.5 -85t42.5 -138v-129q0 -73 -32 -117q-20 -30 -70 -79.5t-80 -67.5q-68 -37 -127 -37h-356q-135 0 -260 170q-17 25 -37 63z" />
<glyph unicode="T" horiz-adv-x="1032" d="M25 1020v205h878v-205h-332v-1020h-215v1020h-331z" />
<glyph unicode="U" horiz-adv-x="1136" d="M72 291v934h215v-930q0 -8 2 -10q19 -28 45 -53.5t45 -34.5l10 -2h244q6 0 10 2q18 9 44 35t44 53l2 8v932h215v-934q0 -68 -33 -117q-23 -32 -70.5 -81t-78.5 -66q-61 -37 -125 -37h-260q-66 0 -127 37q-30 17 -79.5 67t-70.5 80q-32 47 -32 117z" />
<glyph unicode="V" horiz-adv-x="1071" d="M-51 1225h229l301 -949l303 949h228l-406 -1225h-252z" />
<glyph unicode="W" horiz-adv-x="1511" d="M-12 1225h221l184 -860l203 860h229l203 -860l182 860h228l-285 -1225h-244l-196 821l-199 -821h-246z" />
<glyph unicode="X" horiz-adv-x="1089" d="M-16 0l389 627l-369 598h238l250 -408l251 408h238l-371 -598l391 -627h-239l-270 436l-269 -436h-239z" />
<glyph unicode="Y" horiz-adv-x="1064" d="M-35 1225h238l272 -465l273 465h239l-405 -690v-535h-215v535z" />
<glyph unicode="Z" horiz-adv-x="1005" d="M59 0v174l539 846h-539v205h807v-178l-530 -842h530v-205h-807z" />
<glyph unicode="[" horiz-adv-x="663" d="M90 0v1225h404v-195h-189v-835h189v-195h-404z" />
<glyph unicode="\" horiz-adv-x="892" d="M-43 1229h238l669 -1229h-239z" />
<glyph unicode="]" horiz-adv-x="673" d="M66 0v195h188v835h-188v195h403v-1225h-403z" />
<glyph unicode="^" horiz-adv-x="706" d="M-20 575l223 654h196l232 -654h-199l-129 394l-127 -394h-196z" />
<glyph unicode="_" horiz-adv-x="946" d="M61 0h797v-193h-797v193z" />
<glyph unicode="`" horiz-adv-x="780" d="M188 1298h242l188 -243l-188 -56z" />
<glyph unicode="a" horiz-adv-x="980" d="M35 256v37q0 74 37 125q12 17 42 45.5t54 46.5q64 45 147 45h283v70q0 8 -2 10q-22 36 -66 61q-8 4 -12 4h-180q-16 0 -42.5 -22.5t-39.5 -40.5l-193 57q14 33 59 82t75 70q71 49 147 49h176q86 0 150 -45q25 -18 56 -48t42 -48q35 -47 35 -127v-447l20 -180h-202l-11 41 q-70 -51 -127 -51h-168q-83 0 -147 45q-23 17 -53.5 47.5t-42.5 48.5q-37 51 -37 125zM240 258l2 -6q26 -46 63 -64q8 -4 12 -4h160q16 0 61 32.5t60 49.5v107h-281q-8 0 -14 -4q-36 -22 -61 -66q-2 -4 -2 -6v-39z" />
<glyph unicode="b" horiz-adv-x="1003" d="M70 0l16 182v1043h205v-377q66 47 121 47h151q87 0 148 -43q23 -16 53.5 -48t44.5 -52q37 -51 37 -127v-363q0 -74 -37 -127q-12 -19 -43.5 -51t-54.5 -49q-61 -45 -148 -45h-151q-63 0 -133 55l-7 -45h-202zM291 276q22 -26 66.5 -59t60.5 -33h143q4 0 12 4q44 27 66 66 q2 4 2 12v355l-2 10q-23 41 -66 67q-2 2 -14 2h-141q-18 0 -61.5 -32t-65.5 -58v-334z" />
<glyph unicode="c" horiz-adv-x="960" d="M72 258v369q0 75 37 125q12 19 43.5 51t54.5 49q61 43 149 43h195q79 0 147 -47q35 -25 75 -69.5t56 -82.5l-190 -57l-6 8q-12 14 -37.5 33.5t-38.5 19.5h-199l-12 -4q-47 -26 -65 -59l-5 -12v-365q1 -6 5 -12q19 -34 65 -60q8 -4 12 -4h201q13 0 38 19.5t38 34.5 q2 2 6 8l190 -58q-14 -34 -58 -82.5t-73 -68.5q-68 -47 -147 -47h-197q-88 0 -149 43q-23 17 -54.5 49t-43.5 51q-37 50 -37 125z" />
<glyph unicode="d" horiz-adv-x="1013" d="M72 262v363q0 76 37 127q14 20 44.5 52t53.5 48q61 43 147 43h148q55 0 121 -47v377h204v-1043l17 -182h-201l-8 45q-70 -55 -133 -55h-148q-86 0 -147 45q-23 17 -54.5 49t-43.5 51q-37 53 -37 127zM276 266l3 -12q22 -40 65 -66q8 -4 12 -4h140q16 0 60.5 33t66.5 59 v334q-22 26 -65.5 58t-61.5 32h-140q-10 0 -12 -2q-18 -11 -36.5 -30t-28.5 -37q-3 -4 -3 -10v-355z" />
<glyph unicode="e" horiz-adv-x="989" d="M72 258v369q0 72 39 125q12 18 43.5 49.5t54.5 48.5q64 45 149 45h189q85 0 149 -45q24 -18 55.5 -49t43.5 -49q36 -48 36 -125v-283h-555v-84l3 -10q14 -23 39 -44.5t40 -21.5h199q13 0 38 19.5t38 34.5l6 8l190 -58q-14 -34 -58 -82.5t-73 -68.5q-68 -47 -147 -47h-193 q-88 0 -149 43q-23 17 -54.5 48.5t-43.5 49.5q-39 53 -39 127zM276 526h351v97q0 10 -2 12q-9 15 -29 34t-39 29q-4 2 -12 2h-187q-15 0 -40 -21t-39 -44l-3 -12v-97z" />
<glyph unicode="f" horiz-adv-x="696" d="M14 690v195h138v78q0 79 36 127q13 19 44.5 50.5t54.5 47.5q64 45 149 45h193v-193l-191 -2q-14 0 -22 -4q-17 -10 -38 -28.5t-22 -30.5v-90h224v-195h-224v-690h-204v690h-138z" />
<glyph unicode="g" horiz-adv-x="1021" d="M74 264v359q0 77 37 127q14 20 44.5 52t53.5 48q64 45 149 45h158q65 0 135 -55l8 45h201l-18 -185v-774q0 -82 -35 -129q-12 -18 -43 -49t-55 -49q-64 -45 -150 -45h-180q-77 0 -148 49q-29 20 -73 69t-58 83l191 57q2 -4 6 -8q13 -16 38 -36t38 -20h184q2 0 12 5 q17 9 42 30.5t26 32.5v14v111q-69 -49 -121 -49h-158q-85 0 -149 45q-23 16 -53.5 48t-44.5 52q-37 50 -37 127zM279 268q0 -8 2 -12q23 -41 67 -68q4 -2 12 -2h150q10 0 14 2q26 13 58.5 40t54.5 53v323q-90 96 -127 96h-150q-4 0 -12 -4q-45 -27 -67 -67l-2 -11v-350z" />
<glyph unicode="h" horiz-adv-x="993" d="M68 0v1225h204v-379q69 49 121 49h148q86 0 147 -45q23 -16 53.5 -48t44.5 -52q37 -53 37 -125v-625h-205v621l-2 10q-10 18 -28.5 37t-36.5 30q-2 2 -12 2h-142q-19 0 -61.5 -33t-63.5 -59v-608h-204z" />
<glyph unicode="i" horiz-adv-x="460" d="M82 1010v219h219v-219h-219zM90 0v885h205v-885h-205z" />
<glyph unicode="j" horiz-adv-x="475" d="M-127 -147h166l12 2q51 31 70 71q2 7 2 11v948h205v-951q0 -76 -37 -129q-13 -19 -45.5 -51.5t-55.5 -48.5q-61 -43 -145 -43h-172v191zM115 1010v219h219v-219h-219z" />
<glyph unicode="k" horiz-adv-x="901" d="M68 0v1225h204v-660h39q17 20 44 53.5t85 103.5t96 116.5t37 46.5h254l-340 -414l363 -471h-262l-279 373h-37v-373h-204z" />
<glyph unicode="l" horiz-adv-x="471" d="M82 158v1067h205v-1045l26 -180h-207z" />
<glyph unicode="m" horiz-adv-x="1466" d="M66 885h200l10 -47q78 57 130 57h102q85 0 149 -45q28 -21 60 -53l45 34q31 24 73 44t74 20h103q85 0 149 -45q24 -18 55.5 -49t43.5 -49q36 -48 36 -125v-627h-204v623q0 6 -2 12q-18 35 -64 63q-4 2 -16 2h-95q-42 0 -118 -82v-618h-2h-201h-2v623q0 8 -2 12 q-17 32 -68 63q-4 2 -16 2h-94q-13 0 -26 -4.5t-22.5 -10.5t-22 -17t-18.5 -17t-17.5 -19t-14.5 -16v-616h-205v702z" />
<glyph unicode="n" horiz-adv-x="1013" d="M68 885h200l11 -47q78 57 129 57h151q86 0 150 -45q24 -18 55 -49t43 -49q37 -50 37 -125v-627h-205v623q0 8 -2 12q-18 35 -64 63q-2 2 -16 2h-143q-43 0 -121 -84v-616h-205v702z" />
<glyph unicode="o" horiz-adv-x="987" d="M72 258v369q0 79 34 125q11 18 43.5 48.5t57.5 49.5q64 45 147 45h193q85 0 149 -45q24 -18 55.5 -49t43.5 -49q34 -46 34 -125v-369q0 -79 -34 -125q-12 -19 -43.5 -51t-55.5 -49q-61 -43 -149 -43h-193q-86 0 -147 43q-24 18 -56.5 50t-44.5 50q-34 46 -34 125z M276 248q0 -11 22.5 -30t45.5 -32q4 -2 12 -2h189q4 0 12 4q18 10 42.5 29.5t25.5 30.5v373q0 6 -2 12q-9 16 -29.5 35.5t-38.5 29.5q-4 2 -10 2h-189q-6 0 -10 -2q-45 -25 -67 -65l-3 -12v-373z" />
<glyph unicode="p" horiz-adv-x="1005" d="M68 885h202l9 -45q70 55 133 55h149q87 0 148 -45q23 -17 54.5 -49t43.5 -51q37 -53 37 -127v-363q0 -76 -37 -127q-14 -20 -44.5 -52t-53.5 -48q-61 -43 -148 -43h-149q-55 0 -121 47v-371h-205v1036zM291 274q22 -26 65.5 -58t61.5 -32h141q8 0 12 2q42 26 66 68 q2 4 2 10v354l-2 13q-21 38 -66 65q-8 4 -12 4h-141q-16 0 -60.5 -33t-66.5 -59v-334z" />
<glyph unicode="q" horiz-adv-x="1017" d="M72 260v363q0 74 37 127q12 19 43.5 51t54.5 49q61 45 147 45h150q63 0 133 -55l10 45h201l-19 -183v-1036h-204v371q-66 -47 -121 -47h-150q-86 0 -147 43q-23 16 -53.5 48t-44.5 52q-37 51 -37 127zM276 264l3 -10q24 -43 65 -68l4 -1q3 -1 8 -1h142q18 0 61.5 32 t65.5 58v334q-22 26 -66.5 59t-60.5 33h-142q-4 0 -12 -4q-43 -26 -65 -65q-3 -7 -3 -13v-354z" />
<glyph unicode="r" horiz-adv-x="851" d="M68 885h198l10 -49q81 59 132 59h122q79 0 152 -51q33 -24 72 -69t53 -79l-191 -57q-15 20 -41 40.5t-51 20.5h-110q-54 0 -125 -88v-612h-205v702z" />
<glyph unicode="s" horiz-adv-x="960" d="M29 190l190 58l6 -8q12 -14 37.5 -34.5t38.5 -21.5h238q19 0 46 26.5t27 47.5v49q0 27 -26 29l-148.5 11t-187.5 15q-86 6 -139.5 60t-53.5 149v62q0 74 37 125q95 137 238 137h196q80 0 148 -47q35 -25 76 -69.5t57 -82.5l-193 -57q-2 4 -6 8q-13 15 -37.5 34t-37.5 19 h-197q-19 0 -27 -4q-9 -4 -24 -18t-23 -29q-2 -4 -2 -20v-49q0 -6 9 -16t22 -11q24 -3 142 -14t179 -17q90 -10 146.5 -62.5t56.5 -148.5v-57q0 -72 -39 -125q-13 -20 -40.5 -48.5t-51.5 -45.5q-64 -45 -145 -45h-234q-76 0 -147 49q-35 25 -75 69t-56 82z" />
<glyph unicode="t" horiz-adv-x="716" d="M0 690v195h137v340h205v-340h254v-195h-254v-416q0 -8 2 -12q11 -21 35.5 -44t44.5 -23h170v-195h-172q-87 0 -148 43q-23 16 -53.5 48t-44.5 52q-39 56 -39 129v418h-137z" />
<glyph unicode="u" horiz-adv-x="999" d="M63 260v625h205v-621q0 -10 2 -14q16 -30 68 -62q4 -2 12 -2h146q14 0 56 29.5t64 52.5v617h205v-703l19 -182h-201l-8 51q-81 -59 -129 -59h-154q-88 0 -149 43q-24 17 -55.5 49t-43.5 51q-37 50 -37 125z" />
<glyph unicode="v" horiz-adv-x="880" d="M-33 885h230l206 -600l209 600h217l-319 -885h-217z" />
<glyph unicode="w" horiz-adv-x="1351" d="M-16 885h217l164 -572l161 572h215l158 -572l168 572h215l-274 -885h-209l-166 555l-170 -555h-209z" />
<glyph unicode="x" horiz-adv-x="909" d="M-14 0l307 453l-297 432h244l176 -260l170 260h243l-292 -434l307 -451h-242l-186 274l-187 -274h-243z" />
<glyph unicode="y" horiz-adv-x="880" d="M-33 885h230l206 -600l209 600h217l-434 -1217h-207l123 332h-18z" />
<glyph unicode="z" horiz-adv-x="909" d="M55 690v195h701v-168l-410 -522h430v-195h-704v166l407 524h-424z" />
<glyph unicode="{" horiz-adv-x="718" d="M90 289v647q0 72 33 117q22 31 69 79.5t76 65.5q58 35 125 35h156v-201h-146l-12 -2q-18 -10 -44 -35t-44 -53l-2 -10v-641q0 -17 35 -49t61 -47q2 -2 13 -2h139v-201h-156q-55 0 -123 37q-31 18 -80.5 65t-68.5 76q-31 45 -31 119z" />
<glyph unicode="|" horiz-adv-x="485" d="M80 -188v1554h201v-1554h-201z" />
<glyph unicode="}" horiz-adv-x="731" d="M66 -8v201h145l8 2q22 11 59 49.5t37 46.5v641q0 11 -36 48t-60 50q-2 2 -6 2h-147v201h155q67 0 125 -35q30 -17 78.5 -66t69.5 -79q32 -47 32 -117v-647q0 -75 -30 -119q-19 -29 -69 -76t-81 -65q-68 -37 -125 -37h-155z" />
<glyph unicode="~" horiz-adv-x="946" d="M39 573l192 60q13 -30 30 -43t32 -10l219 45q88 16 164 -27.5t117 -146.5l-195 -60q-25 59 -61 51l-218 -47q-87 -16 -163 29.5t-117 148.5z" />
<glyph unicode="&#xa1;" horiz-adv-x="534" d="M98 997v228h232v-228h-232zM109 0v885h210v-885h-210z" />
<glyph unicode="&#xa2;" horiz-adv-x="933" d="M72 258v369q0 75 37 125q12 18 43 49t55 49q64 45 149 45h39l2 328h119l-2 -328h51q74 0 148 -51q29 -20 74 -69t59 -83l-193 -57q-2 4 -6 8q-14 16 -38.5 36.5t-37.5 20.5h-57v-516h66q13 0 37.5 19.5t37.5 34.5q3 2 7 8l190 -58q-14 -34 -58 -82.5t-73 -68.5 q-68 -47 -148 -47h-59v-324h-119v324h-39q-88 0 -149 43q-23 17 -54.5 49t-43.5 51q-37 50 -37 125zM276 260q1 -6 5 -12q19 -34 65 -60q8 -4 12 -4h37v516h-37q-8 0 -12 -2q-48 -27 -67 -61l-3 -14v-363z" />
<glyph unicode="&#xa3;" horiz-adv-x="1204" d="M76 358v193h80v49h-80v193h80v116q0 74 30 115q21 30 69.5 79t78.5 66q68 37 125 37h293v-205h-285l-10 -2q-20 -11 -44 -34.5t-40 -49.5q-2 -4 -2 -18v-104h430v-193h-430v-49h430v-193h-430v-153h356q10 0 12 2q45 22 90 92l11 20l200 -61q-5 -18 -19.5 -46.5 t-27.5 -45.5q-49 -67 -116 -116.5t-144 -49.5h-577v358h-80z" />
<glyph unicode="&#xa4;" horiz-adv-x="1136" d="M158 379l69 70l-12 18q-43 61 -43 149v21q0 86 43 147q2 3 8 10.5t8 10.5l-69 72l133 137l96 -99q23 5 51 5h207q27 0 47 -5l99 99l137 -142l-72 -73q2 -2 6 -7.5t6 -7.5q46 -65 46 -147v-21q0 -84 -46 -149q-2 -3 -7 -9t-7 -9l74 -74l-137 -137l-99 98q-16 -2 -47 -2 h-207q-31 0 -45 2l-98 -98zM350 608q0 -8 2 -12q44 -65 64 -68h243q7 0 13 2q16 9 35.5 29.5t29.5 38.5v57q-26 46 -65 70l-13 2h-243q-11 0 -32.5 -24t-33.5 -46v-49z" />
<glyph unicode="&#xa5;" horiz-adv-x="1005" d="M12 1225h238l266 -455l268 455h238l-303 -496h170v-192h-266v-60h266v-192h-266v-285h-215v285h-277v192h277v60h-277v192h174z" />
<glyph unicode="&#xa6;" horiz-adv-x="395" d="M80 -193v674h201v-674h-201zM80 698v668h201v-668h-201z" />
<glyph unicode="&#xa7;" horiz-adv-x="1044" d="M61 227l195 66q59 -113 100 -113h258q17 0 39.5 18t32.5 35v37q0 6 -8 13.5t-19 7.5l-270 12q-75 3 -131 39q-20 13 -60.5 48t-56.5 56q-45 60 -45 144v14q0 92 66 164q-69 59 -80 184q-6 69 39 131q98 138 237 138h256q85 0 146 -45q39 -29 81 -83.5t68 -117.5l-190 -62 q-17 35 -47.5 74t-55.5 39h-256q-18 0 -46 -26.5t-27 -43.5q0 -1 1 -9.5t1.5 -11t2.5 -9.5t4.5 -10t7.5 -6t11 -3l258 -14q108 -4 162 -39q19 -11 57 -47t56 -59q47 -62 47 -144v-14q0 -98 -72 -170q68 -65 68 -154v-26q0 -60 -37 -115q-12 -18 -40 -46t-52 -46 q-63 -47 -148 -47h-254q-77 0 -134 38t-109 107q-26 34 -56 96zM299 588q0 -6 2 -10q0 -1 13 -18.5t30 -35.5t25 -20l239 -12l13 2q22 13 47.5 46t25.5 46v18l-2 10q-14 22 -37.5 45.5t-40.5 32.5q-4 2 -8 2l-237 11q-36 -20 -68 -82l-2 -15v-20z" />
<glyph unicode="&#xa8;" horiz-adv-x="743" d="M154 1016v211h198v-211h-198zM483 1016v211h199v-211h-199z" />
<glyph unicode="&#xa9;" horiz-adv-x="1462" d="M86 289v647q0 72 33 117q22 30 69.5 79t77.5 66q58 35 125 35h619q67 0 125 -35q30 -17 77.5 -66t69.5 -79q35 -52 35 -117v-647q0 -72 -33 -117q-22 -30 -69.5 -79t-77.5 -66q-58 -35 -125 -35h-619q-67 0 -125 35q-30 17 -77.5 66t-69.5 79q-35 52 -35 117zM289 293 q0 -11 38 -52.5t62 -52.5q8 -4 14 -4h596q11 0 19 4q22 10 51 37.5t43 55.5q2 4 2 12v639q0 11 -38 52t-62 52q-8 4 -15 4h-596q-10 0 -18 -4q-22 -11 -51 -37.5t-43 -54.5q-2 -4 -2 -12v-639zM403 504q0 -66 33 -113q10 -17 40 -47t50 -43q53 -39 131 -39h97 q72 0 132.5 59.5t96.5 135.5l-164 43q-15 -42 -55 -66q-4 -2 -12 -2h-107q-13 1 -30.5 19.5t-24.5 33.5l-2 15v219q0 8 2 14q7 15 24.5 33.5t30.5 19.5h107q8 0 12 -2q41 -24 55 -65l164 43q-36 75 -96.5 134.5t-132.5 59.5h-97q-79 0 -131 -38q-20 -13 -49.5 -43.5 t-40.5 -47.5q-33 -47 -33 -112v-211z" />
<glyph unicode="&#xaa;" horiz-adv-x="788" d="M61 772v262q0 63 27 99q11 15 35.5 38.5t42.5 36.5q54 35 113 35h110q20 0 70 -20v18h168v-526l18 -142h-170l-6 37q-73 -47 -100 -47h-90q-59 0 -113 35q-43 31 -78 76q-27 36 -27 98zM231 788q0 -6 2 -10q19 -27 48 -45q2 -2 10 -2h86q8 0 10 2q64 40 68 45q2 2 2 10 v230q0 8 -2 10q-27 33 -47 45q-2 2 -11 2h-106q-8 0 -10 -2q-29 -18 -48 -45l-2 -10v-230z" />
<glyph unicode="&#xab;" horiz-adv-x="1226" d="M76 498l330 331l223 -65l-277 -266l281 -273l-227 -59zM532 498l330 331l223 -65l-276 -266l281 -273l-228 -59z" />
<glyph unicode="&#xac;" horiz-adv-x="1052" d="M90 401v193h852h-2l2 -477h-199v284h-653z" />
<glyph unicode="&#xad;" horiz-adv-x="653" d="M51 401v193h455v-193h-455z" />
<glyph unicode="&#xae;" horiz-adv-x="1462" d="M86 289v647q0 72 33 117q22 30 69.5 79t77.5 66q58 35 125 35h619q67 0 125 -35q30 -17 77.5 -66t69.5 -79q35 -52 35 -117v-647q0 -72 -33 -117q-22 -30 -69.5 -79t-77.5 -66q-58 -35 -125 -35h-619q-67 0 -125 35q-30 17 -77.5 66t-69.5 79q-35 52 -35 117zM289 293 q0 -11 38 -52.5t62 -52.5q8 -4 14 -4h596q11 0 19 4q22 10 51 37.5t43 55.5q2 4 2 12v639q0 11 -38 52t-62 52q-8 4 -15 4h-596q-10 0 -18 -4q-22 -11 -51 -37.5t-43 -54.5q-2 -4 -2 -12v-639zM436 264v688h303q70 0 127 -41q20 -13 44 -39t36 -45q28 -46 31 -104v-33 q0 -63 -31 -110q-35 -47 -67 -74l127 -238h-191l-98 191h-99v-195h-182zM618 631h127q12 6 28.5 23t25.5 34v37q-20 33 -56 57h-125v-151z" />
<glyph unicode="&#xaf;" horiz-adv-x="727" d="M84 1042v183h465v-183h-465z" />
<glyph unicode="&#xb0;" horiz-adv-x="722" d="M92 1200q0 85 64.5 147t150.5 62t148.5 -62t62.5 -147q0 -89 -62 -151t-149 -62t-151 62.5t-64 150.5zM211 1200q0 -40 28 -69t68 -29q39 0 65.5 29t26.5 69q0 37 -26.5 64.5t-65.5 27.5t-67.5 -27.5t-28.5 -64.5z" />
<glyph unicode="&#xb1;" horiz-adv-x="1052" d="M100 0h785v-193h-785v193zM104 401v193h291v289h199v-289h291v-193h-291v-284h-199v284h-291z" />
<glyph unicode="&#xb2;" horiz-adv-x="790" d="M72 1102q42 50 108 96q27 20 69 32.5t77 12.5h92q105 0 192 -108q37 -45 37 -107v-18q0 -60 -58.5 -111.5t-125.5 -73.5l-172 -53q-8 -2 -12.5 -6t-5 -7t-1 -9.5t-0.5 -8.5h359v-166h-541v168q0 69 39 106.5t115 61.5l176 66q55 24 55 49q0 19 -18 37t-41 18h-101 q-17 0 -53 -25t-59 -48z" />
<glyph unicode="&#xb3;" horiz-adv-x="802" d="M72 692l143 82q46 -53 76 -53h137q13 0 21 4q38 21 38 53q0 20 -12.5 30t-26 11t-38.5 0h-111v150h111q25 -1 38.5 0t26 11t12.5 30q0 32 -43 53q-4 2 -16 2h-137q-32 0 -76 -51l-143 82q34 47 86 88q61 45 137 45h135q115 0 191 -86q38 -56 38 -131q0 -86 -57 -119 q28 -16 42.5 -41t14.5 -76q0 -75 -38 -131q-76 -86 -191 -86h-135q-76 0 -137 45q-45 31 -86 88z" />
<glyph unicode="&#xb4;" horiz-adv-x="759" d="M272 1055l189 243h241l-241 -299z" />
<glyph unicode="&#xb5;" horiz-adv-x="999" d="M62.5 249.5q0.5 461.5 0.5 635.5h205v-635q16 -30 68 -62q4 -2 12 -2h148q14 0 56 29.5t64 52.5v617h205v-703l19 -182h-203l-6 51q-81 -59 -129 -59h-154q-38 0 -80 10v-332h-205q-1 118 -0.5 579.5z" />
<glyph unicode="&#xb6;" horiz-adv-x="1079" d="M78 774v150q0 70 37 125q13 20 50.5 57.5t59.5 52.5q61 45 146 45h587v-1204h-206v500h-76v-500h-207v500h-98q-85 0 -146 43q-22 15 -59.5 51.5t-50.5 56.5q-37 55 -37 123zM293 778l2 -10q55 -66 78 -66h96v297h-96q-9 0 -13 -2q-47 -29 -65 -63q-2 -4 -2 -12v-144z M676 702h76v297h-76v-297z" />
<glyph unicode="&#xb7;" horiz-adv-x="585" d="M115 401v205h250v-205h-250z" />
<glyph unicode="&#xb8;" horiz-adv-x="831" d="M211 -406l197 316l198 -60l-164 -256h-231z" />
<glyph unicode="&#xb9;" horiz-adv-x="679" d="M72 561v172h159v342h-139v170h314v-512h131v-172h-465z" />
<glyph unicode="&#xba;" horiz-adv-x="770" d="M61 772v262q0 63 27 99q11 15 35.5 38.5t42.5 36.5q54 35 113 35h131q56 0 114 -35q45 -35 76 -75q27 -36 27 -99v-262q0 -62 -27 -98q-33 -42 -76 -76q-58 -35 -114 -35h-131q-59 0 -113 35q-43 31 -78 76q-27 36 -27 98zM231 788q0 -6 2 -10q19 -27 48 -45q2 -2 10 -2 h106q9 0 11 2q20 12 47 45q2 2 2 10v230q0 8 -2 10q-27 33 -47 45q-2 2 -11 2h-106q-8 0 -10 -2q-29 -18 -48 -45l-2 -10v-230z" />
<glyph unicode="&#xbb;" horiz-adv-x="1204" d="M76 225l280 273l-276 266l223 65l330 -331l-330 -332zM532 225l281 273l-276 266l223 65l330 -331l-330 -332z" />
<glyph unicode="&#xbc;" horiz-adv-x="1519" d="M72 561v172h159v342h-139v170h314v-512h131v-172h-465zM313 0l664 1225h229l-663 -1225h-230zM780 133v143l353 392h147v-369h96v-166h-96v-133h-174v133h-326zM981 297h133l-2 141z" />
<glyph unicode="&#xbd;" horiz-adv-x="1642" d="M72 561v172h159v342h-139v170h314v-512h131v-172h-465zM313 0l664 1225h229l-663 -1225h-230zM924 526q44 53 108 97q27 20 69 32.5t77 12.5h92q104 0 192 -109q37 -45 37 -106v-19q0 -60 -58 -111t-126 -73l-172 -53q-8 -2 -12.5 -6t-5 -7t-1 -9.5t-0.5 -8.5h359v-166 h-541v168q0 69 39 106.5t115 61.5l176 65q55 24 55 50q0 19 -18 37t-41 18h-101q-17 0 -53 -25.5t-59 -48.5z" />
<glyph unicode="&#xbe;" horiz-adv-x="1572" d="M72 692l143 82q46 -53 76 -53h137q13 0 21 4q38 21 38 53q0 20 -12.5 30t-26 11t-38.5 0h-111v150h111q25 -1 38.5 0t26 11t12.5 30q0 32 -43 53q-4 2 -16 2h-137q-32 0 -76 -51l-143 82q34 47 86 88q61 45 137 45h135q115 0 191 -86q38 -56 38 -131q0 -86 -57 -119 q28 -16 42.5 -41t14.5 -76q0 -75 -38 -131q-76 -86 -191 -86h-135q-76 0 -137 45q-45 31 -86 88zM367 0l663 1225h230l-664 -1225h-229zM834 133v143l352 392h147v-369h97v-166h-97v-133h-174v133h-325zM1034 297h133l-2 141z" />
<glyph unicode="&#xbf;" horiz-adv-x="942" d="M78 281v141q0 72 42 129.5t105 89.5q5 2 29 12.5t43 20t41.5 22.5t35.5 26.5t13 25.5v149h215v-158q0 -31 -7.5 -58t-19 -48t-31.5 -41.5t-37.5 -33.5t-45.5 -29.5t-46 -25.5t-49.5 -23.5t-46.5 -22.5q-26 -13 -26 -41v-133l2 -11q14 -24 37.5 -45.5t38.5 -21.5h229 q7 0 16 6q21 14 47 39.5t39 48.5l9 14l202 -59q-23 -49 -47 -86q-47 -69 -114 -118.5t-146 -49.5h-244q-80 0 -143 47q-21 14 -55.5 50.5t-48.5 58.5q-37 55 -37 125zM371 991v240h247v-240h-247z" />
<glyph unicode="&#xc0;" horiz-adv-x="1124" d="M-49 0l428 1225h250l426 -1225h-230l-90 260h-465l-90 -260h-229zM268 1575h242l188 -244l-188 -55zM338 465h330l-164 483z" />
<glyph unicode="&#xc1;" horiz-adv-x="1124" d="M-49 0l428 1225h250l426 -1225h-230l-90 260h-465l-90 -260h-229zM338 465h330l-164 483zM410 1350l188 243h242l-242 -299z" />
<glyph unicode="&#xc2;" horiz-adv-x="1124" d="M-49 0l428 1225h250l426 -1225h-230l-90 260h-465l-90 -260h-229zM221 1305l201 268h192l201 -268h-219l-78 106l-78 -106h-219zM338 465h330l-164 483z" />
<glyph unicode="&#xc3;" horiz-adv-x="1124" d="M-49 0l428 1225h250l426 -1225h-230l-90 260h-465l-90 -260h-229zM168 1485l174 43q13 -30 34 -43t38 -8l139 43q81 26 161.5 -18.5t121.5 -149.5l-164 -47q-12 30 -39.5 46t-44.5 11l-133 -43q-79 -26 -162.5 18.5t-124.5 147.5zM338 465h330l-164 483z" />
<glyph unicode="&#xc4;" horiz-adv-x="1124" d="M-49 0l428 1225h250l426 -1225h-230l-90 260h-465l-90 -260h-229zM240 1337v211h198v-211h-198zM338 465h330l-164 483zM569 1337v211h199v-211h-199z" />
<glyph unicode="&#xc5;" horiz-adv-x="1124" d="M-49 0l428 1225h250l426 -1225h-230l-90 260h-465l-90 -260h-229zM289 1518q0 84 64 146t151 62q86 0 148.5 -61.5t62.5 -146.5q0 -89 -62 -151t-149 -62t-151 62.5t-64 150.5zM338 465h330l-164 483zM408 1518q0 -40 28.5 -69.5t67.5 -29.5t65.5 29.5t26.5 69.5 q0 37 -26.5 64.5t-65.5 27.5t-67.5 -27.5t-28.5 -64.5z" />
<glyph unicode="&#xc6;" horiz-adv-x="1472" d="M-49 0l428 1225h897v-205h-494v-309h455v-205h-455v-301h494v-205h-709v260h-297l-90 -260h-229zM338 465h229v555h-39z" />
<glyph unicode="&#xc7;" horiz-adv-x="1118" d="M90 289v645q0 66 33 115q22 30 70.5 80t78.5 67q68 37 127 37h256q131 0 260 -170q17 -25 43 -72l-208 -59q-62 76 -93 94q-2 2 -8 2h-241l-9 -2q-21 -11 -49 -38.5t-43 -51.5q-2 -4 -2 -23v-622q0 -17 33.5 -48.5t60.5 -45.5q2 -2 15 -2h233q6 0 10 2q19 9 42.5 33 t36.5 44l14 19l208 -55q-18 -43 -43 -78q-125 -170 -260 -170h-256q-66 0 -127 37q-31 18 -80 66.5t-69 78.5q-33 49 -33 117zM272 -406l197 316l199 -60l-164 -256h-232z" />
<glyph unicode="&#xc8;" horiz-adv-x="1056" d="M90 0v1225h770v-205h-555v-309h516v-205h-516v-301h555v-205h-770zM244 1593h241l189 -243l-189 -56z" />
<glyph unicode="&#xc9;" horiz-adv-x="1056" d="M90 0v1225h770v-205h-555v-309h516v-205h-516v-301h555v-205h-770zM348 1350l189 243h241l-241 -299z" />
<glyph unicode="&#xca;" horiz-adv-x="1056" d="M90 0v1225h770v-205h-555v-309h516v-205h-516v-301h555v-205h-770zM188 1305l201 268h193l200 -268h-219l-78 106l-77 -106h-220z" />
<glyph unicode="&#xcb;" horiz-adv-x="1056" d="M90 0v1225h770v-205h-555v-309h516v-205h-516v-301h555v-205h-770zM225 1335v211h199v-211h-199zM555 1335v211h199v-211h-199z" />
<glyph unicode="&#xcc;" horiz-adv-x="491" d="M-121 1593h242l188 -243l-188 -56zM90 0v1225h215v-1225h-215z" />
<glyph unicode="&#xcd;" horiz-adv-x="491" d="M90 0v1225h215v-1225h-215zM90 1350l189 243h241l-241 -299z" />
<glyph unicode="&#xce;" horiz-adv-x="491" d="M-100 1305l200 268h193l201 -268h-220l-77 106l-78 -106h-219zM90 0v1225h215v-1225h-215z" />
<glyph unicode="&#xcf;" horiz-adv-x="491" d="M-68 1337v211h199v-211h-199zM90 0v1225h215v-1225h-215zM262 1337v211h199v-211h-199z" />
<glyph unicode="&#xd0;" horiz-adv-x="1193" d="M-23 516v193h154v516h563q70 0 123 -35q30 -18 76.5 -66.5t73.5 -83.5q30 -44 30 -116v-627q0 -72 -28 -117q-22 -30 -71.5 -77.5t-80.5 -65.5q-72 -37 -123 -37h-563v516h-154zM346 205h334q10 0 14 2q25 14 56.5 45.5t31.5 48.5v627q-18 30 -44.5 55.5t-47.5 34.5 q-2 2 -16 2h-328v-311h211v-193h-211v-311z" />
<glyph unicode="&#xd1;" horiz-adv-x="1159" d="M90 0v1225h232l419 -824v824h215v-1225h-227l-424 813v-813h-215zM219 1489l174 43q13 -30 34 -43t38 -8l139 43q81 26 161.5 -18.5t121.5 -149.5l-164 -47q-12 30 -39.5 46t-44.5 11l-133 -43q-79 -26 -162.5 18.5t-124.5 147.5z" />
<glyph unicode="&#xd2;" horiz-adv-x="1202" d="M92 291v641q0 68 33 117q22 30 70.5 80t78.5 67q61 37 127 37h312q66 0 127 -37q29 -17 76 -65.5t73 -81.5q33 -49 33 -117v-641q0 -68 -33 -117q-26 -33 -73 -81.5t-76 -65.5q-61 -37 -127 -37h-312q-66 0 -127 37q-30 17 -78.5 67t-70.5 80q-33 49 -33 117zM307 293 q0 -6 2 -8q18 -27 45 -53t45 -35q4 -2 11 -2h295q6 0 10 2q18 9 45 35t45 53l2 8v633q0 8 -2 10q-18 27 -45 54t-45 36q-4 2 -10 2h-295q-9 0 -11 -2q-18 -9 -45 -36t-45 -54l-2 -10v-633zM313 1593h242l188 -243l-188 -56z" />
<glyph unicode="&#xd3;" horiz-adv-x="1206" d="M92 291v641q0 68 33 117q22 30 70.5 80t78.5 67q61 37 127 37h312q66 0 127 -37q29 -17 76 -65.5t73 -81.5q33 -49 33 -117v-641q0 -68 -33 -117q-26 -33 -73 -81.5t-76 -65.5q-61 -37 -127 -37h-312q-66 0 -127 37q-30 17 -78.5 67t-70.5 80q-33 49 -33 117zM307 293 q0 -6 2 -8q18 -27 45 -53t45 -35q4 -2 11 -2h295q6 0 10 2q18 9 45 35t45 53l2 8v633q0 8 -2 10q-18 27 -45 54t-45 36q-4 2 -10 2h-295q-9 0 -11 -2q-18 -9 -45 -36t-45 -54l-2 -10v-633zM354 1350l189 243h241l-241 -299z" />
<glyph unicode="&#xd4;" horiz-adv-x="1206" d="M92 291v641q0 68 33 117q22 30 70.5 80t78.5 67q61 37 127 37h312q66 0 127 -37q29 -17 76 -65.5t73 -81.5q33 -49 33 -117v-641q0 -68 -33 -117q-26 -33 -73 -81.5t-76 -65.5q-61 -37 -127 -37h-312q-66 0 -127 37q-30 17 -78.5 67t-70.5 80q-33 49 -33 117zM274 1305 l201 268h193l200 -268h-219l-78 106l-77 -106h-220zM307 293q0 -6 2 -8q18 -27 45 -53t45 -35q4 -2 11 -2h295q6 0 10 2q18 9 45 35t45 53l2 8v633q0 8 -2 10q-18 27 -45 54t-45 36q-4 2 -10 2h-295q-9 0 -11 -2q-18 -9 -45 -36t-45 -54l-2 -10v-633z" />
<glyph unicode="&#xd5;" horiz-adv-x="1185" d="M92 291v641q0 68 33 117q22 30 70.5 80t78.5 67q61 37 127 37h312q66 0 127 -37q29 -17 76 -65.5t73 -81.5q33 -49 33 -117v-641q0 -68 -33 -117q-26 -33 -73 -81.5t-76 -65.5q-61 -37 -127 -37h-312q-66 0 -127 37q-30 17 -78.5 67t-70.5 80q-33 49 -33 117zM229 1485 l174 43q13 -30 34 -43t38 -8l139 43q81 26 161.5 -18.5t121.5 -149.5l-164 -47q-12 30 -39.5 46t-44.5 11l-133 -43q-79 -26 -162.5 18.5t-124.5 147.5zM307 293q0 -6 2 -8q18 -27 45 -53t45 -35q4 -2 11 -2h295q6 0 10 2q18 9 45 35t45 53l2 8v633q0 8 -2 10q-18 27 -45 54 t-45 36q-4 2 -10 2h-295q-9 0 -11 -2q-18 -9 -45 -36t-45 -54l-2 -10v-633z" />
<glyph unicode="&#xd6;" horiz-adv-x="1206" d="M92 291v641q0 68 33 117q22 30 70.5 80t78.5 67q61 37 127 37h312q66 0 127 -37q29 -17 76 -65.5t73 -81.5q33 -49 33 -117v-641q0 -68 -33 -117q-26 -33 -73 -81.5t-76 -65.5q-61 -37 -127 -37h-312q-66 0 -127 37q-30 17 -78.5 67t-70.5 80q-33 49 -33 117zM295 1335 v211h199v-211h-199zM307 293q0 -6 2 -8q18 -27 45 -53t45 -35q4 -2 11 -2h295q6 0 10 2q18 9 45 35t45 53l2 8v633q0 8 -2 10q-18 27 -45 54t-45 36q-4 2 -10 2h-295q-9 0 -11 -2q-18 -9 -45 -36t-45 -54l-2 -10v-633zM625 1335v211h198v-211h-198z" />
<glyph unicode="&#xd7;" horiz-adv-x="1052" d="M111 252l247 250l-245 248l135 137l248 -250l249 250l140 -142l-248 -249l246 -248l-135 -137l-248 249l-250 -249z" />
<glyph unicode="&#xd8;" horiz-adv-x="1169" d="M92 291v641q0 68 33 117q22 30 70.5 80t78.5 67q61 37 127 37h312q39 0 98 -23l37 66h139l-78 -139q16 -16 80 -88q33 -49 33 -117v-641q0 -68 -33 -117q-26 -33 -73 -81.5t-76 -65.5q-61 -37 -127 -37h-312q-51 0 -104 24l-35 -65h-139l76 139q-57 61 -74 86 q-33 49 -33 117zM307 287l404 739l-6 2h-295q-9 0 -11 -2q-18 -9 -45 -36t-45 -54l-2 -10v-633v-6zM397 197h2q4 -2 11 -2h295q6 0 10 2q18 9 45 35t45 53l2 8v633q0 8 -2 10l-2 2z" />
<glyph unicode="&#xd9;" horiz-adv-x="1136" d="M72 291q0 -70 32 -117q21 -30 70.5 -80t79.5 -67q61 -37 127 -37h260q64 0 125 37q31 17 78.5 66t70.5 81q33 49 33 117v934h-215v-932q0 -4 -2 -8q-18 -27 -44 -53t-44 -35q-4 -2 -10 -2h-244q-6 0 -10 2q-19 9 -45 34.5t-45 53.5l-2 10v930h-215v-934zM283 1593h241 l189 -243l-189 -56z" />
<glyph unicode="&#xda;" horiz-adv-x="1136" d="M72 291q0 -70 32 -117q21 -30 70.5 -80t79.5 -67q61 -37 127 -37h260q64 0 125 37q31 17 78.5 66t70.5 81q33 49 33 117v934h-215v-932q0 -4 -2 -8q-18 -27 -44 -53t-44 -35q-4 -2 -10 -2h-244q-6 0 -10 2q-19 9 -45 34.5t-45 53.5l-2 10v930h-215v-934zM334 1350 l188 243h242l-242 -299z" />
<glyph unicode="&#xdb;" horiz-adv-x="1136" d="M72 291q0 -70 32 -117q21 -30 70.5 -80t79.5 -67q61 -37 127 -37h260q64 0 125 37q31 17 78.5 66t70.5 81q33 49 33 117v934h-215v-932q0 -4 -2 -8q-18 -27 -44 -53t-44 -35q-4 -2 -10 -2h-244q-6 0 -10 2q-19 9 -45 34.5t-45 53.5l-2 10v930h-215v-934zM225 1305 l201 268h192l201 -268h-219l-78 106l-78 -106h-219z" />
<glyph unicode="&#xdc;" horiz-adv-x="1136" d="M72 291q0 -70 32 -117q21 -30 70.5 -80t79.5 -67q61 -37 127 -37h260q64 0 125 37q31 17 78.5 66t70.5 81q33 49 33 117v934h-215v-932q0 -4 -2 -8q-18 -27 -44 -53t-44 -35q-4 -2 -10 -2h-244q-6 0 -10 2q-19 9 -45 34.5t-45 53.5l-2 10v930h-215v-934zM248 1335v211 h198v-211h-198zM578 1335v211h198v-211h-198z" />
<glyph unicode="&#xdd;" horiz-adv-x="1064" d="M-35 1225h238l272 -465l273 465h239l-405 -690v-535h-215v535zM303 1350l189 243h241l-241 -299z" />
<glyph unicode="&#xde;" horiz-adv-x="1099" d="M90 -2v1227h215v-238h361q81 0 145 -45q21 -15 59 -53.5t52 -59.5q36 -53 36 -124v-181q0 -72 -36 -125q-13 -20 -51 -56t-60 -52q-62 -45 -145 -45h-361v-248h-215zM305 451h361q13 0 38 22.5t37 44.5q2 4 2 8v176q0 11 -2 15q-10 20 -30.5 42t-34.5 23h-371v-331z" />
<glyph unicode="&#xdf;" horiz-adv-x="1112" d="M61 0l19 182v740q0 70 35 118q26 35 70.5 82.5t74.5 65.5q68 37 129 37h121q81 0 145 -45q23 -16 54.5 -48t44.5 -51q39 -56 39 -129v-94q0 -38 -20 -69.5t-62 -73.5l-10 -10l-8.5 -8.5l-7 -7t-6 -6.5t-4.5 -5t-4 -5l-2.5 -5t-2.5 -5.5l-2 -5t-2 -6.5q-3 -9 -3 -26v-33 q0 -6 10 -16t23 -11q17 -2 28.5 -3.5t15.5 -2.5t13.5 -2t26.5 -2q89 -8 146 -61.5t57 -149.5v-90q0 -72 -39 -125q-13 -20 -40.5 -48.5t-51.5 -45.5q-56 -39 -146 -43h-180q-30 0 -66.5 11t-60.5 26q0 -1 24.5 42t48.5 87l24 43q26 -13 34 -15h172q20 0 48 25.5t28 46.5v82 q0 26 -29 29q-29 2 -96 10q-88 11 -140 61.5t-52 143.5v51q0 45 12.5 77t46.5 66q1 1 14 13.5t20.5 20t18.5 21.5t17 25q2 3 2 21v71l-2 13q-12 20 -36.5 43.5t-41.5 23.5h-117q-20 0 -53 -34.5t-49 -63.5l-4 -14v-771l-17 -147h-207z" />
<glyph unicode="&#xe0;" horiz-adv-x="987" d="M35 256v37q0 74 37 125q12 17 42 45.5t54 46.5q64 45 147 45h283v70q0 8 -2 10q-22 36 -66 61q-8 4 -12 4h-180q-16 0 -42.5 -22.5t-39.5 -40.5l-193 57q14 33 59 82t75 70q71 49 147 49h176q86 0 150 -45q25 -18 56 -48t42 -48q35 -47 35 -127v-447l20 -180h-202l-11 41 q-70 -51 -127 -51h-168q-83 0 -147 45q-23 17 -53.5 47.5t-42.5 48.5q-37 51 -37 125zM188 1298h242l188 -243l-188 -56zM240 258l2 -6q26 -46 63 -64q8 -4 12 -4h160q16 0 61 32.5t60 49.5v107h-281q-8 0 -14 -4q-36 -22 -61 -66q-2 -4 -2 -6v-39z" />
<glyph unicode="&#xe1;" horiz-adv-x="987" d="M35 256v37q0 74 37 125q12 17 42 45.5t54 46.5q64 45 147 45h283v70q0 8 -2 10q-22 36 -66 61q-8 4 -12 4h-180q-16 0 -42.5 -22.5t-39.5 -40.5l-193 57q14 33 59 82t75 70q71 49 147 49h176q86 0 150 -45q25 -18 56 -48t42 -48q35 -47 35 -127v-447l20 -180h-202l-11 41 q-70 -51 -127 -51h-168q-83 0 -147 45q-23 17 -53.5 47.5t-42.5 48.5q-37 51 -37 125zM240 258l2 -6q26 -46 63 -64q8 -4 12 -4h160q16 0 61 32.5t60 49.5v107h-281q-8 0 -14 -4q-36 -22 -61 -66q-2 -4 -2 -6v-39zM272 1055l189 243h241l-241 -299z" />
<glyph unicode="&#xe2;" horiz-adv-x="987" d="M35 256v37q0 74 37 125q12 17 42 45.5t54 46.5q64 45 147 45h283v70q0 8 -2 10q-22 36 -66 61q-8 4 -12 4h-180q-16 0 -42.5 -22.5t-39.5 -40.5l-193 57q14 33 59 82t75 70q71 49 147 49h176q86 0 150 -45q25 -18 56 -48t42 -48q35 -47 35 -127v-447l20 -180h-202l-11 41 q-70 -51 -127 -51h-168q-83 0 -147 45q-23 17 -53.5 47.5t-42.5 48.5q-37 51 -37 125zM135 1010l201 268h192l201 -268h-219l-78 106l-78 -106h-219zM240 258l2 -6q26 -46 63 -64q8 -4 12 -4h160q16 0 61 32.5t60 49.5v107h-281q-8 0 -14 -4q-36 -22 -61 -66q-2 -4 -2 -6 v-39z" />
<glyph unicode="&#xe3;" horiz-adv-x="987" d="M35 256v37q0 74 37 125q12 17 42 45.5t54 46.5q64 45 147 45h283v70q0 8 -2 10q-22 36 -66 61q-8 4 -12 4h-180q-16 0 -42.5 -22.5t-39.5 -40.5l-193 57q14 33 59 82t75 70q71 49 147 49h176q86 0 150 -45q25 -18 56 -48t42 -48q35 -47 35 -127v-447l20 -180h-202l-11 41 q-70 -51 -127 -51h-168q-83 0 -147 45q-23 17 -53.5 47.5t-42.5 48.5q-37 51 -37 125zM111 1198l174 43q13 -30 33.5 -43t37.5 -8l140 43q81 26 161 -18.5t121 -149.5l-164 -47q-12 30 -39.5 46t-44.5 11l-133 -43q-79 -26 -162 18.5t-124 147.5zM240 258l2 -6 q26 -46 63 -64q8 -4 12 -4h160q16 0 61 32.5t60 49.5v107h-281q-8 0 -14 -4q-36 -22 -61 -66q-2 -4 -2 -6v-39z" />
<glyph unicode="&#xe4;" horiz-adv-x="980" d="M35 256v37q0 74 37 125q12 17 42 45.5t54 46.5q64 45 147 45h283v70q0 8 -2 10q-22 36 -66 61q-8 4 -12 4h-180q-16 0 -42.5 -22.5t-39.5 -40.5l-193 57q14 33 59 82t75 70q71 49 147 49h176q86 0 150 -45q25 -18 56 -48t42 -48q35 -47 35 -127v-447l20 -180h-202l-11 41 q-70 -51 -127 -51h-168q-83 0 -147 45q-23 17 -53.5 47.5t-42.5 48.5q-37 51 -37 125zM154 1016v211h198v-211h-198zM240 258l2 -6q26 -46 63 -64q8 -4 12 -4h160q16 0 61 32.5t60 49.5v107h-281q-8 0 -14 -4q-36 -22 -61 -66q-2 -4 -2 -6v-39zM483 1016v211h199v-211h-199z " />
<glyph unicode="&#xe5;" horiz-adv-x="987" d="M35 256v37q0 74 37 125q12 17 42 45.5t54 46.5q64 45 147 45h283v70q0 8 -2 10q-22 36 -66 61q-8 4 -12 4h-180q-16 0 -42.5 -22.5t-39.5 -40.5l-193 57q14 33 59 82t75 70q71 49 147 49h176q86 0 150 -45q25 -18 56 -48t42 -48q35 -47 35 -127v-447l20 -180h-202l-11 41 q-70 -51 -127 -51h-168q-83 0 -147 45q-23 17 -53.5 47.5t-42.5 48.5q-37 51 -37 125zM225 1221q0 85 64.5 147t150.5 62t148.5 -62t62.5 -147q0 -89 -62 -151t-149 -62t-151 62.5t-64 150.5zM240 258l2 -6q26 -46 63 -64q8 -4 12 -4h160q16 0 61 32.5t60 49.5v107h-281 q-8 0 -14 -4q-36 -22 -61 -66q-2 -4 -2 -6v-39zM344 1221q0 -40 28.5 -69.5t67.5 -29.5t65.5 29.5t26.5 69.5q0 37 -26.5 64.5t-65.5 27.5t-67.5 -27.5t-28.5 -64.5z" />
<glyph unicode="&#xe6;" horiz-adv-x="1515" d="M35 256v37q0 74 37 125q12 18 42.5 48.5t53.5 47.5q64 45 147 45h283v68v8q-21 35 -68 61q-8 4 -12 4h-180q-16 0 -42.5 -22.5t-39.5 -40.5l-193 57q14 33 59 82t75 70q71 49 147 49h176q86 0 150 -45q2 -2 32 -27q18 15 33 27q64 45 150 45h188q86 0 150 -45 q24 -18 55 -49t43 -49q37 -50 37 -125v-289h-555v-78l2 -10q14 -24 39.5 -46t40.5 -22h198q13 0 38 20t38 36q6 6 6 8l191 -58q-14 -34 -58 -82.5t-73 -68.5q-68 -47 -148 -47h-192q-89 0 -150 43q-24 16 -61 53l-62 -45q-70 -51 -129 -51h-168q-83 0 -147 45 q-23 17 -53.5 47.5t-42.5 48.5q-37 51 -37 125zM238 258l2 -6q22 -40 65 -66q8 -4 12 -4h160q14 0 57.5 30t63.5 50v105h-281q-9 0 -14 -5q-40 -25 -63 -65q-2 -4 -2 -6v-33zM803 530h350v93q0 10 -2 12q-9 15 -29 34t-39 29q-4 2 -12 2h-186q-15 0 -41 -21t-39 -44l-2 -12 v-93zM1163 246q2 2 2 0h-2z" />
<glyph unicode="&#xe7;" horiz-adv-x="976" d="M72 258v369q0 75 37 125q12 19 43.5 51t54.5 49q61 43 149 43h195q79 0 147 -47q35 -25 75 -69.5t56 -82.5l-190 -57l-6 8q-12 14 -37.5 33.5t-38.5 19.5h-199l-12 -4q-47 -26 -65 -59l-5 -12v-365q1 -6 5 -12q19 -34 65 -60q8 -4 12 -4h201q13 0 38 19.5t38 34.5 q2 2 6 8l190 -58q-14 -34 -58 -82.5t-73 -68.5q-68 -47 -147 -47h-197q-88 0 -149 43q-23 17 -54.5 49t-43.5 51q-37 50 -37 125zM211 -406l197 316l198 -60l-164 -256h-231z" />
<glyph unicode="&#xe8;" horiz-adv-x="989" d="M72 258v369q0 72 39 125q12 18 43.5 49.5t54.5 48.5q64 45 149 45h189q85 0 149 -45q24 -18 55.5 -49t43.5 -49q36 -48 36 -125v-283h-555v-84l3 -10q14 -23 39 -44.5t40 -21.5h199q13 0 38 19.5t38 34.5l6 8l190 -58q-14 -34 -58 -82.5t-73 -68.5q-68 -47 -147 -47h-193 q-88 0 -149 43q-23 17 -54.5 48.5t-43.5 49.5q-39 53 -39 127zM188 1298h242l188 -243l-188 -56zM276 526h351v97q0 10 -2 12q-9 15 -29 34t-39 29q-4 2 -12 2h-187q-15 0 -40 -21t-39 -44l-3 -12v-97z" />
<glyph unicode="&#xe9;" horiz-adv-x="989" d="M72 258v369q0 72 39 125q12 18 43.5 49.5t54.5 48.5q64 45 149 45h189q85 0 149 -45q24 -18 55.5 -49t43.5 -49q36 -48 36 -125v-283h-555v-84l3 -10q14 -23 39 -44.5t40 -21.5h199q13 0 38 19.5t38 34.5l6 8l190 -58q-14 -34 -58 -82.5t-73 -68.5q-68 -47 -147 -47h-193 q-88 0 -149 43q-23 17 -54.5 48.5t-43.5 49.5q-39 53 -39 127zM276 526h351v97q0 10 -2 12q-9 15 -29 34t-39 29q-4 2 -12 2h-187q-15 0 -40 -21t-39 -44l-3 -12v-97zM279 1055l188 243h242l-242 -299z" />
<glyph unicode="&#xea;" horiz-adv-x="999" d="M72 258v369q0 72 39 125q12 18 43.5 49.5t54.5 48.5q64 45 149 45h189q85 0 149 -45q24 -18 55.5 -49t43.5 -49q36 -48 36 -125v-283h-555v-84l3 -10q14 -23 39 -44.5t40 -21.5h199q13 0 38 19.5t38 34.5l6 8l190 -58q-14 -34 -58 -82.5t-73 -68.5q-68 -47 -147 -47h-193 q-88 0 -149 43q-23 17 -54.5 48.5t-43.5 49.5q-39 53 -39 127zM178 1010l201 268h192l201 -268h-219l-78 106l-78 -106h-219zM276 526h351v97q0 10 -2 12q-9 15 -29 34t-39 29q-4 2 -12 2h-187q-15 0 -40 -21t-39 -44l-3 -12v-97z" />
<glyph unicode="&#xeb;" horiz-adv-x="985" d="M68 258v369q0 73 38 125q12 18 44 49.5t55 48.5q64 45 149 45h189q85 0 149 -45q24 -18 55.5 -49t43.5 -49q36 -48 36 -125v-283h-555v-84l2 -10q14 -23 39.5 -44.5t40.5 -21.5h199q13 0 38 19.5t38 34.5l6 8l190 -58q-14 -34 -58 -82.5t-73 -68.5q-68 -47 -147 -47h-193 q-88 0 -149 43q-23 17 -55 48.5t-44 49.5q-38 52 -38 127zM184 1016v211h199v-211h-199zM272 526h351v97q0 10 -2 12q-9 15 -29 34t-39 29q-4 2 -12 2h-187q-15 0 -41 -21t-39 -44l-2 -12v-97zM514 1016v211h199v-211h-199z" />
<glyph unicode="&#xec;" horiz-adv-x="452" d="M-147 1298h241l189 -243l-189 -56zM90 -2v883h205v-883h-205z" />
<glyph unicode="&#xed;" horiz-adv-x="452" d="M90 -2v883h205v-883h-205zM100 1055l189 243h241l-241 -299z" />
<glyph unicode="&#xee;" horiz-adv-x="452" d="M-109 1010l201 268h193l200 -268h-219l-78 106l-77 -106h-220zM90 -2v883h205v-883h-205z" />
<glyph unicode="&#xef;" horiz-adv-x="452" d="M-72 1016v211h199v-211h-199zM90 -2v883h205v-883h-205zM258 1016v211h199v-211h-199z" />
<glyph unicode="&#xf0;" horiz-adv-x="985" d="M72 264v350q0 72 37 127q14 20 51 58t59 53q61 43 143 43h136q40 0 125 -68v33q0 14 -10 34t-33 32l-121 65l-94 -39l-70 125l-119 58l90 165l211 -106l191 88l82 -160l-72 -37q83 -47 116 -91.5t33 -123.5v-608q0 -70 -36 -123q-13 -19 -50 -53.5t-61 -50.5 q-61 -45 -141 -45h-177q-88 0 -143 41q-22 15 -59.5 51.5t-50.5 56.5q-37 55 -37 125zM276 279q0 -21 3 -27q14 -24 39 -46t38 -22h187q15 0 40.5 23t39.5 47q2 2 2 29v323q-8 16 -31.5 38t-42.5 36l-19 14q-8 6 -32 6h-146q-13 0 -37 -22t-38 -47q-3 -7 -3 -13v-339z" />
<glyph unicode="&#xf1;" horiz-adv-x="1013" d="M68 885h200l11 -47q78 57 129 57h151q86 0 150 -45q24 -18 55 -49t43 -49q37 -50 37 -125v-627h-205v623q0 8 -2 12q-18 35 -64 63q-2 2 -16 2h-143q-43 0 -121 -84v-616h-205v702zM111 1198l174 43q13 -30 33.5 -43t37.5 -8l140 43q81 26 161 -18.5t121 -149.5l-164 -47 q-12 30 -39.5 46t-44.5 11l-133 -43q-79 -26 -162 18.5t-124 147.5z" />
<glyph unicode="&#xf2;" horiz-adv-x="991" d="M72 258v369q0 79 34 125q11 18 43.5 48.5t57.5 49.5q64 45 147 45h193q85 0 149 -45q24 -18 55.5 -49t43.5 -49q34 -46 34 -125v-369q0 -79 -34 -125q-12 -19 -43.5 -51t-55.5 -49q-61 -43 -149 -43h-193q-86 0 -147 43q-24 18 -56.5 50t-44.5 50q-34 46 -34 125z M188 1298h242l188 -243l-188 -56zM276 248q0 -11 22.5 -30t45.5 -32q4 -2 12 -2h189q4 0 12 4q18 10 42.5 29.5t25.5 30.5v373q0 6 -2 12q-9 16 -29.5 35.5t-38.5 29.5q-4 2 -10 2h-189q-6 0 -10 -2q-45 -25 -67 -65l-3 -12v-373z" />
<glyph unicode="&#xf3;" horiz-adv-x="991" d="M72 258v369q0 79 34 125q11 18 43.5 48.5t57.5 49.5q64 45 147 45h193q85 0 149 -45q24 -18 55.5 -49t43.5 -49q34 -46 34 -125v-369q0 -79 -34 -125q-12 -19 -43.5 -51t-55.5 -49q-61 -43 -149 -43h-193q-86 0 -147 43q-24 18 -56.5 50t-44.5 50q-34 46 -34 125z M272 1055l189 243h241l-241 -299zM276 248q0 -11 22.5 -30t45.5 -32q4 -2 12 -2h189q4 0 12 4q18 10 42.5 29.5t25.5 30.5v373q0 6 -2 12q-9 16 -29.5 35.5t-38.5 29.5q-4 2 -10 2h-189q-6 0 -10 -2q-45 -25 -67 -65l-3 -12v-373z" />
<glyph unicode="&#xf4;" horiz-adv-x="991" d="M72 258v369q0 79 34 125q11 18 43.5 48.5t57.5 49.5q64 45 147 45h193q85 0 149 -45q24 -18 55.5 -49t43.5 -49q34 -46 34 -125v-369q0 -79 -34 -125q-12 -19 -43.5 -51t-55.5 -49q-61 -43 -149 -43h-193q-86 0 -147 43q-24 18 -56.5 50t-44.5 50q-34 46 -34 125z M158 1010l200 268h193l201 -268h-220l-77 106l-78 -106h-219zM276 248q0 -11 22.5 -30t45.5 -32q4 -2 12 -2h189q4 0 12 4q18 10 42.5 29.5t25.5 30.5v373q0 6 -2 12q-9 16 -29.5 35.5t-38.5 29.5q-4 2 -10 2h-189q-6 0 -10 -2q-45 -25 -67 -65l-3 -12v-373z" />
<glyph unicode="&#xf5;" horiz-adv-x="991" d="M72 258v369q0 79 34 125q11 18 43.5 48.5t57.5 49.5q64 45 147 45h193q85 0 149 -45q24 -18 55.5 -49t43.5 -49q34 -46 34 -125v-369q0 -79 -34 -125q-12 -19 -43.5 -51t-55.5 -49q-61 -43 -149 -43h-193q-86 0 -147 43q-24 18 -56.5 50t-44.5 50q-34 46 -34 125z M113 1198l174 43q13 -30 33.5 -43t37.5 -8l140 43q81 26 161 -18.5t121 -149.5l-164 -47q-12 30 -39.5 46t-44.5 11l-133 -43q-79 -26 -162 18.5t-124 147.5zM276 248q0 -11 22.5 -30t45.5 -32q4 -2 12 -2h189q4 0 12 4q18 10 42.5 29.5t25.5 30.5v373q0 6 -2 12 q-9 16 -29.5 35.5t-38.5 29.5q-4 2 -10 2h-189q-6 0 -10 -2q-45 -25 -67 -65l-3 -12v-373z" />
<glyph unicode="&#xf6;" horiz-adv-x="991" d="M72 258v369q0 79 34 125q11 18 43.5 48.5t57.5 49.5q64 45 147 45h193q85 0 149 -45q24 -18 55.5 -49t43.5 -49q34 -46 34 -125v-369q0 -79 -34 -125q-12 -19 -43.5 -51t-55.5 -49q-61 -43 -149 -43h-193q-86 0 -147 43q-24 18 -56.5 50t-44.5 50q-34 46 -34 125z M184 1016v211h199v-211h-199zM276 248q0 -11 22.5 -30t45.5 -32q4 -2 12 -2h189q4 0 12 4q18 10 42.5 29.5t25.5 30.5v373q0 6 -2 12q-9 16 -29.5 35.5t-38.5 29.5q-4 2 -10 2h-189q-6 0 -10 -2q-45 -25 -67 -65l-3 -12v-373zM514 1016v211h199v-211h-199z" />
<glyph unicode="&#xf7;" horiz-adv-x="962" d="M72 401v195h727v-195h-727zM307 0v258h252v-258h-252zM307 748v258h252v-258h-252z" />
<glyph unicode="&#xf8;" horiz-adv-x="1001" d="M72 258v369q0 79 34 125q11 18 43.5 48.5t57.5 49.5q64 45 147 45h217q28 0 70 -10l33 61h139l-65 -119q55 -51 71 -75q35 -47 35 -125v-369q0 -78 -35 -125q-12 -19 -43.5 -51t-54.5 -49q-61 -43 -150 -43h-217q-31 0 -73 10l-39 -72h-133l69 127q-47 41 -72 78 q-34 46 -34 125zM276 248q0 -5 5 -10l256 462h-181q-6 0 -10 -2q-45 -25 -67 -65l-3 -12v-373zM385 184h184q5 0 13 4q18 10 42 29.5t25 30.5v373l-2 12l-6 8z" />
<glyph unicode="&#xf9;" horiz-adv-x="999" d="M63 260v625h205v-621q0 -10 2 -14q16 -30 68 -62q4 -2 12 -2h146q14 0 56 29.5t64 52.5v617h205v-703l19 -182h-201l-8 51q-81 -59 -129 -59h-154q-88 0 -149 43q-24 17 -55.5 49t-43.5 51q-37 50 -37 125zM203 1298h241l189 -243l-189 -56z" />
<glyph unicode="&#xfa;" horiz-adv-x="999" d="M63 260v625h205v-621q0 -10 2 -14q16 -30 68 -62q4 -2 12 -2h146q14 0 56 29.5t64 52.5v617h205v-703l19 -182h-201l-8 51q-81 -59 -129 -59h-154q-88 0 -149 43q-24 17 -55.5 49t-43.5 51q-37 50 -37 125zM262 1055l189 243h241l-241 -299z" />
<glyph unicode="&#xfb;" horiz-adv-x="999" d="M63 260v625h205v-621q0 -10 2 -14q16 -30 68 -62q4 -2 12 -2h146q14 0 56 29.5t64 52.5v617h205v-703l19 -182h-201l-8 51q-81 -59 -129 -59h-154q-88 0 -149 43q-24 17 -55.5 49t-43.5 51q-37 50 -37 125zM143 1010l201 268h193l200 -268h-219l-78 106l-78 -106h-219z " />
<glyph unicode="&#xfc;" horiz-adv-x="999" d="M63 260v625h205v-621q0 -10 2 -14q16 -30 68 -62q4 -2 12 -2h146q14 0 56 29.5t64 52.5v617h205v-703l19 -182h-201l-8 51q-81 -59 -129 -59h-154q-88 0 -149 43q-24 17 -55.5 49t-43.5 51q-37 50 -37 125zM184 1016v211h199v-211h-199zM514 1016v211h199v-211h-199z" />
<glyph unicode="&#xfd;" horiz-adv-x="880" d="M-33 885h230l206 -600l209 600h217l-434 -1217h-207l123 332h-18zM231 1055l189 243h242l-242 -299z" />
<glyph unicode="&#xfe;" horiz-adv-x="1005" d="M86 -334v1563h205v-385q66 51 121 51h149q87 0 148 -45q23 -17 54.5 -49t43.5 -51q37 -53 37 -127v-363q0 -76 -37 -127q-14 -20 -44.5 -52t-53.5 -48q-61 -43 -148 -43h-149q-55 0 -121 47v-371h-205zM291 274q22 -26 65.5 -58t61.5 -32h141q8 0 12 2q42 26 66 68 q2 4 2 10v354l-2 13q-21 38 -66 65q-8 4 -12 4h-141q-16 0 -60.5 -33t-66.5 -59v-334z" />
<glyph unicode="&#xff;" horiz-adv-x="874" d="M8 885h230l206 -600l209 600h217l-434 -1217h-207l123 332h-18zM172 1016v211h199v-211h-199zM502 1016v211h198v-211h-198z" />
<glyph unicode="&#x152;" horiz-adv-x="1734" d="M92 291v641q0 68 33 117q22 30 70.5 80t78.5 67q61 37 127 37h291q42 0 96 -21v13h750v-205h-534v-309h495v-205h-495v-301h534v-205h-750v10q-52 -20 -96 -20h-291q-66 0 -127 37q-30 17 -78.5 67t-70.5 80q-33 49 -33 117zM307 293q0 -6 2 -8q18 -27 45 -53t45 -35 q4 -2 11 -2h274q6 0 10 2q18 9 45 35t45 53l2 8v633q0 8 -2 10q-18 27 -45 54t-45 36q-4 2 -10 2h-274q-9 0 -11 -2q-18 -9 -45 -36t-45 -54l-2 -10v-633z" />
<glyph unicode="&#x153;" horiz-adv-x="1601" d="M72 258v369q0 79 34 125q11 18 43.5 48.5t57.5 49.5q64 45 147 45h193q85 0 149 -45q4 -3 15.5 -12.5t17.5 -16.5q7 8 33 29q64 45 149 45h189q85 0 149 -45q24 -18 55.5 -49t43.5 -49q36 -48 36 -125v-289h-555v-80l2 -8q14 -24 39.5 -47t40.5 -23h199q13 0 37.5 20.5 t38.5 37.5q6 6 6 8l190 -58q-14 -34 -58 -82.5t-73 -68.5q-68 -47 -147 -47h-193q-88 0 -149 43q-18 10 -33 26q-15 -12 -33 -26q-61 -43 -149 -43h-193q-86 0 -147 43q-24 18 -56.5 50t-44.5 50q-34 46 -34 125zM274 248q0 -11 24 -31t46 -33q4 -2 12 -2h189q4 0 12 4 q17 10 41 29.5t27 30.5v12v367q0 1 -1 3.5t-1 4.5q-9 16 -29.5 35.5t-38.5 29.5q-4 2 -10 2h-189q-6 0 -10 -2q-49 -27 -70 -65l-2 -12v-373zM829 530h351v93q0 10 -2 12q-9 15 -29 34t-39 29q-4 2 -12 2h-187q-15 0 -41 -21t-39 -44q-2 -2 -2 -6v-2v-97zM1190 246q2 2 2 0 h-2z" />
<glyph unicode="&#x178;" horiz-adv-x="1064" d="M-35 1225h238l272 -465l273 465h239l-405 -690v-535h-215v535zM211 1335v211h199v-211h-199zM541 1335v211h198v-211h-198z" />
<glyph unicode="&#x2c6;" horiz-adv-x="868" d="M135 1010l201 268h192l201 -268h-219l-78 106l-78 -106h-219z" />
<glyph unicode="&#x2dc;" horiz-adv-x="946" d="M100 1198l174 43q13 -30 34 -43t38 -8l139 43q81 26 161.5 -18.5t121.5 -149.5l-164 -47q-12 30 -39.5 46t-44.5 11l-133 -43q-79 -26 -162.5 18.5t-124.5 147.5z" />
<glyph unicode="&#x2000;" horiz-adv-x="863" />
<glyph unicode="&#x2001;" horiz-adv-x="1726" />
<glyph unicode="&#x2002;" horiz-adv-x="863" />
<glyph unicode="&#x2003;" horiz-adv-x="1726" />
<glyph unicode="&#x2004;" horiz-adv-x="575" />
<glyph unicode="&#x2005;" horiz-adv-x="431" />
<glyph unicode="&#x2006;" horiz-adv-x="287" />
<glyph unicode="&#x2007;" horiz-adv-x="287" />
<glyph unicode="&#x2008;" horiz-adv-x="215" />
<glyph unicode="&#x2009;" horiz-adv-x="345" />
<glyph unicode="&#x200a;" horiz-adv-x="95" />
<glyph unicode="&#x2010;" horiz-adv-x="653" d="M51 401v193h455v-193h-455z" />
<glyph unicode="&#x2011;" horiz-adv-x="653" d="M51 401v193h455v-193h-455z" />
<glyph unicode="&#x2012;" horiz-adv-x="653" d="M51 401v193h455v-193h-455z" />
<glyph unicode="&#x2013;" horiz-adv-x="952" d="M72 401v193h727v-193h-727z" />
<glyph unicode="&#x2014;" horiz-adv-x="1110" d="M72 401v191h905v-191h-905z" />
<glyph unicode="&#x2018;" horiz-adv-x="454" d="M-27 922l183 389l198 -62l-151 -327h-230z" />
<glyph unicode="&#x2019;" horiz-adv-x="454" d="M-37 983l152 328h229l-182 -389z" />
<glyph unicode="&#x201a;" horiz-adv-x="409" d="M-37 -174l182 389l199 -61l-151 -328h-230z" />
<glyph unicode="&#x201c;" horiz-adv-x="790" d="M-27 971l152 327h229l-182 -389zM352 971l152 327h229l-182 -389z" />
<glyph unicode="&#x201d;" horiz-adv-x="778" d="M-37 922l182 389l199 -62l-151 -327h-230zM342 922l182 389l199 -62l-152 -327h-229z" />
<glyph unicode="&#x201e;" horiz-adv-x="788" d="M-37 -174l182 389l199 -61l-151 -328h-230zM342 -174l182 389l199 -61l-152 -328h-229z" />
<glyph unicode="&#x2022;" horiz-adv-x="907" d="M133 489v33q0 67 37.5 115t103.5 92q49 33 119 33h51q70 0 119 -33q65 -43 102 -91.5t37 -115.5v-33q0 -73 -45 -127q-50 -54 -94 -81q-50 -33 -119 -33h-51q-69 0 -119 33q-19 12 -51.5 38.5t-48.5 45.5q-41 49 -41 124z" />
<glyph unicode="&#x2026;" horiz-adv-x="1394" d="M186 0v258h252v-258h-252zM557 0v258h252v-258h-252zM928 0v258h252v-258h-252z" />
<glyph unicode="&#x202f;" horiz-adv-x="345" />
<glyph unicode="&#x2039;" horiz-adv-x="770" d="M76 498l330 331l223 -65l-277 -266l281 -273l-227 -59z" />
<glyph unicode="&#x203a;" horiz-adv-x="747" d="M76 225l280 273l-276 266l223 65l330 -331l-330 -332z" />
<glyph unicode="&#x205f;" horiz-adv-x="431" />
<glyph unicode="&#x20ac;" horiz-adv-x="1183" d="M55 381v184h68v74h-68v186h68v109q0 66 33 115q22 30 70.5 80t78.5 67q68 37 127 37h256q131 0 260 -170q17 -25 43 -72l-209 -59q-61 76 -92 94q-2 2 -8 2h-242l-8 -2q-21 -11 -49 -38.5t-43 -51.5q-2 -4 -2 -23v-88h440v-186h-440v-74h440v-184h-440v-90 q0 -17 33.5 -48.5t60.5 -45.5q2 -2 14 -2h234q6 0 10 2q19 9 42 33t36 44l14 19l209 -55q-19 -43 -43 -78q-125 -170 -260 -170h-256q-66 0 -127 37q-31 18 -80 66.5t-69 78.5q-33 49 -33 117v92h-68z" />
<glyph unicode="&#x2122;" horiz-adv-x="1286" d="M90 1049v176h649l78 -148l86 148h209v-604h-186v272l-49 -86h-123l-35 67v-253h-189v428h-102v-428h-188v428h-150z" />
<glyph unicode="&#x25fc;" horiz-adv-x="880" d="M0 0v881h881v-881h-881z" />
<glyph unicode="&#xfb01;" horiz-adv-x="1138" d="M14 690v195h138v78q0 79 36 127q13 19 44.5 50.5t54.5 47.5q64 45 149 45h193v-195h-191q-16 0 -18 -2q-18 -10 -40.5 -29.5t-23.5 -31.5v-90h224v-195h-224v-690h-204v690h-138zM778 1010v219h219v-219h-219zM786 0v885h205v-885h-205z" />
<glyph unicode="&#xfb02;" horiz-adv-x="1167" d="M14 690v195h138v78q0 79 36 127q13 19 44.5 50.5t54.5 47.5q64 45 149 45h193v-195h-191q-16 0 -18 -2q-18 -10 -40.5 -29.5t-23.5 -31.5v-90h224v-195h-224v-690h-204v690h-138zM778 152v1073h205v-1051l23 -174h-207z" />
</font>
</defs>
</svg>
