<?xml version="1.0" standalone="no"?>
<!DOCTYPE svg PUBLIC "-//W3C//DTD SVG 1.1//EN" "http://www.w3.org/Graphics/SVG/1.1/DTD/svg11.dtd" >
<svg xmlns="http://www.w3.org/2000/svg" xmlns:xlink="http://www.w3.org/1999/xlink" version="1.1">
<metadata></metadata>
<defs>
<font id="blender_proheavy" horiz-adv-x="1056" >
<font-face units-per-em="2048" ascent="1638" descent="-410" />
<missing-glyph horiz-adv-x="491" />
<glyph horiz-adv-x="0" />
<glyph horiz-adv-x="682" />
<glyph unicode="&#xd;" />
<glyph unicode=" "  horiz-adv-x="491" />
<glyph unicode="&#x09;" horiz-adv-x="491" />
<glyph unicode="&#xa0;" horiz-adv-x="491" />
<glyph unicode="!" horiz-adv-x="622" d="M137 0v254h258v-254h-258zM141 342v889h248v-889h-248z" />
<glyph unicode="&#x22;" horiz-adv-x="835" d="M98 864l21 187v272h241v-301l-20 -158h-242zM514 864l21 187v272h243v-301l-20 -158h-244z" />
<glyph unicode="#" horiz-adv-x="1099" d="M20 334l41 229h166q2 10 6.5 34t6.5 34h-166l41 231h166q5 30 17 91.5t17 90.5h242l-35 -182h72q5 29 17.5 90.5t17.5 91.5h239l-32 -182h165l-43 -231h-163q-2 -12 -7.5 -34.5t-7.5 -33.5h166l-41 -229h-166q-6 -31 -18.5 -95.5t-18.5 -95.5h-241l37 191h-70 q-6 -31 -18.5 -96t-18.5 -95h-239l32 191h-164zM459 555h82q2 17 7 49.5t7 48.5h-78q-3 -16 -9 -49t-9 -49z" />
<glyph unicode="$" horiz-adv-x="1202" d="M43 322l236 75q11 -28 14 -35q45 -92 104 -131h303q14 7 33 25.5t31 34t12 16.5v111q0 4 -1.5 7t-2.5 4l-2 1q-74 20 -249.5 67.5t-268.5 71.5q-82 22 -126 89.5t-44 148.5v113q0 79 33 129q21 29 70.5 78t82.5 69q72 39 133 39h27v217h240v-217h18q135 0 268 -172 q38 -48 80 -158l-239 -67q-11 22 -15 28q-49 87 -102 129h-270q-14 -7 -33 -24.5t-31 -31.5t-12 -15v-109q0 -4 1.5 -7t2.5 -4l2 -1l520 -141q81 -22 125.5 -90t44.5 -148v-117q0 -74 -35 -127q-24 -32 -72 -81t-79 -68q-72 -39 -135 -39h-39v-232h-240v232h-37 q-138 0 -270 174q-39 49 -78 156z" />
<glyph unicode="%" horiz-adv-x="1753" d="M63 741v275q0 66 29 104q38 48 82 78q50 37 117 37h119q65 0 118 -37q44 -32 80 -78q29 -38 29 -104v-275q0 -66 -29 -104q-36 -46 -80 -78q-53 -37 -118 -37h-119q-67 0 -117 37q-44 30 -82 78q-29 38 -29 104zM262 780q0 -4 2 -8q25 -30 41 -39q2 -2 10 -2h68q8 0 10 2 q32 27 39 37l2 10v195q0 8 -2 12q-10 13 -39 37q-2 2 -10 2h-68q-8 0 -10 -2q-21 -15 -41 -39l-2 -10v-195zM371 0l676 1229h253l-671 -1229h-258zM1036 205v274q0 67 29 105q38 48 82 78q49 36 117 36h118q67 0 119 -36q44 -32 80 -78q29 -38 29 -105v-274q0 -67 -29 -105 q-11 -15 -36.5 -39.5t-43.5 -37.5q-53 -37 -119 -37h-118q-67 0 -117 37q-19 13 -44.5 37.5t-37.5 39.5q-29 38 -29 105zM1235 244q0 -4 2 -8q25 -30 41 -39q2 -2 10 -2h68q8 0 10 2q34 28 39 36l2 11v194q0 9 -2 13q-7 9 -39 36q-2 2 -10 2h-68q-8 0 -10 -2 q-23 -16 -41 -38l-2 -11v-194z" />
<glyph unicode="&#x26;" horiz-adv-x="1200" d="M72 283v157q0 95 73 172q-35 39 -54 77.5t-19 94.5v156q0 74 41 135q15 23 50 58t58 51q75 53 154 53h182q62 0 119 -31t90 -66.5t59 -76.5q36 -58 47 -88l-227 -64q-8 17 -17.5 30t-17 21t-17.5 14.5t-14.5 9t-15 6.5t-12.5 5h-176q-2 0 -11.5 -8.5t-22 -22.5t-19.5 -26 v-158q10 -20 28 -38.5t25 -18.5h223v-231h-223q-2 0 -11.5 -8t-22 -21.5t-19.5 -24.5v-157q7 -11 19.5 -24t22 -20.5t11.5 -7.5h309q8 0 28 16t29 34v335h306v-229h-56v-104q0 -72 -41 -133q-16 -24 -52 -61.5t-58 -51.5q-30 -21 -73.5 -34t-82.5 -13h-309q-88 0 -154 47 q-24 18 -59.5 55t-48.5 58q-41 56 -41 133z" />
<glyph unicode="'" horiz-adv-x="507" d="M96 864l21 187v272h241v-301l-20 -158h-242z" />
<glyph unicode="(" horiz-adv-x="727" d="M53 303v617q0 72 35 127q26 37 80 88l227 211l164 -170l-227 -215q-10 -9 -19.5 -19.5t-13.5 -16.5t-4 -7v-613q0 -1 4 -7t13.5 -16.5t19.5 -19.5l227 -215l-164 -170l-227 211q-54 51 -80 88q-35 55 -35 127z" />
<glyph unicode=")" horiz-adv-x="733" d="M66 47l227 215q10 9 19.5 19.5t13.5 16.5t4 7v613q0 1 -4 7t-13.5 16.5t-19.5 19.5l-227 215l163 170l228 -211q54 -51 80 -88q34 -53 34 -127v-617q0 -74 -34 -127q-26 -37 -80 -88l-228 -211z" />
<glyph unicode="*" horiz-adv-x="958" d="M82 952l74 226l166 -58l-5 176h236l-4 -176l168 60l74 -226l-168 -53l106 -139l-190 -139l-103 143l-100 -143l-191 139l105 139z" />
<glyph unicode="+" horiz-adv-x="1077" d="M90 393v234h283v280h239v-280h283v-234h-283v-276h-239v276h-283z" />
<glyph unicode="," horiz-adv-x="638" d="M16 -170l201 428l236 -72l-164 -356h-273z" />
<glyph unicode="-" horiz-adv-x="782" d="M76 391v232h530v-232h-530z" />
<glyph unicode="." horiz-adv-x="579" d="M96 0v291h289v-291h-289z" />
<glyph unicode="/" horiz-adv-x="894" d="M-68 0l674 1229h268l-671 -1229h-271z" />
<glyph unicode="0" d="M41 305v617q0 78 35 129q24 31 71.5 80t77.5 67q68 39 135 39h242q65 0 133 -39h-2q33 -20 80.5 -68t71.5 -79q35 -51 35 -129v-617q0 -76 -35 -127q-22 -31 -70.5 -80t-81.5 -69h2q-68 -39 -133 -39h-242q-67 0 -135 39q-31 18 -79 68t-70 81q-35 51 -35 127zM291 305 q14 -22 37 -45t37 -31h231q13 8 35.5 30.5t38.5 45.5v617q-10 19 -33 42t-39 33h-231q-45 -34 -76 -77v-615z" />
<glyph unicode="1" d="M201 985v244h473v-1229h-252v985h-221z" />
<glyph unicode="2" d="M51 973q22 54 51 94q126 170 271 170h235q81 0 150 -49q21 -14 56 -50t56 -63q37 -48 37 -133v-129q0 -80 -44.5 -141t-112.5 -94q-69 -34 -207 -101.5t-207 -101.5q-17 -10 -18 -15q-1 -2 -1 -4v-116h574v-240h-823v362q0 76 44.5 137t114.5 95q68 34 209 102.5 t209 102.5q12 6 12 20v127q-9 18 -26 34.5t-23 16.5h-231q-22 -11 -49.5 -35.5t-36.5 -48.5z" />
<glyph unicode="3" d="M51 256l244 66q28 -65 82 -93h229q5 0 23 17t30 37v168q-10 20 -28 36.5t-25 16.5h-276v233h278q5 0 22.5 17t28.5 37v151q-12 20 -30 37.5t-23 17.5h-229q-24 -11 -50 -35.5t-36 -48.5q0 -1 -60 14t-120 31l-60 15q16 47 51 94q131 170 271 170h235q81 0 150 -49 q21 -14 56 -50t56 -63q39 -50 39 -133v-154q0 -88 -71 -167q71 -83 71 -172v-162q0 -79 -39 -135q-14 -22 -51 -60.5t-61 -54.5q-66 -47 -150 -47h-235q-82 0 -151.5 51.5t-119.5 120.5q-30 42 -51 94z" />
<glyph unicode="4" d="M0 238v190l514 801h268v-752h142v-239h-142v-238h-252v238h-530zM295 477h235v365q-25 -38 -107.5 -168t-127.5 -197z" />
<glyph unicode="5" d="M45 256l244 66q25 -58 80 -91h235q31 20 53 54v207q-13 21 -59 57h-506v680h758v-242h-506v-199h258q90 0 158 -49q21 -15 56 -50t52 -58q39 -58 39 -135v-209q0 -74 -39 -135q-15 -23 -51 -61.5t-57 -53.5q-65 -47 -158 -47h-237q-146 0 -273 172q-27 37 -47 94z" />
<glyph unicode="6" d="M41 283v657q0 79 39 135q14 21 51.5 59.5t61.5 55.5q66 47 149 47h236q83 0 154.5 -52.5t115.5 -119.5q35 -54 51 -94l-242 -66q-16 36 -39.5 60t-46.5 32h-227q-5 0 -23 -16t-30 -35v-176q2 1 6 4t6 4q55 31 80 31h219q88 0 150 -45q23 -16 61 -54t51 -59 q39 -56 39 -133v-233q0 -75 -39 -133q-12 -20 -48.5 -55.5t-63.5 -57.5q-69 -49 -150 -49h-260q-80 0 -149 49q-25 19 -62.5 55.5t-50.5 57.5q-39 53 -39 131zM291 283q9 -18 28 -36t25 -18h258q5 0 22.5 16t28.5 34v237q-10 19 -29 37t-26 18h-229q-17 0 -25 -4 q-38 -32 -53 -57v-227z" />
<glyph unicode="7" d="M78 989v240h844v-189l-508 -1040h-285l498 989h-549z" />
<glyph unicode="8" d="M49 287v164q0 96 72 172q-34 38 -53 76t-19 92v151q0 75 39 133q12 20 48.5 55t64.5 58q69 49 149 49h258q81 0 150 -49q21 -14 56 -50t56 -63q39 -58 39 -133v-151q0 -89 -71 -168q71 -83 71 -172v-164q0 -79 -39 -135q-14 -22 -51 -60.5t-61 -54.5q-66 -47 -150 -47 h-258q-87 0 -149 47q-22 16 -60.5 54.5t-52.5 60.5q-39 61 -39 135zM299 283q11 -20 29 -37t24 -17h254q6 0 25 17t28 35v165q-11 21 -28 38.5t-23 17.5h-258q-6 0 -23 -17.5t-28 -38.5v-163zM299 788q9 -21 27 -37t24 -16h258q6 0 24 17t27 36v156q-12 20 -30 36.5 t-23 16.5h-254q-6 0 -25 -16.5t-28 -34.5v-158z" />
<glyph unicode="9" d="M41 709v233q0 75 39 133q12 20 48.5 55t64.5 58q69 49 149 49h260q81 0 150 -49q25 -18 62 -55t50 -58q39 -53 39 -131v-657q0 -79 -39 -135q-14 -22 -51 -60.5t-61 -54.5q-66 -47 -150 -47h-235q-83 0 -155.5 52.5t-115.5 119.5q-35 54 -51 94l242 66q34 -75 86 -93h227 q5 0 22.5 16.5t30.5 35.5v176q-2 -1 -6 -4t-6 -4q-55 -31 -80 -31h-219q-87 0 -149 45q-23 16 -61.5 53.5t-51.5 58.5q-39 56 -39 134zM291 711q10 -19 29 -37.5t26 -18.5h229q17 0 25 4q37 31 53 58v227q-9 18 -28 35.5t-25 17.5h-258q-6 0 -23 -15.5t-28 -33.5v-237z" />
<glyph unicode=":" horiz-adv-x="616" d="M104 0v297h293v-297h-293zM104 504v297h293v-297h-293z" />
<glyph unicode=";" horiz-adv-x="630" d="M6 -164l199 457l235 -76l-161 -381h-273zM113 502v301h293v-301h-293z" />
<glyph unicode="&#x3c;" horiz-adv-x="1472" d="M-20 612l638 619h343l-527 -498h879v-239h-875q86 -82 261.5 -248t261.5 -248h-343z" />
<glyph unicode="=" horiz-adv-x="1021" d="M61 270v224h789v-224h-789zM61 578v223h789v-223h-789z" />
<glyph unicode="&#x3e;" horiz-adv-x="1472" d="M51 494v239h877q-135 129 -527 498h342l641 -619l-641 -614h-340l521 496h-873z" />
<glyph unicode="?" horiz-adv-x="1026" d="M33 975q13 40 49 92q126 170 268 170h236q86 0 151 -49q21 -15 60.5 -53.5t56.5 -59.5q18 -24 29.5 -62t11.5 -73v-125q0 -140 -158 -217l-28 -12q-37 -15 -77 -44.5t-40 -45.5v-148h-248v156q0 168 231 270q3 1 8 4q56 25 61 38q1 3 1 5v103q-5 19 -18.5 37t-24 27 t-14.5 9h-230q-19 -9 -29.5 -14.5t-28 -24.5t-30.5 -47zM338 0v254h260v-254h-260z" />
<glyph unicode="@" horiz-adv-x="1392" d="M78 -18v944q0 74 35 125q24 32 72.5 81.5t80.5 67.5q65 37 133 37h488q65 0 133 -39q31 -16 77.5 -63t76.5 -84q34 -43 34 -125v-729q2 -29 9.5 -99.5t9.5 -97.5h-244l-4 25q-60 -35 -109 -35h-102q-41 0 -86 13t-72 34q-25 19 -55.5 50.5t-44.5 51.5q-41 61 -41 135v316 q0 80 41 135q11 19 43 51.5t57 48.5q72 45 158 45h102q50 0 93 -24v74q0 2 -2 4q-12 23 -40 50t-44 36h-467q-15 -8 -42.5 -35.5t-43.5 -52.5v-938l2 -2q13 -22 41 -48.5t43 -33.5l-144 -191q-31 17 -79.5 66t-73.5 82q-35 53 -35 125zM713 276q33 -47 55 -61h96 q14 0 48 18.5t51 38.5v318q-19 21 -52 39t-47 18h-96q-11 -6 -28 -24.5t-27 -36.5v-310z" />
<glyph unicode="A" horiz-adv-x="1187" d="M-23 0l426 1229h277l424 -1229h-266l-82 236h-428q-14 -38 -42.5 -118t-41.5 -118h-267zM403 475h277l-139 395q-23 -65 -69.5 -197.5t-68.5 -197.5z" />
<glyph unicode="B" horiz-adv-x="1132" d="M76 0v1229h598q86 0 155 -49q22 -16 58.5 -53.5t50.5 -57.5q37 -55 37 -137v-148q0 -97 -68 -172q68 -75 68 -172v-147q0 -80 -37 -133q-14 -21 -50 -58.5t-59 -54.5q-66 -47 -155 -47h-598zM326 240h346q6 0 24 16.5t29 36.5v149q-12 21 -31 39.5t-24 18.5h-344v-260z M326 731h346q5 0 24 17t29 34v150q-12 21 -30.5 39t-24.5 18h-344v-258z" />
<glyph unicode="C" horiz-adv-x="1136" d="M74 303v621q0 76 35 127q23 30 71 78.5t80 68.5q71 39 133 39h269q144 0 268 -172q41 -56 69 -131l-231 -66q-22 44 -45 72.5t-64 56.5h-256q-17 -12 -41.5 -37t-37.5 -45v-610q0 -2 9 -14t28.5 -30.5t41.5 -31.5h261q55 37 104 123l233 -57q-25 -71 -69 -131 q-30 -42 -64.5 -77.5t-91 -66t-114.5 -30.5h-269q-67 0 -135 39q-30 19 -77.5 66.5t-71.5 80.5q-35 55 -35 127z" />
<glyph unicode="D" horiz-adv-x="1155" d="M76 0v1229h596q77 0 135 -37q30 -19 74.5 -67.5t70.5 -82.5q35 -49 35 -127v-606q0 -74 -33 -125q-23 -32 -71 -79t-80 -66q-76 -39 -131 -39h-596zM326 240h336q50 27 75 77v588q-21 53 -75 84h-336v-749z" />
<glyph unicode="E" d="M76 0v1229h807v-240h-557v-252h538v-239h-538v-258h557v-240h-807z" />
<glyph unicode="F" horiz-adv-x="1036" d="M76 0v1229h807v-240h-557v-252h528v-239h-528v-498h-250z" />
<glyph unicode="G" horiz-adv-x="1214" d="M76 301v623q0 78 35 129q24 31 71.5 80t77.5 67q65 37 135 37h312q144 0 268 -172q41 -56 69 -131l-231 -66q-22 45 -45 73t-63 56h-299q-50 -33 -80 -79v-621q0 -8 26 -32.5t49 -35.5h299q23 10 50.5 36.5t27.5 37.5v184h-280v234h530v-461q0 -31 14 -117l25 -145h-248 l-8 37q-3 -1 -27 -17q-50 -28 -79 -28h-310q-67 0 -135 39q-31 20 -78.5 66.5t-70.5 78.5q-35 55 -35 127z" />
<glyph unicode="H" horiz-adv-x="1161" d="M76 0v1229h250v-494h409v494h250v-1229h-250v496h-409v-496h-250z" />
<glyph unicode="I" horiz-adv-x="522" d="M84 0v1229h252v-1229h-252z" />
<glyph unicode="J" horiz-adv-x="952" d="M-25 295l234 57q49 -86 104 -123h148q11 0 43.5 31t32.5 39v930h249v-928q0 -72 -38 -127q-19 -30 -67 -79t-79 -68q-72 -39 -135 -39h-78v2h-74q-58 0 -114.5 30.5t-91 66t-64.5 77.5q-46 63 -70 131z" />
<glyph unicode="K" horiz-adv-x="1077" d="M76 0v1229h250v-500h20q4 0 96 125t182 250l91 125h295l-453 -606l459 -623h-303l-367 508h-20v-508h-250z" />
<glyph unicode="L" horiz-adv-x="960" d="M76 0v1229h250v-987h544v-242h-794z" />
<glyph unicode="M" horiz-adv-x="1345" d="M76 0v1229h272l275 -557q37 77 128.5 267t141.5 290h270v-1229h-250v739q-41 -88 -119 -250.5t-94 -195.5h-163l-211 444v-737h-250z" />
<glyph unicode="N" horiz-adv-x="1153" d="M76 0v1229h256l393 -733v733h250v-1229h-252l-397 723v-723h-250z" />
<glyph unicode="O" horiz-adv-x="1189" d="M72 305v617q0 80 34 129q23 31 71.5 80t78.5 67q68 39 135 39h311q68 0 136 -39q56 -34 149 -147q35 -51 35 -129v-617q0 -76 -35 -127q-27 -35 -73 -83t-76 -66q-68 -39 -136 -39h-311q-67 0 -135 39q-31 19 -79.5 68.5t-70.5 80.5q-34 49 -34 127zM322 305 q42 -57 73 -76h301q39 29 76 76v617q-10 18 -34 41.5t-40 33.5h-301q-43 -32 -75 -77v-615z" />
<glyph unicode="P" horiz-adv-x="1093" d="M76 0v1229h598q39 0 81.5 -13t71.5 -34q22 -17 59 -55t52 -58q39 -53 39 -135v-174q0 -77 -39 -133q-13 -21 -50.5 -58t-60.5 -53q-64 -47 -153 -47h-348v-469h-250zM326 709h348q5 0 25 17.5t28 31.5v182q-8 13 -23.5 27.5t-29.5 21.5h-348v-280z" />
<glyph unicode="Q" horiz-adv-x="1202" d="M74 305v617q0 78 35 129q24 31 71.5 80t77.5 67q68 39 135 39h322q67 0 135 -39q56 -34 149 -147q35 -51 35 -129v-617q0 -76 -35 -127q-25 -33 -72 -81t-77 -68q-4 0 -6 -2q-24 -13 -49 -23q14 -31 39.5 -93.5t39.5 -92.5h-268l-71 172h-142q-67 0 -135 39 q-31 18 -79 68t-70 81q-35 51 -35 127zM324 307q14 -21 36.5 -43t38.5 -33h35q-1 2 -3 8.5t-3 8.5l231 78l39 -95h11q36 27 75 76v615q-10 18 -33.5 42t-39.5 33h-312q-43 -32 -75 -77v-613z" />
<glyph unicode="R" horiz-adv-x="1157" d="M76 0v1229h598q39 0 81.5 -13t71.5 -34q22 -17 59 -55t52 -58q39 -53 39 -135v-174q0 -77 -39 -133q-13 -21 -50.5 -58t-60.5 -53q-18 -14 -49 -29l266 -487h-278l-244 469h-196v-469h-250zM326 709h348q5 0 25 17.5t28 31.5v182q-8 13 -23.5 27.5t-29.5 21.5h-348v-280z " />
<glyph unicode="S" horiz-adv-x="1157" d="M41 295l231 72q61 -107 107 -138h311q14 7 32.5 24t30 31t11.5 15v121q0 4 -1.5 7t-2.5 4l-2 1q-74 20 -249.5 67.5t-268.5 71.5q-82 22 -126 89.5t-44 148.5v113q0 80 32 129q21 29 71 78t83 69q71 39 133 39h291q144 0 268 -172q43 -59 70 -131l-232 -66q-22 45 -45 73 t-63 56h-283q-15 -7 -34 -24.5t-30.5 -31.5t-11.5 -15v-109q0 -4 1.5 -7t3.5 -4l2 -1l520 -141q81 -22 125.5 -90t44.5 -148v-121q0 -71 -37 -127q-22 -31 -70.5 -80.5t-79.5 -68.5q-71 -39 -135 -39h-313q-58 0 -114.5 30.5t-91 66t-64.5 77.5q-46 63 -70 131z" />
<glyph unicode="T" horiz-adv-x="1046" d="M16 989v240h914v-240h-330v-989h-252v989h-332z" />
<glyph unicode="U" horiz-adv-x="1173" d="M76 305v924h250v-922q51 -63 75 -78h281q13 8 35.5 30.5t38.5 45.5v924h250v-924q0 -76 -35 -127q-23 -32 -70 -81.5t-78 -67.5q-72 -39 -135 -39h-293q-67 0 -135 39q-31 18 -79 68t-70 81q-35 51 -35 127z" />
<glyph unicode="V" horiz-adv-x="1142" d="M-23 1229h265l266 -879q18 56 46.5 147t88.5 283.5t97.5 320.5t33.5 128h264l-391 -1229h-276z" />
<glyph unicode="W" horiz-adv-x="1519" d="M-8 1229h258l162 -758q30 131 90.5 386.5t87.5 371.5h254l178 -758q20 96 75 357.5t85 400.5h266l-285 -1229h-268l-178 719q-29 -119 -88.5 -359.5t-87.5 -359.5h-269z" />
<glyph unicode="X" horiz-adv-x="1077" d="M-14 0l370 625l-356 604h279l217 -379l219 379h276l-358 -604l373 -625h-279l-231 399l-232 -399h-278z" />
<glyph unicode="Y" horiz-adv-x="1077" d="M-61 1229h282l256 -432l260 432h283l-418 -697v-532h-252v532z" />
<glyph unicode="Z" horiz-adv-x="1032" d="M68 0v182l526 807h-518v240h844v-185l-521 -804h521v-240h-852z" />
<glyph unicode="[" horiz-adv-x="692" d="M78 0v1229h436v-232h-188v-766h188v-231h-436z" />
<glyph unicode="\" horiz-adv-x="919" d="M-10 1229h278l674 -1229h-280z" />
<glyph unicode="]" horiz-adv-x="692" d="M74 0v231h186v766h-186v232h434v-1229h-434z" />
<glyph unicode="^" horiz-adv-x="757" d="M-20 575l223 654h239l232 -654h-221l-129 394l-127 -394h-217z" />
<glyph unicode="_" horiz-adv-x="985" d="M41 0v238h821v-238h-821z" />
<glyph unicode="`" horiz-adv-x="837" d="M174 1630h266l191 -278h-242z" />
<glyph unicode="a" horiz-adv-x="1167" d="M-43 0l426 1229h276l424 -1229h-266l-82 236h-428q-14 -38 -42.5 -118t-41.5 -118h-266zM383 475h276l-139 395q-23 -65 -68.5 -197.5t-68.5 -197.5z" />
<glyph unicode="b" horiz-adv-x="1112" d="M76 0v1229h577q87 0 156 -49q22 -16 58.5 -53.5t50.5 -57.5q36 -53 36 -137v-148q0 -98 -67 -172q67 -74 67 -172v-147q0 -81 -36 -133q-14 -21 -50 -58.5t-59 -54.5q-30 -21 -73.5 -34t-82.5 -13h-577zM326 240h325q6 0 24.5 17t29.5 36v149q-12 21 -31 39.5t-25 18.5 h-323v-260zM326 731h325q6 0 25.5 17t28.5 34v150q-12 21 -31 39t-25 18h-323v-258z" />
<glyph unicode="c" horiz-adv-x="1087" d="M76 303v615q0 75 35 126q13 20 66 72.5t79 71.5q69 49 154 49h233q142 0 268 -170q32 -45 50 -92l-240 -66q-34 65 -86 88h-223q-17 -12 -45.5 -40t-40.5 -48v-610q0 -3 11 -15.5t32 -29t41 -25.5h227q47 17 84 93l240 -66l2 -2q-14 -32 -52 -92q-43 -67 -114.5 -119.5 t-153.5 -52.5h-235q-93 0 -148 39q-30 19 -77.5 66.5t-71.5 80.5q-35 55 -35 127z" />
<glyph unicode="d" horiz-adv-x="1146" d="M76 0v1229h586q77 0 135 -37q30 -19 74.5 -67.5t70.5 -82.5q35 -49 35 -127v-606q0 -74 -33 -125q-23 -32 -71 -79t-80 -66q-76 -39 -131 -39h-586zM326 240h325q51 28 76 77v588q-21 52 -76 84h-325v-749z" />
<glyph unicode="e" horiz-adv-x="1036" d="M76 0v1229h786v-240h-536v-254h518v-239h-518v-256h536v-240h-786z" />
<glyph unicode="f" horiz-adv-x="1015" d="M76 0v1229h786v-240h-536v-254h508v-239h-508v-496h-250z" />
<glyph unicode="g" horiz-adv-x="1177" d="M78 301v625q0 78 35 129q77 101 133 135q74 49 151 49h287q142 0 268 -170q32 -44 52 -92l-242 -66q-34 65 -86 88h-270q-54 -40 -78 -75v-627q0 -3 9.5 -15t28 -28t37.5 -25h254q25 15 52.5 38.5t27.5 35.5v184h-186v234h436v-459q0 -36 10 -90l33 -172h-246l-10 53 q-68 -63 -104 -63h-273q-67 0 -135 39q-31 20 -78.5 66.5t-70.5 78.5q-35 55 -35 127z" />
<glyph unicode="h" horiz-adv-x="1148" d="M76 0v1229h250v-498h389v498h250v-1229h-250v492h-389v-492h-250z" />
<glyph unicode="i" horiz-adv-x="522" d="M84 0v1229h252v-1229h-252z" />
<glyph unicode="j" horiz-adv-x="925" d="M-20 256l239 66q30 -67 74 -93h143q2 0 14 8.5t30.5 26t29.5 35.5v930h250v-926q0 -72 -35 -127q-22 -31 -70 -79t-82 -68h2q-68 -39 -133 -39h-147q-147 0 -275 174q-15 21 -40 92z" />
<glyph unicode="k" horiz-adv-x="1077" d="M76 0v1229h250v-500h20q4 0 96 125t182 250l91 125h295l-453 -606l459 -623h-303l-367 508h-20v-508h-250z" />
<glyph unicode="l" horiz-adv-x="960" d="M76 0v1229h250v-989h524v-240h-774z" />
<glyph unicode="m" horiz-adv-x="1345" d="M76 0v1229h272l275 -557q37 77 128.5 267t141.5 290h270v-1229h-250v739q-41 -88 -119 -250.5t-94 -195.5h-163l-211 444v-737h-250z" />
<glyph unicode="n" horiz-adv-x="1153" d="M76 0v1229h256l393 -733v733h250v-1229h-252l-397 723v-723h-250z" />
<glyph unicode="o" horiz-adv-x="1161" d="M74 305v617q0 78 35 129q24 31 71.5 80t77.5 67q68 39 135 39h279q67 0 135 -39q53 -33 147 -147q37 -53 37 -129v-617q0 -74 -37 -127q-24 -33 -70.5 -81.5t-76.5 -67.5q-68 -39 -135 -39h-279q-67 0 -135 39q-31 18 -79 68t-70 81q-35 51 -35 127zM324 307 q42 -57 73 -76h269q35 22 73 76v615q-10 19 -32.5 42t-38.5 33h-269q-43 -32 -75 -77v-613z" />
<glyph unicode="p" horiz-adv-x="1073" d="M76 0v1229h577q39 0 82 -13t72 -34q22 -17 59 -55t52 -58q38 -52 38 -135v-174q0 -78 -38 -133q-13 -21 -50.5 -58t-60.5 -53q-64 -47 -154 -47h-327v-469h-250zM326 709h327q5 0 25.5 17.5t28.5 31.5v182q-20 32 -54 49h-327v-280z" />
<glyph unicode="q" horiz-adv-x="1181" d="M76 305v617q0 78 35 129q24 31 71.5 80t77.5 67q68 39 135 39h301q67 0 135 -39q28 -18 72.5 -64t75.5 -83q37 -53 37 -129v-617q0 -74 -37 -127q-22 -31 -70 -80t-78 -69q-2 0 -4 -2q-25 -12 -53 -23q14 -29 41.5 -92.5t40.5 -93.5h-268l-72 172h-121q-67 0 -135 39 q-31 18 -79 68t-70 81q-35 51 -35 127zM326 307q14 -21 36.5 -43t38.5 -33h15q-1 2 -3 8.5t-3 8.5l231 78l39 -95h10q13 8 35.5 30.5t38.5 45.5v615q-10 19 -33 42t-39 33h-291q-43 -32 -75 -77v-613z" />
<glyph unicode="r" horiz-adv-x="1122" d="M76 0v1229h577q39 0 82 -13t72 -34q22 -17 59 -55t52 -58q38 -52 38 -135v-174q0 -78 -38 -133q-13 -21 -50.5 -58t-60.5 -53q-28 -20 -47 -27l258 -489h-279l-233 469h-180v-469h-250zM326 709h327q5 0 25.5 17.5t28.5 31.5v182q-20 32 -54 49h-327v-280z" />
<glyph unicode="s" horiz-adv-x="1103" d="M31 254l243 65q25 -61 76 -92h303q13 7 29.5 24t26.5 30.5t10 15.5v123q0 4 -1.5 7t-3.5 4l-1 1q-72 20 -238 67.5t-254 71.5q-81 22 -125.5 90t-44.5 148v113q0 79 33 129q15 20 63.5 70.5t71.5 68.5q69 49 154 49h262q82 0 154.5 -52.5t113.5 -117.5q35 -61 49 -92 l-239 -66q-28 56 -86 88h-242q-18 -9 -39 -27t-33 -31t-12 -15v-109q0 -4 1.5 -7t3.5 -4l1 -1q93 -27 266 -76t228 -65q79 -24 123.5 -92t44.5 -146v-123q0 -79 -33 -129q-13 -21 -64 -73.5t-73 -67.5q-62 -45 -154 -45h-295q-81 0 -149.5 51.5t-118.5 120.5q-12 14 -51 94z " />
<glyph unicode="t" horiz-adv-x="1026" d="M16 989v240h893v-240h-319v-989h-252v989h-322z" />
<glyph unicode="u" horiz-adv-x="1138" d="M76 305v924h250v-922q51 -63 75 -78h261q35 22 73 76v924h250v-924q0 -76 -35 -127q-23 -32 -69.5 -81.5t-77.5 -67.5q-72 -39 -135 -39h-273q-67 0 -135 39q-31 18 -79 68t-70 81q-35 51 -35 127z" />
<glyph unicode="v" horiz-adv-x="1142" d="M-23 1229h265l266 -879q18 56 46.5 147t88.5 283.5t97.5 320.5t33.5 128h264l-391 -1229h-276z" />
<glyph unicode="w" horiz-adv-x="1519" d="M-8 1229h258l162 -758q30 131 90.5 386.5t87.5 371.5h254l178 -758q20 96 75 357.5t85 400.5h266l-285 -1229h-268l-178 719q-29 -119 -88.5 -359.5t-87.5 -359.5h-269z" />
<glyph unicode="x" horiz-adv-x="1077" d="M-14 0l370 625l-356 604h279l217 -379l219 379h276l-358 -604l373 -625h-279l-231 399l-232 -399h-278z" />
<glyph unicode="y" horiz-adv-x="1077" d="M-61 1229h282l256 -432l260 432h283l-418 -697v-532h-252v532z" />
<glyph unicode="z" horiz-adv-x="1032" d="M68 0v182l526 807h-518v240h844v-185l-521 -804h521v-240h-852z" />
<glyph unicode="{" horiz-adv-x="727" d="M57 299v627q0 80 35 129q23 31 71.5 80t78.5 67q65 37 135 37h174v-231h-168q-59 -41 -84 -80v-639q0 -13 29.5 -37.5t52.5 -32.5h170v-231h-174q-59 0 -131 39q-32 19 -82.5 66.5t-73.5 78.5q-33 50 -33 127z" />
<glyph unicode="|" horiz-adv-x="423" d="M53 -184v1562h240v-1562h-240z" />
<glyph unicode="}" horiz-adv-x="722" d="M74 -12v231h174q22 10 53 36.5t31 33.5v643q0 10 -30 37t-54 39h-174v231h174q70 0 135 -37q30 -18 77 -65.5t75 -81.5q36 -52 36 -129v-627q0 -75 -34 -127q-21 -30 -71 -77t-85 -68q-71 -39 -133 -39h-174z" />
<glyph unicode="~" horiz-adv-x="964" d="M55 598l207 51q12 -28 31.5 -42.5t30.5 -12.5q24 4 90 26t86 27q91 21 177 -30.5t136 -174.5l-203 -51q-10 25 -32.5 42.5t-36.5 12.5q-22 -4 -87.5 -25.5t-82.5 -25.5q-93 -22 -179.5 28t-136.5 175z" />
<glyph unicode="&#xa1;" horiz-adv-x="626" d="M137 977v252h262v-252h-262zM147 0v887h246v-887h-246z" />
<glyph unicode="&#xa2;" horiz-adv-x="1087" d="M78 301v619q0 76 35 127q13 20 66 71.5t79 71.5q63 42 145 49v150h240l4 -150q78 -3 148.5 -55t117.5 -115q28 -35 50 -92l-240 -66q-15 29 -30.5 46.5t-25.5 23t-32 14.5h-221q-19 -13 -46.5 -38.5t-39.5 -45.5v-608q0 -11 29 -33t57 -37h225q51 19 84 86l240 -65l2 -2 q-15 -45 -52 -92q-44 -64 -116 -116.5t-154 -55.5v-166h-240v166q-89 4 -141 39q-30 19 -77.5 66.5t-71.5 80.5q-35 55 -35 127z" />
<glyph unicode="&#xa3;" horiz-adv-x="1218" d="M63 354v230h78v67h-78v232h78v45q0 78 35 127q21 29 69.5 78t80.5 69q71 39 133 39h307v-240h-297q-50 -30 -78 -71v-47h303v-232h-303v-67h303v-230h-303v-114h328q21 16 47 42.5t37 45.5l241 -72q-15 -41 -45 -86q-124 -170 -272 -170h-586v354h-78z" />
<glyph unicode="&#xa4;" horiz-adv-x="1136" d="M90 860l164 166l96 -94q38 10 74 10h162q38 0 73 -12l89 84l167 -170l-63 -62q37 -72 37 -133v-43q0 -81 -47 -149q-1 -1 -2 -3t-2 -3l65 -64l-164 -166l-104 101q-24 -3 -49 -3h-162q-25 0 -49 3l-107 -101l-170 168l68 66v2q-47 68 -47 149v43q0 78 41 142zM358 602 q0 -10 25 -28t41 -23h162q65 39 65 51v49q0 15 -67 56h-158q-9 -4 -38.5 -26t-29.5 -30v-49z" />
<glyph unicode="&#xa5;" horiz-adv-x="1046" d="M-45 1227h283l243 -416l246 416h283l-211 -357h51v-227h-188q-3 -5 -18 -28t-21 -35h227v-224h-244v-356h-252v356h-241v224h225q-4 6 -17.5 29t-19.5 34h-188v227h53q-40 69 -116.5 198t-94.5 159z" />
<glyph unicode="&#xa6;" horiz-adv-x="423" d="M92 -182v676h240v-676h-240zM92 702v676h240v-676h-240z" />
<glyph unicode="&#xa7;" horiz-adv-x="1060" d="M37 207l244 63q32 -68 81 -90h295q13 8 29.5 26.5t26.5 33t10 16.5v29q0 4 -1.5 7t-3.5 4l-1 1q-84 7 -247.5 23.5t-242.5 23.5q-81 21 -125.5 88.5t-44.5 147.5v30q0 76 33 129v-2q2 3 27 35q-60 69 -60 168v31q0 77 33 125q14 21 62.5 72t72.5 69q69 49 154 49h262 q82 0 154.5 -53t113.5 -119q27 -44 31 -51q12 -27 18 -39l-239 -63q-29 54 -86 86h-242q-18 -9 -39 -27.5t-33 -32.5t-12 -16v-23q0 -4 1.5 -7t3.5 -4l1 -1h-2q82 -8 248 -24.5t248 -24.5q79 -24 123.5 -92t44.5 -146v-35q0 -78 -33 -131l-24 -30q57 -73 57 -162v-35 q0 -79 -33 -129q-13 -22 -63.5 -73.5t-73.5 -67.5q-62 -45 -154 -45h-295q-81 0 -149.5 51.5t-118.5 120.5q-11 13 -39 67q-2 4 -6 13.5t-6 13.5zM307 588q0 -4 1.5 -7t3.5 -5l1 -1q58 -6 169 -16t153 -14h22q13 7 29.5 24t26.5 30.5t10 14.5v29l-6 12l-326 27 q-18 -9 -39 -26.5t-33 -30.5t-12 -15v-22z" />
<glyph unicode="&#xa8;" horiz-adv-x="686" d="M80 1364v250h235v-250h-235zM473 1364v250h240v-250h-240z" />
<glyph unicode="&#xa9;" horiz-adv-x="1953" d="M78 303v617q0 72 35 127q26 37 80 88l227 211l168 -170l-228 -215q-10 -9 -19 -19.5t-13 -16.5t-4 -7v-613q0 -1 4 -7t13 -16.5t19 -19.5l228 -215l-168 -170l-227 211q-54 51 -80 88q-35 55 -35 127zM637 469v285q0 50 25 90q14 19 43.5 48t44.5 38h-2q46 35 110 35h143 q57 0 104.5 -33.5t74.5 -75.5q20 -31 39 -96l-183 -39q-13 26 -28 41h-140q-18 -18 -20 -21v-260q0 -6 12 -18h150q7 7 24 41l183 -37q-17 -62 -37 -98q-24 -41 -73.5 -76t-105.5 -35h-145q-61 0 -100 27q-26 18 -58 48.5t-39 45.5v-2q-22 34 -22 92zM1276 47l227 215 q10 9 19.5 19.5t13.5 16.5t4 7v613q0 1 -4 7t-13.5 16.5t-19.5 19.5l-227 215l168 170l227 -211q54 -51 80 -88q35 -55 35 -127v-617q0 -72 -35 -127q-26 -37 -80 -88l-227 -211z" />
<glyph unicode="&#xaa;" horiz-adv-x="780" d="M63 741v275q0 66 29 104q38 48 82 78q50 37 117 37h346v-496l31 -217h-181l-14 72q-76 -72 -125 -72h-57q-67 0 -117 37q-44 30 -82 78q-29 38 -29 104zM262 768q0 -4 2 -8q25 -30 41 -39q2 -2 10 -2h47q9 0 11 2q10 6 31.5 26.5t27.5 30.5l2 10v252h-119q-8 0 -10 -2 q-21 -15 -41 -39l-2 -10v-221z" />
<glyph unicode="&#xab;" horiz-adv-x="1351" d="M45 524l352 353l269 -78l-279 -271l285 -276l-275 -72zM559 524l352 353l269 -78l-279 -271l285 -276l-275 -72z" />
<glyph unicode="&#xac;" horiz-adv-x="1222" d="M92 393v234h891v-510h-240v276h-651z" />
<glyph unicode="&#xad;" horiz-adv-x="782" d="M76 391v232h530v-232h-530z" />
<glyph unicode="&#xae;" horiz-adv-x="1953" d="M78 303v617q0 72 35 127q26 37 80 88l227 211l168 -170l-228 -215q-10 -9 -19 -19.5t-13 -16.5t-4 -7v-613q0 -1 4 -7t13 -16.5t19 -19.5l228 -215l-168 -170l-227 211q-54 51 -80 88q-35 55 -35 127zM659 238v725h297q85 0 142 -45q23 -17 56 -48.5t46 -50.5 q17 -26 22 -49t5 -63v-27q0 -29 -1 -44.5t-7 -38t-19 -40.5q-27 -34 -72 -68l134 -256h-226l-102 193h-68v-188h-207zM866 618h101q6 0 25.5 15.5t29.5 28.5v47q-17 24 -55 49h-101v-140zM1276 47l227 215q10 9 19.5 19.5t13.5 16.5t4 7v613q0 1 -4 7t-13.5 16.5t-19.5 19.5 l-227 215l168 170l227 -211q54 -51 80 -88q35 -55 35 -127v-617q0 -72 -35 -127q-26 -37 -80 -88l-227 -211z" />
<glyph unicode="&#xaf;" horiz-adv-x="696" d="M39 1399v219h465v-219h-465z" />
<glyph unicode="&#xb0;" horiz-adv-x="831" d="M145 1227q0 87 67 152t157 65q89 0 153 -64.5t64 -152.5q0 -92 -63.5 -155.5t-153.5 -63.5t-157 64t-67 155zM283 1227q0 -35 25.5 -60.5t60.5 -25.5q34 0 57 25.5t23 60.5q0 33 -23.5 57.5t-56.5 24.5q-35 0 -60.5 -24.5t-25.5 -57.5z" />
<glyph unicode="&#xb1;" horiz-adv-x="1077" d="M90 393v234h283v280h239v-280h283v-234h-283v-276h-239v276h-283zM94 0h803v-238h-803v238z" />
<glyph unicode="&#xb2;" />
<glyph unicode="&#xb3;" horiz-adv-x="1034" />
<glyph unicode="&#xb4;" horiz-adv-x="700" d="M258 1352l191 278h266l-215 -278h-242z" />
<glyph unicode="&#xb5;" horiz-adv-x="1153" d="M76 -184v1413h250v-922q51 -63 75 -78h261q35 22 73 76v924h250v-924q0 -76 -35 -127q-23 -32 -69.5 -81.5t-77.5 -67.5q-72 -39 -135 -39h-252q-34 0 -101 55v-229h-239z" />
<glyph unicode="&#xb6;" horiz-adv-x="1083" d="M61 780v154q0 74 39 135q13 19 50 55.5t63 57.5q66 47 154 47h596v-1229h-246v489h-33v-489h-244v489h-75q-89 0 -152 48q-24 16 -62 53t-51 57q-39 56 -39 133zM311 786q7 -11 20 -24t23.5 -21t12.5 -8h73v256h-73q-37 -21 -56 -49v-154zM684 733h33v256h-33v-256z" />
<glyph unicode="&#xb7;" horiz-adv-x="618" d="M106 391v246h289v-246h-289z" />
<glyph unicode="&#xb8;" horiz-adv-x="768" d="M256 -408l186 328l213 -61l-145 -267h-254z" />
<glyph unicode="&#xb9;" horiz-adv-x="653" />
<glyph unicode="&#xba;" horiz-adv-x="780" d="M63 741v275q0 66 29 104q38 48 82 78q50 37 117 37h119q65 0 118 -37q44 -32 80 -78q29 -38 29 -104v-275q0 -66 -29 -104q-36 -46 -80 -78q-53 -37 -118 -37h-119q-67 0 -117 37q-44 30 -82 78q-29 38 -29 104zM262 780q0 -4 2 -8q25 -30 41 -39q2 -2 10 -2h68q8 0 10 2 q32 27 39 37l2 10v195q0 8 -2 12q-10 13 -39 37q-2 2 -10 2h-68q-8 0 -10 -2q-21 -15 -41 -39l-2 -10v-195z" />
<glyph unicode="&#xbb;" horiz-adv-x="1351" d="M45 252l285 276l-279 271l268 78l353 -353l-353 -344zM559 252l285 276l-279 271l269 78l352 -353l-352 -344z" />
<glyph unicode="&#xbc;" horiz-adv-x="1372" />
<glyph unicode="&#xbd;" horiz-adv-x="1480" />
<glyph unicode="&#xbe;" horiz-adv-x="1382" />
<glyph unicode="&#xbf;" horiz-adv-x="985" d="M92 291v125q0 78 45.5 139.5t112.5 95.5l31 15q116 46 116 69v150h246v-158q0 -46 -16.5 -86t-38 -66t-58 -51.5t-59.5 -37.5t-59 -29q-60 -28 -67 -39q-3 -4 -3 -8v-111q11 -22 33 -44t28 -22h226q17 8 28.5 15t27.5 26.5t30 47.5l237 -66l2 -2q-12 -36 -49 -90 q-47 -68 -117 -120t-151 -52h-234q-84 0 -153 49q-21 14 -59.5 53t-57.5 62q-41 64 -41 135zM391 977v252h256v-252h-256z" />
<glyph unicode="&#xc0;" horiz-adv-x="1167" d="M-43 0l426 1229h276l424 -1229h-266l-82 236h-428q-14 -38 -42.5 -118t-41.5 -118h-266zM195 1630h266l190 -278h-241zM383 475h276l-139 395q-23 -65 -68.5 -197.5t-68.5 -197.5z" />
<glyph unicode="&#xc1;" horiz-adv-x="1167" d="M-43 0l426 1229h276l424 -1229h-266l-82 236h-428q-14 -38 -42.5 -118t-41.5 -118h-266zM299 1352l190 278h267l-215 -278h-242zM383 475h276l-139 395q-23 -65 -68.5 -197.5t-68.5 -197.5z" />
<glyph unicode="&#xc2;" horiz-adv-x="1167" d="M-43 0l426 1229h276l424 -1229h-266l-82 236h-428q-14 -38 -42.5 -118t-41.5 -118h-266zM160 1352l297 278h121l296 -278h-286l-72 80l-70 -80h-286zM383 475h276l-139 395q-23 -65 -68.5 -197.5t-68.5 -197.5z" />
<glyph unicode="&#xc3;" horiz-adv-x="1167" d="M-43 0l426 1229h276l424 -1229h-266l-82 236h-428q-14 -38 -42.5 -118t-41.5 -118h-266zM170 1606l213 43q23 -52 53 -47q22 4 73.5 21.5t74.5 21.5q94 16 173.5 -33t129.5 -172l-209 -41q-10 25 -28.5 37t-31.5 8q-20 -4 -71.5 -20.5t-71.5 -20.5q-95 -16 -175 31 t-130 172zM383 475h276l-139 395q-23 -65 -68.5 -197.5t-68.5 -197.5z" />
<glyph unicode="&#xc4;" horiz-adv-x="1187" d="M-23 0l426 1229h277l424 -1229h-266l-82 236h-428q-14 -38 -42.5 -118t-41.5 -118h-267zM227 1364v250h236v-250h-236zM403 475h277l-139 395q-23 -65 -69.5 -197.5t-68.5 -197.5zM621 1364v250h239v-250h-239z" />
<glyph unicode="&#xc5;" horiz-adv-x="1187" d="M-23 0l426 1229h277l424 -1229h-266l-82 236h-428q-14 -38 -42.5 -118t-41.5 -118h-267zM317 1493q0 87 67 152t157 65q89 0 153 -64.5t64 -152.5q0 -92 -63.5 -155.5t-153.5 -63.5t-157 64t-67 155zM403 475h277l-139 395q-23 -65 -69.5 -197.5t-68.5 -197.5zM455 1493 q0 -35 25.5 -60.5t60.5 -25.5q34 0 57 25.5t23 60.5q0 33 -23.5 57.5t-56.5 24.5q-35 0 -60.5 -24.5t-25.5 -57.5z" />
<glyph unicode="&#xc6;" horiz-adv-x="1560" d="M-23 0l426 1229h983v-240h-491v-252h473v-239h-473v-258h491v-240h-741v236h-317l-84 -236h-267zM403 475h242v514h-65z" />
<glyph unicode="&#xc7;" horiz-adv-x="1136" d="M78 303v621q0 76 35 127q23 30 71 78.5t80 68.5q72 39 133 39h269q144 0 268 -172q43 -59 70 -131l-232 -66q-22 45 -45 73t-63 56h-256q-17 -12 -42.5 -37t-37.5 -45v-610q0 -2 9 -14t29 -30.5t42 -31.5h260q55 37 104 123l234 -57q-24 -68 -70 -131 q-30 -42 -64.5 -77.5t-91 -66t-114.5 -30.5h-269q-67 0 -135 39q-30 19 -77.5 66.5t-71.5 80.5q-35 55 -35 127zM276 -408l187 328l213 -61l-146 -267h-254z" />
<glyph unicode="&#xc8;" d="M76 0v1229h807v-240h-557v-252h538v-239h-538v-258h557v-240h-807zM195 1630h266l190 -278h-241z" />
<glyph unicode="&#xc9;" d="M76 0v1229h807v-240h-557v-252h538v-239h-538v-258h557v-240h-807zM299 1352l190 278h267l-215 -278h-242z" />
<glyph unicode="&#xca;" horiz-adv-x="1060" d="M80 0v1229h807v-240h-557v-252h538v-239h-538v-258h557v-240h-807zM119 1352l297 278h121l297 -278h-287l-72 80l-69 -80h-287z" />
<glyph unicode="&#xcb;" d="M76 0v1229h807v-240h-557v-252h538v-239h-538v-258h557v-240h-807zM160 1364v250h235v-250h-235zM553 1364v250h240v-250h-240z" />
<glyph unicode="&#xcc;" horiz-adv-x="512" d="M-133 1630h266l191 -278h-242zM74 0v1229h252v-1229h-252z" />
<glyph unicode="&#xcd;" horiz-adv-x="516" d="M74 0v1229h252v-1229h-252zM82 1352l190 278h267l-215 -278h-242z" />
<glyph unicode="&#xce;" horiz-adv-x="512" d="M-170 1352l297 278h121l297 -278h-287l-72 80l-69 -80h-287zM74 0v1229h252v-1229h-252z" />
<glyph unicode="&#xcf;" horiz-adv-x="512" d="M-123 1364v250h236v-250h-236zM74 0v1229h252v-1229h-252zM270 1364v250h240v-250h-240z" />
<glyph unicode="&#xd0;" horiz-adv-x="1206" d="M-23 502v229h160v498h586q77 0 135 -37q30 -19 75.5 -68t70.5 -82q34 -48 34 -127v-606q0 -75 -32 -125q-23 -32 -71 -78.5t-81 -66.5q-76 -39 -131 -39h-586v502h-160zM387 240h326q50 27 75 77v588q-21 53 -75 84h-326v-258h201v-229h-201v-262z" />
<glyph unicode="&#xd1;" horiz-adv-x="1153" d="M76 0v1229h256l393 -733v733h250v-1229h-252l-397 723v-723h-250zM170 1606l213 43q23 -52 53 -47q22 4 73.5 21.5t74.5 21.5q94 16 173.5 -33t129.5 -172l-209 -41q-10 25 -28.5 37t-31.5 8q-20 -4 -71.5 -20.5t-71.5 -20.5q-95 -16 -175 31t-130 172z" />
<glyph unicode="&#xd2;" horiz-adv-x="1189" d="M72 305v617q0 80 34 129q23 31 71.5 80t78.5 67q68 39 135 39h311q68 0 136 -39q56 -34 149 -147q35 -51 35 -129v-617q0 -76 -35 -127q-27 -35 -73 -83t-76 -66q-68 -39 -136 -39h-311q-67 0 -135 39q-31 19 -79.5 68.5t-70.5 80.5q-34 49 -34 127zM317 1630h267 l190 -278h-242zM322 305q42 -57 73 -76h301q39 29 76 76v617q-10 18 -34 41.5t-40 33.5h-301q-43 -32 -75 -77v-615z" />
<glyph unicode="&#xd3;" horiz-adv-x="1189" d="M72 305v617q0 80 34 129q23 31 71.5 80t78.5 67q68 39 135 39h311q68 0 136 -39q56 -34 149 -147q35 -51 35 -129v-617q0 -76 -35 -127q-27 -35 -73 -83t-76 -66q-68 -39 -136 -39h-311q-67 0 -135 39q-31 19 -79.5 68.5t-70.5 80.5q-34 49 -34 127zM319 1352l191 278 h266l-215 -278h-242zM322 305q42 -57 73 -76h301q39 29 76 76v617q-10 18 -34 41.5t-40 33.5h-301q-43 -32 -75 -77v-615z" />
<glyph unicode="&#xd4;" horiz-adv-x="1189" d="M72 305v617q0 80 34 129q23 31 71.5 80t78.5 67q68 39 135 39h311q68 0 136 -39q56 -34 149 -147q35 -51 35 -129v-617q0 -76 -35 -127q-27 -35 -73 -83t-76 -66q-68 -39 -136 -39h-311q-67 0 -135 39q-31 19 -79.5 68.5t-70.5 80.5q-34 49 -34 127zM199 1352l297 278 h120l297 -278h-286l-72 80l-70 -80h-286zM322 305q42 -57 73 -76h301q39 29 76 76v617q-10 18 -34 41.5t-40 33.5h-301q-43 -32 -75 -77v-615z" />
<glyph unicode="&#xd5;" horiz-adv-x="1189" d="M72 305v617q0 80 34 129q23 31 71.5 80t78.5 67q68 39 135 39h311q68 0 136 -39q56 -34 149 -147q35 -51 35 -129v-617q0 -76 -35 -127q-27 -35 -73 -83t-76 -66q-68 -39 -136 -39h-311q-67 0 -135 39q-31 19 -79.5 68.5t-70.5 80.5q-34 49 -34 127zM201 1606l213 43 q23 -52 53 -47q23 4 74 21.5t73 21.5q94 16 174 -33t130 -172l-209 -41q-10 25 -28.5 37t-31.5 8q-21 -4 -72 -20.5t-71 -20.5q-95 -16 -175 31t-130 172zM322 305q42 -57 73 -76h301q39 29 76 76v617q-10 18 -34 41.5t-40 33.5h-301q-43 -32 -75 -77v-615z" />
<glyph unicode="&#xd6;" horiz-adv-x="1189" d="M72 305v617q0 80 34 129q23 31 71.5 80t78.5 67q68 39 135 39h311q68 0 136 -39q56 -34 149 -147q35 -51 35 -129v-617q0 -76 -35 -127q-27 -35 -73 -83t-76 -66q-68 -39 -136 -39h-311q-67 0 -135 39q-31 19 -79.5 68.5t-70.5 80.5q-34 49 -34 127zM223 1364v250h236 v-250h-236zM322 305q42 -57 73 -76h301q39 29 76 76v617q-10 18 -34 41.5t-40 33.5h-301q-43 -32 -75 -77v-615zM616 1364v250h240v-250h-240z" />
<glyph unicode="&#xd7;" horiz-adv-x="1077" d="M78 754l164 166l247 -242l246 229l168 -170l-244 -227l232 -229l-164 -166l-233 229l-238 -229l-170 168l238 231z" />
<glyph unicode="&#xd8;" horiz-adv-x="1249" d="M74 305v617q0 78 35 129q24 31 71.5 80t77.5 67q68 39 135 39h361q15 0 43 -4l20 37h248l-86 -156l57 -63q37 -53 37 -129v-617q0 -74 -37 -127q-24 -33 -70.5 -81.5t-76.5 -67.5q-68 -39 -135 -39h-361q-16 0 -24 2l-23 -45h-250l82 149q-43 43 -69 82q-35 51 -35 127z M324 365l344 632h-269q-43 -32 -75 -77v-555zM500 231h248q35 22 73 76v514z" />
<glyph unicode="&#xd9;" horiz-adv-x="1173" d="M76 305v924h250v-922q51 -63 75 -78h281q13 8 35.5 30.5t38.5 45.5v924h250v-924q0 -76 -35 -127q-23 -32 -70 -81.5t-78 -67.5q-72 -39 -135 -39h-293q-67 0 -135 39q-31 18 -79 68t-70 81q-35 51 -35 127zM317 1630h267l190 -278h-242z" />
<glyph unicode="&#xda;" horiz-adv-x="1173" d="M76 305v924h250v-922q51 -63 75 -78h281q13 8 35.5 30.5t38.5 45.5v924h250v-924q0 -76 -35 -127q-23 -32 -70 -81.5t-78 -67.5q-72 -39 -135 -39h-293q-67 0 -135 39q-31 18 -79 68t-70 81q-35 51 -35 127zM319 1352l191 278h266l-215 -278h-242z" />
<glyph unicode="&#xdb;" horiz-adv-x="1173" d="M76 305v924h250v-922q51 -63 75 -78h281q13 8 35.5 30.5t38.5 45.5v924h250v-924q0 -76 -35 -127q-23 -32 -70 -81.5t-78 -67.5q-72 -39 -135 -39h-293q-67 0 -135 39q-31 18 -79 68t-70 81q-35 51 -35 127zM188 1352l297 278h121l297 -278h-287l-71 80l-70 -80h-287z " />
<glyph unicode="&#xdc;" horiz-adv-x="1173" d="M76 305v924h250v-922q51 -63 75 -78h281q13 8 35.5 30.5t38.5 45.5v924h250v-924q0 -76 -35 -127q-23 -32 -70 -81.5t-78 -67.5q-72 -39 -135 -39h-293q-67 0 -135 39q-31 18 -79 68t-70 81q-35 51 -35 127zM223 1364v250h236v-250h-236zM616 1364v250h240v-250h-240z " />
<glyph unicode="&#xdd;" horiz-adv-x="1046" d="M-57 1229h282l256 -432l260 432h283l-418 -697v-532h-252v532zM326 1352l190 278h266l-215 -278h-241z" />
<glyph unicode="&#xde;" horiz-adv-x="1093" d="M76 0v1227h250v-226h348q86 0 153 -45q23 -18 60 -55.5t51 -58.5q39 -58 39 -135v-175q0 -74 -39 -133q-12 -20 -48 -54.5t-63 -55.5q-64 -47 -153 -47h-348v-242h-250zM326 483h348q5 0 25 17.5t28 31.5v181q-19 31 -53 51h-348v-281z" />
<glyph unicode="&#xdf;" horiz-adv-x="2228" d="M31 254l243 65q25 -61 76 -92h303q13 7 29.5 24t26.5 30.5t10 15.5v123q0 4 -1.5 7t-3.5 4l-1 1q-72 20 -238 67.5t-254 71.5q-81 22 -125.5 90t-44.5 148v113q0 79 33 129q15 20 63.5 70.5t71.5 68.5q69 49 154 49h262q82 0 154.5 -52.5t113.5 -117.5q35 -61 49 -92 l-239 -66q-28 56 -86 88h-242q-18 -9 -39 -27t-33 -31t-12 -15v-109q0 -4 1.5 -7t3.5 -4l1 -1q93 -27 266 -76t228 -65q79 -24 123.5 -92t44.5 -146v-123q0 -79 -33 -129q-13 -21 -64 -73.5t-73 -67.5q-62 -45 -154 -45h-295q-81 0 -149.5 51.5t-118.5 120.5q-12 14 -51 94z M1155 254l244 65q25 -61 76 -92h303q13 7 29 24.5t26 30.5t10 15v123q0 4 -1.5 7t-3.5 4l-1 1q-73 20 -238 67.5t-253 71.5q-81 22 -125.5 90t-44.5 148v113q0 80 32 129q15 20 63.5 70.5t71.5 68.5q69 49 154 49h262q82 0 155 -53t114 -117q35 -61 49 -92l-240 -66 q-28 56 -86 88h-242q-18 -9 -39 -27t-33 -31t-12 -15v-109q0 -4 1.5 -7t3.5 -4l2 -1q94 -27 273 -78t220 -63q79 -24 123.5 -92t44.5 -146v-123q0 -79 -33 -129q-13 -21 -64 -73.5t-73 -67.5q-62 -45 -154 -45h-294q-81 0 -150 51.5t-119 120.5q-12 14 -51 94z" />
<glyph unicode="&#xe0;" horiz-adv-x="1187" d="M-23 0l426 1229h277l424 -1229h-266l-82 236h-428q-14 -38 -42.5 -118t-41.5 -118h-267zM215 1630h266l191 -278h-242zM403 475h277l-139 395q-23 -65 -69.5 -197.5t-68.5 -197.5z" />
<glyph unicode="&#xe1;" horiz-adv-x="1187" d="M-23 0l426 1229h277l424 -1229h-266l-82 236h-428q-14 -38 -42.5 -118t-41.5 -118h-267zM403 475h277l-139 395q-23 -65 -69.5 -197.5t-68.5 -197.5zM416 1356l190 278h264l-215 -278h-239z" />
<glyph unicode="&#xe2;" horiz-adv-x="1187" d="M-23 0l426 1229h277l424 -1229h-266l-82 236h-428q-14 -38 -42.5 -118t-41.5 -118h-267zM176 1352l297 278h121l297 -278h-287l-72 80l-69 -80h-287zM403 475h277l-139 395q-23 -65 -69.5 -197.5t-68.5 -197.5z" />
<glyph unicode="&#xe3;" horiz-adv-x="1187" d="M-23 0l426 1229h277l424 -1229h-266l-82 236h-428q-14 -38 -42.5 -118t-41.5 -118h-267zM180 1606l213 43q23 -52 53 -47q23 4 74.5 21.5t73.5 21.5q94 16 173.5 -33t129.5 -172l-209 -41q-10 25 -28 37t-31 8q-21 -4 -72.5 -20.5t-71.5 -20.5q-95 -16 -175 31t-130 172z M403 475h277l-139 395q-23 -65 -69.5 -197.5t-68.5 -197.5z" />
<glyph unicode="&#xe4;" horiz-adv-x="1187" d="M-23 0l426 1229h277l424 -1229h-266l-82 236h-428q-14 -38 -42.5 -118t-41.5 -118h-267zM221 1364v250h236v-250h-236zM403 475h277l-139 395q-23 -65 -69.5 -197.5t-68.5 -197.5zM614 1364v250h240v-250h-240z" />
<glyph unicode="&#xe5;" horiz-adv-x="1187" d="M-23 0l426 1229h277l424 -1229h-266l-82 236h-428q-14 -38 -42.5 -118t-41.5 -118h-267zM319 1493q0 87 67 152t157 65q89 0 153 -64.5t64 -152.5q0 -92 -63.5 -155.5t-153.5 -63.5t-157 64t-67 155zM403 475h277l-139 395q-23 -65 -69.5 -197.5t-68.5 -197.5zM457 1493 q0 -35 25.5 -60.5t60.5 -25.5q34 0 57 25.5t23 60.5q0 33 -23.5 57.5t-56.5 24.5q-35 0 -60.5 -24.5t-25.5 -57.5z" />
<glyph unicode="&#xe6;" horiz-adv-x="1570" d="M-23 0l426 1229h983v-240h-491v-252h473v-239h-473v-258h491v-240h-741v236h-317l-84 -236h-267zM403 475h242v514h-65z" />
<glyph unicode="&#xe7;" horiz-adv-x="1087" d="M78 303v615q0 75 35 126q13 20 66 72.5t79 71.5q69 49 154 49h233q142 0 268 -170q32 -45 50 -92l-240 -66q-34 65 -86 88h-223q-17 -12 -45.5 -40t-40.5 -48v-610q0 -3 11 -15.5t32 -29t41 -25.5h227q47 17 84 93l240 -66l2 -2q-14 -32 -52 -92q-43 -67 -114.5 -119.5 t-153.5 -52.5h-235q-93 0 -148 39q-30 19 -77.5 66.5t-71.5 80.5q-35 55 -35 127zM276 -408l187 328l213 -61l-146 -267h-254z" />
<glyph unicode="&#xe8;" horiz-adv-x="1036" d="M76 0v1229h786v-240h-536v-254h518v-239h-518v-256h536v-240h-786zM195 1630h266l190 -278h-241z" />
<glyph unicode="&#xe9;" horiz-adv-x="1036" d="M76 0v1229h786v-240h-536v-254h518v-239h-518v-256h536v-240h-786zM299 1352l190 278h267l-215 -278h-242z" />
<glyph unicode="&#xea;" horiz-adv-x="1042" d="M82 0v1229h786v-240h-536v-254h518v-239h-518v-256h536v-240h-786zM119 1352l297 278h121l297 -278h-287l-72 80l-69 -80h-287z" />
<glyph unicode="&#xeb;" horiz-adv-x="1036" d="M76 0v1229h786v-240h-536v-254h518v-239h-518v-256h536v-240h-786zM150 1364v250h235v-250h-235zM543 1364v250h239v-250h-239z" />
<glyph unicode="&#xec;" horiz-adv-x="495" d="M-133 1630h266l191 -278h-242zM74 0v1229h252v-1229h-252z" />
<glyph unicode="&#xed;" horiz-adv-x="501" d="M68 1352l190 278h266l-215 -278h-241zM74 0v1229h252v-1229h-252z" />
<glyph unicode="&#xee;" horiz-adv-x="538" d="M-170 1352l297 278h121l297 -278h-287l-72 80l-69 -80h-287zM74 0v1229h252v-1229h-252z" />
<glyph unicode="&#xef;" horiz-adv-x="512" d="M-123 1364v250h236v-250h-236zM74 0v1229h252v-1229h-252zM270 1364v250h240v-250h-240z" />
<glyph unicode="&#xf0;" horiz-adv-x="1206" d="M-23 502v229h160v498h586q77 0 135 -37q30 -19 75.5 -68t70.5 -82q34 -48 34 -127v-606q0 -75 -32 -125q-23 -32 -71 -78.5t-81 -66.5q-76 -39 -131 -39h-586v502h-160zM387 240h326q50 27 75 77v588q-21 53 -75 84h-326v-258h201v-229h-201v-262z" />
<glyph unicode="&#xf1;" horiz-adv-x="1153" d="M76 0v1229h256l393 -733v733h250v-1229h-252l-397 723v-723h-250zM184 1606l213 43q23 -52 54 -47q23 4 73.5 21.5t73.5 21.5q94 16 173.5 -33t129.5 -172l-209 -41q-10 25 -28 37t-31 8q-20 -4 -72 -20.5t-72 -20.5q-95 -16 -175 31t-130 172z" />
<glyph unicode="&#xf2;" horiz-adv-x="1161" d="M74 305v617q0 78 35 129q24 31 71.5 80t77.5 67q68 39 135 39h279q67 0 135 -39q53 -33 147 -147q37 -53 37 -129v-617q0 -74 -37 -127q-24 -33 -70.5 -81.5t-76.5 -67.5q-68 -39 -135 -39h-279q-67 0 -135 39q-31 18 -79 68t-70 81q-35 51 -35 127zM297 1630h266 l191 -278h-242zM324 307q42 -57 73 -76h269q35 22 73 76v615q-10 19 -32.5 42t-38.5 33h-269q-43 -32 -75 -77v-613z" />
<glyph unicode="&#xf3;" horiz-adv-x="1161" d="M74 305v617q0 78 35 129q24 31 71.5 80t77.5 67q68 39 135 39h279q67 0 135 -39q53 -33 147 -147q37 -53 37 -129v-617q0 -74 -37 -127q-24 -33 -70.5 -81.5t-76.5 -67.5q-68 -39 -135 -39h-279q-67 0 -135 39q-31 18 -79 68t-70 81q-35 51 -35 127zM324 307 q42 -57 73 -76h269q35 22 73 76v615q-10 19 -32.5 42t-38.5 33h-269q-43 -32 -75 -77v-613zM340 1352l190 278h267l-215 -278h-242z" />
<glyph unicode="&#xf4;" horiz-adv-x="1161" d="M74 305v617q0 78 35 129q24 31 71.5 80t77.5 67q68 39 135 39h279q67 0 135 -39q53 -33 147 -147q37 -53 37 -129v-617q0 -74 -37 -127q-24 -33 -70.5 -81.5t-76.5 -67.5q-68 -39 -135 -39h-279q-67 0 -135 39q-31 18 -79 68t-70 81q-35 51 -35 127zM178 1352l297 278 h121l297 -278h-287l-71 80l-70 -80h-287zM324 307q42 -57 73 -76h269q35 22 73 76v615q-10 19 -32.5 42t-38.5 33h-269q-43 -32 -75 -77v-613z" />
<glyph unicode="&#xf5;" horiz-adv-x="1161" d="M74 305v617q0 78 35 129q24 31 71.5 80t77.5 67q68 39 135 39h279q67 0 135 -39q53 -33 147 -147q37 -53 37 -129v-617q0 -74 -37 -127q-24 -33 -70.5 -81.5t-76.5 -67.5q-68 -39 -135 -39h-279q-67 0 -135 39q-31 18 -79 68t-70 81q-35 51 -35 127zM178 1606l213 43 q23 -52 53 -47q22 4 73.5 21.5t74.5 21.5q94 16 173.5 -33t129.5 -172l-209 -41q-10 25 -28 37t-31 8q-20 -4 -72 -20.5t-72 -20.5q-95 -16 -175 31t-130 172zM324 307q42 -57 73 -76h269q35 22 73 76v615q-10 19 -32.5 42t-38.5 33h-269q-43 -32 -75 -77v-613z" />
<glyph unicode="&#xf6;" horiz-adv-x="1161" d="M74 305v617q0 78 35 129q24 31 71.5 80t77.5 67q68 39 135 39h279q67 0 135 -39q53 -33 147 -147q37 -53 37 -129v-617q0 -74 -37 -127q-24 -33 -70.5 -81.5t-76.5 -67.5q-68 -39 -135 -39h-279q-67 0 -135 39q-31 18 -79 68t-70 81q-35 51 -35 127zM223 1364v250h236 v-250h-236zM324 307q42 -57 73 -76h269q35 22 73 76v615q-10 19 -32.5 42t-38.5 33h-269q-43 -32 -75 -77v-613zM616 1364v250h240v-250h-240z" />
<glyph unicode="&#xf7;" horiz-adv-x="817" />
<glyph unicode="&#xf8;" horiz-adv-x="1249" d="M74 305v617q0 78 35 129q24 31 71.5 80t77.5 67q68 39 135 39h361q15 0 43 -4l20 37h248l-86 -156l57 -63q37 -53 37 -129v-617q0 -74 -37 -127q-24 -33 -70.5 -81.5t-76.5 -67.5q-68 -39 -135 -39h-361q-16 0 -24 2l-23 -45h-250l82 149q-43 43 -69 82q-35 51 -35 127z M324 365l344 632h-269q-43 -32 -75 -77v-555zM500 231h248q35 22 73 76v514z" />
<glyph unicode="&#xf9;" horiz-adv-x="1138" d="M76 305v924h250v-922q51 -63 75 -78h261q35 22 73 76v924h250v-924q0 -76 -35 -127q-23 -32 -69.5 -81.5t-77.5 -67.5q-72 -39 -135 -39h-273q-67 0 -135 39q-31 18 -79 68t-70 81q-35 51 -35 127zM297 1630h266l191 -278h-242z" />
<glyph unicode="&#xfa;" horiz-adv-x="1138" d="M76 305v924h250v-922q51 -63 75 -78h261q35 22 73 76v924h250v-924q0 -76 -35 -127q-23 -32 -69.5 -81.5t-77.5 -67.5q-72 -39 -135 -39h-273q-67 0 -135 39q-31 18 -79 68t-70 81q-35 51 -35 127zM340 1352l190 278h267l-215 -278h-242z" />
<glyph unicode="&#xfb;" horiz-adv-x="1138" d="M76 305v924h250v-922q51 -63 75 -78h261q35 22 73 76v924h250v-924q0 -76 -35 -127q-23 -32 -69.5 -81.5t-77.5 -67.5q-72 -39 -135 -39h-273q-67 0 -135 39q-31 18 -79 68t-70 81q-35 51 -35 127zM178 1352l297 278h121l297 -278h-287l-71 80l-70 -80h-287z" />
<glyph unicode="&#xfc;" horiz-adv-x="1138" d="M76 305v924h250v-922q51 -63 75 -78h261q35 22 73 76v924h250v-924q0 -76 -35 -127q-23 -32 -69.5 -81.5t-77.5 -67.5q-72 -39 -135 -39h-273q-67 0 -135 39q-31 18 -79 68t-70 81q-35 51 -35 127zM217 1364v250h236v-250h-236zM610 1364v250h240v-250h-240z" />
<glyph unicode="&#xfd;" horiz-adv-x="1046" d="M-57 1229h282l256 -432l260 432h283l-418 -697v-532h-252v532zM326 1352l190 278h266l-215 -278h-241z" />
<glyph unicode="&#xfe;" horiz-adv-x="1093" d="M76 0v1227h250v-226h348q86 0 153 -45q23 -18 60 -55.5t51 -58.5q39 -58 39 -135v-175q0 -74 -39 -133q-12 -20 -48 -54.5t-63 -55.5q-64 -47 -153 -47h-348v-242h-250zM326 483h348q5 0 25 17.5t28 31.5v181q-19 31 -53 51h-348v-281z" />
<glyph unicode="&#xff;" horiz-adv-x="1046" d="M-57 1229h282l256 -432l260 432h283l-418 -697v-532h-252v532zM168 1364v250h235v-250h-235zM561 1364v250h240v-250h-240z" />
<glyph unicode="&#x152;" horiz-adv-x="1665" d="M78 305v617q0 78 35 129q24 31 71.5 80t77.5 67q68 39 135 39h258q47 0 99 -20v12h737v-240h-516v-254h498v-239h-498v-256h516v-240h-737v10q-52 -20 -99 -20h-258q-67 0 -135 39q-31 18 -79 68t-70 81q-35 51 -35 127zM328 307q42 -57 73 -76h248q13 8 35.5 30.5 t38.5 45.5v615q-10 19 -33 42t-39 33h-248q-43 -32 -75 -77v-613z" />
<glyph unicode="&#x153;" horiz-adv-x="1665" d="M78 305v617q0 78 35 129q24 31 71.5 80t77.5 67q68 39 135 39h258q47 0 99 -20v12h737v-240h-516v-254h498v-239h-498v-256h516v-240h-737v10q-52 -20 -99 -20h-258q-67 0 -135 39q-31 18 -79 68t-70 81q-35 51 -35 127zM328 307q42 -57 73 -76h248q13 8 35.5 30.5 t38.5 45.5v615q-10 19 -33 42t-39 33h-248q-43 -32 -75 -77v-613z" />
<glyph unicode="&#x178;" horiz-adv-x="1046" d="M-57 1229h282l256 -432l260 432h283l-418 -697v-532h-252v532zM168 1364v250h235v-250h-235zM561 1364v250h240v-250h-240z" />
<glyph unicode="&#x2c6;" horiz-adv-x="800" d="M35 1352l297 278h121l297 -278h-287l-72 80l-69 -80h-287z" />
<glyph unicode="&#x2dc;" horiz-adv-x="964" d="M55 1606l213 43q23 -52 54 -47q22 4 73.5 21.5t73.5 21.5q94 16 173.5 -33t129.5 -172l-209 -41q-10 25 -28 37t-31 8q-20 -4 -72 -20.5t-72 -20.5q-95 -16 -175 31t-130 172z" />
<glyph unicode="&#x2000;" horiz-adv-x="855" />
<glyph unicode="&#x2001;" horiz-adv-x="1710" />
<glyph unicode="&#x2002;" horiz-adv-x="855" />
<glyph unicode="&#x2003;" horiz-adv-x="1710" />
<glyph unicode="&#x2004;" horiz-adv-x="570" />
<glyph unicode="&#x2005;" horiz-adv-x="427" />
<glyph unicode="&#x2006;" horiz-adv-x="285" />
<glyph unicode="&#x2007;" horiz-adv-x="285" />
<glyph unicode="&#x2008;" horiz-adv-x="213" />
<glyph unicode="&#x2009;" horiz-adv-x="342" />
<glyph unicode="&#x200a;" horiz-adv-x="95" />
<glyph unicode="&#x2010;" horiz-adv-x="782" d="M76 391v232h530v-232h-530z" />
<glyph unicode="&#x2011;" horiz-adv-x="782" d="M76 391v232h530v-232h-530z" />
<glyph unicode="&#x2012;" horiz-adv-x="782" d="M76 391v232h530v-232h-530z" />
<glyph unicode="&#x2013;" horiz-adv-x="972" d="M57 395v234h754v-234h-754z" />
<glyph unicode="&#x2014;" horiz-adv-x="1144" d="M57 395v234h926v-234h-926z" />
<glyph unicode="&#x2018;" horiz-adv-x="495" d="M-61 893l200 428l236 -72l-164 -356h-272z" />
<glyph unicode="&#x2019;" horiz-adv-x="495" d="M-29 958l164 357h273l-201 -428z" />
<glyph unicode="&#x201a;" horiz-adv-x="495" d="M-37 -170l201 428l235 -72l-163 -356h-273z" />
<glyph unicode="&#x201c;" horiz-adv-x="907" d="M-29 958l164 357h273l-201 -428zM377 958l164 357h272l-201 -428z" />
<glyph unicode="&#x201d;" horiz-adv-x="913" d="M-29 893l201 428l236 -72l-164 -356h-273zM377 893l201 428l235 -72l-164 -356h-272z" />
<glyph unicode="&#x201e;" horiz-adv-x="917" d="M-29 -170l201 428l236 -72l-164 -356h-273zM377 -170l201 428l235 -72l-164 -356h-272z" />
<glyph unicode="&#x2022;" horiz-adv-x="917" d="M115 500v32q0 74 40 125t107 97q49 34 131 34h49q80 0 129 -34q68 -47 107 -97.5t39 -124.5v-32q0 -84 -47 -140q-65 -65 -99 -84q-50 -34 -129 -34h-49q-77 0 -129 34q-50 32 -104 86q-45 53 -45 138z" />
<glyph unicode="&#x2026;" horiz-adv-x="1411" d="M150 0v291h286v-291h-286zM510 0v291h291v-291h-291zM874 0v291h287v-291h-287z" />
<glyph unicode="&#x202f;" horiz-adv-x="342" />
<glyph unicode="&#x2039;" horiz-adv-x="837" d="M45 524l352 353l269 -78l-279 -271l285 -276l-275 -72z" />
<glyph unicode="&#x203a;" horiz-adv-x="837" d="M45 252l285 276l-279 271l268 78l353 -353l-353 -344z" />
<glyph unicode="&#x205f;" horiz-adv-x="427" />
<glyph unicode="&#x20ac;" horiz-adv-x="1163" d="M78 356v224h76v67h-76v223h76v48q0 77 34 126q11 19 65 71t81 73q69 49 153 49h234q137 0 268 -170q30 -42 49 -92l-239 -66q-34 65 -86 88h-224q-17 -12 -45.5 -40t-40.5 -48v-39h312v-223h-312v-67h312v-224h-312v-57q0 -3 11 -15.5t32 -29t41 -25.5h228q47 17 84 93 l241 -66q-15 -35 -51 -94q-46 -68 -116 -120t-152 -52h-236q-92 0 -147 39q-31 20 -80 68t-70 79q-34 53 -34 127v53h-76z" />
<glyph unicode="&#x2122;" horiz-adv-x="1259" d="M76 1012v215h669l64 -123q12 20 36.5 61t35.5 62h235v-635h-223v221q-8 -24 -14 -39h-131l-15 37v-219h-229v420h-55v-420h-226v420h-147z" />
<glyph unicode="&#x25fc;" horiz-adv-x="1228" d="M0 0v1229h1229v-1229h-1229z" />
<glyph unicode="&#xfb01;" horiz-adv-x="1533" d="M76 0v1229h786v-240h-536v-254h508v-239h-508v-496h-250zM1106 0v1229h252v-1229h-252z" />
<glyph unicode="&#xfb02;" horiz-adv-x="1966" d="M76 0v1229h786v-240h-536v-254h508v-239h-508v-496h-250zM1081 0v1229h250v-989h524v-240h-774z" />
</font>
</defs>
</svg>
