<?xml version="1.0" standalone="no"?>
<!DOCTYPE svg PUBLIC "-//W3C//DTD SVG 1.1//EN" "http://www.w3.org/Graphics/SVG/1.1/DTD/svg11.dtd" >
<svg xmlns="http://www.w3.org/2000/svg" xmlns:xlink="http://www.w3.org/1999/xlink" version="1.1">
<metadata></metadata>
<defs>
<font id="blender_promedium" horiz-adv-x="1052" >
<font-face units-per-em="2048" ascent="1638" descent="-410" />
<missing-glyph horiz-adv-x="475" />
<glyph horiz-adv-x="0" />
<glyph horiz-adv-x="682" />
<glyph unicode="&#xd;" horiz-adv-x="1024" />
<glyph unicode=" "  horiz-adv-x="475" />
<glyph unicode="&#x09;" horiz-adv-x="475" />
<glyph unicode="&#xa0;" horiz-adv-x="475" />
<glyph unicode="!" horiz-adv-x="495" d="M74 0v201h209v-201h-209zM100 338v891h160v-891h-160z" />
<glyph unicode="&#x22;" horiz-adv-x="819" d="M121 946l16 148v223h156v-250l-14 -121h-158zM440 946l17 148v223h155v-250l-14 -121h-158z" />
<glyph unicode="#" horiz-adv-x="1093" d="M18 369l27 147h182l33 174h-182l26 150h183l37 198h155l-37 -198h148l37 198h155l-37 -198h183l-27 -150h-182l-33 -174h182l-26 -147h-183l-38 -207h-156l39 207h-148l-39 -207h-155l39 207h-183zM383 516h147l33 174h-147z" />
<glyph unicode="$" horiz-adv-x="1167" d="M43 262l162 43l18 -37q19 -33 55 -67t62 -47q8 -4 18 -4h105v403l-246 63q-68 18 -106.5 78t-38.5 131v125q0 69 28 109q19 29 69.5 78t80.5 67q64 35 117 35h96v162h117v-162h88q127 0 252 -166q19 -24 57 -104l-164 -47l-20 41q-16 31 -53 65.5t-64 48.5q-6 2 -14 2 h-82v-389l260 -69q67 -18 108 -76.5t41 -128.5v-140q0 -68 -28 -108q-19 -28 -69.5 -76.5t-80.5 -66.5q-64 -35 -117 -35h-114v-183h-117v183h-111q-130 0 -254 166q-16 22 -55 106zM240 834q0 -23 13 -42t32 -24l178 -47v358h-86q-7 0 -19 -4q-26 -12 -72 -57.5t-46 -67.5 v-116zM580 150h106q8 0 16 4q30 14 74.5 57.5t44.5 67.5v124q0 24 -14 44.5t-33 25.5l-194 49v-372z" />
<glyph unicode="%" horiz-adv-x="1480" d="M23 811v231q0 57 24 93q12 15 37.5 41t42.5 38q48 33 113 33h122q65 0 113 -33q38 -27 78 -79q25 -38 25 -93v-231q0 -58 -25 -94q-36 -47 -78 -78q-48 -33 -113 -33h-122q-65 0 -113 33q-18 13 -44 39t-36 39q-24 32 -24 94zM164 825q0 -10 4 -18q8 -16 26.5 -35.5 t34.5 -26.5q12 -6 19 -6h108q10 0 19 6q13 8 32 26.5t25 29.5q4 8 4 24v203q0 17 -2 23q-7 14 -26 31.5t-35 25.5q-8 4 -17 4h-108q-9 0 -17 -4q-17 -9 -36.5 -27.5t-26.5 -33.5q-4 -8 -4 -19v-203zM262 0l662 1229h159l-649 -1229h-172zM778 195v231q0 54 25 92 q40 51 80 80q48 33 112 33h123q65 0 113 -33q36 -26 78 -80q24 -36 24 -92v-231q0 -60 -24 -95q-10 -14 -35.5 -39.5t-42.5 -37.5q-48 -33 -113 -33h-123q-64 0 -112 33q-18 13 -44 38.5t-36 38.5q-25 34 -25 95zM920 209q0 -11 4 -19q8 -16 26.5 -35t34.5 -26q12 -6 19 -6 h108q9 0 18 6q14 9 33 26.5t25 28.5q4 8 4 25v203q0 16 -2 22q-7 14 -26.5 32t-35.5 26q-8 4 -16 4h-108q-9 0 -17 -4q-17 -9 -36 -28t-27 -34q-4 -8 -4 -18v-203z" />
<glyph unicode="&#x26;" horiz-adv-x="1185" d="M80 258v178q0 41 15 75.5t32.5 55t52.5 54.5q-53 49 -76.5 87.5t-23.5 98.5v162q0 65 35 118q12 19 49 55.5t59 51.5q62 45 135 45h213q76 0 135.5 -46.5t116.5 -121.5q34 -48 60 -106l-164 -43l-21 41q-16 31 -51 65t-61 47q-12 4 -21 4h-205q-25 0 -60 -33t-48 -59 q-4 -8 -4 -22v-154q0 -15 4 -23q13 -25 48.5 -57.5t59.5 -32.5h224v-157h-224q-24 0 -60 -31.5t-48 -56.5q-4 -8 -4 -21v-170q0 -12 4 -20q12 -25 48 -57.5t60 -32.5h308q27 0 62 32t48 58q4 8 4 22v307h230v-163h-62v-150q0 -65 -35 -115q-12 -19 -49 -56t-59 -52 q-59 -43 -139 -43h-310q-76 0 -135 43q-22 15 -59 52t-49 56q-35 50 -35 115z" />
<glyph unicode="'" horiz-adv-x="485" d="M119 946l16 148v221h156v-248l-15 -121h-157z" />
<glyph unicode="(" horiz-adv-x="714" d="M53 287v653q0 65 31 109q43 62 147 159q33 32 80 75t54 50l110 -116q-2 -2 -22.5 -20.5t-52.5 -48t-60 -56.5q-52 -49 -89.5 -93.5t-37.5 -62.5v-645q0 -29 127 -152q103 -100 137 -127l-112 -116q-3 3 -21.5 20.5t-48.5 45.5t-57 54q-124 120 -154 162q-31 44 -31 109z " />
<glyph unicode=")" horiz-adv-x="720" d="M92 12q34 27 137 127q127 123 127 152v645q0 33 -125 154q-28 27 -60.5 57t-53.5 49t-23 21l109 116q55 -48 135 -125q109 -105 147 -159q31 -44 31 -109v-653q0 -65 -31 -109q-38 -57 -151 -162q-26 -24 -57 -52t-50 -45.5t-24 -22.5z" />
<glyph unicode="*" horiz-adv-x="948" d="M39 1001l47 146l238 -84l-5 256h154l-8 -254l242 84l49 -145l-244 -74l154 -201l-123 -92l-146 209l-143 -209l-125 90l154 201z" />
<glyph unicode="+" d="M86 436v150h305v284h160v-284h305v-150h-305v-286h-160v286h-305z" />
<glyph unicode="," horiz-adv-x="548" d="M14 -178l164 350l156 -49l-139 -301h-181z" />
<glyph unicode="-" horiz-adv-x="684" d="M53 434v150h467v-150h-467z" />
<glyph unicode="." horiz-adv-x="555" d="M106 0v211h209v-211h-209z" />
<glyph unicode="/" horiz-adv-x="884" d="M-55 0l669 1229h179l-668 -1229h-180z" />
<glyph unicode="0" d="M49 258v713q0 63 35 116q12 19 49.5 56.5t59.5 52.5q59 43 135 43h276q78 0 137 -43q22 -15 59.5 -52.5t49.5 -56.5q35 -53 35 -116v-713q0 -65 -35 -115q-12 -19 -49.5 -56t-59.5 -52q-59 -43 -137 -43h-276q-76 0 -135 43q-22 15 -59.5 52t-49.5 56q-35 50 -35 115z M217 262q0 -16 2 -20q12 -26 48 -58t63 -32h272q27 0 63 32t48 58q4 8 4 20v705q0 14 -4 22q-12 26 -48 58t-63 32h-272q-27 0 -63 -32t-48 -58q-2 -4 -2 -22v-705z" />
<glyph unicode="1" d="M141 0v150h279v919h-240v160h408v-1079h262v-150h-709z" />
<glyph unicode="2" d="M45 969q29 66 55 104q124 166 254 166h232q78 0 137 -43q22 -15 59 -52.5t49 -56.5q35 -53 35 -116v-140q0 -66 -40.5 -120t-102.5 -86l-428 -222q-51 -26 -51 -69v-174h606v-160h-774v342q0 131 145 205l432 221q45 23 45 70v129q0 14 -4 22q-13 26 -48 58t-62 32h-224 q-12 0 -24 -6q-26 -13 -59.5 -45.5t-49.5 -64.5q-4 -8 -20 -41z" />
<glyph unicode="3" d="M39 258l164 43q16 -30 26 -47q19 -30 52.5 -63.5t56.5 -43.5q8 -2 16 -2h226q26 0 58 29.5t48 56.5q6 9 6 25v174q0 9 -4 21q-12 28 -46 59t-60 31h-220v157h218q14 0 22 4q20 10 44.5 34t39.5 46q6 9 6 27v158q0 14 -4 22q-11 22 -35.5 48t-46.5 38q-6 4 -26 4h-226 l-16 -2q-27 -14 -63 -47.5t-52 -64.5q-6 -8 -20 -41l-164 43q40 85 57 106q25 34 64 73.5t71 59.5q54 33 117 33h234q76 0 135 -43q21 -15 58.5 -53.5t49.5 -57.5q35 -53 35 -114v-166q0 -41 -15 -75.5t-32 -54.5t-53 -54q52 -50 76 -89.5t24 -97.5v-180q0 -64 -35 -117 q-12 -19 -49 -56t-59 -52q-59 -43 -135 -43h-234q-130 0 -252 164q-15 18 -57 108z" />
<glyph unicode="4" d="M41 266v142l526 821h217v-803h136v-160h-136v-266h-168v266h-575zM244 426h372v588z" />
<glyph unicode="5" d="M45 262l164 43l20 -41q18 -32 50 -63.5t57 -44.5q10 -6 26 -6h230q16 0 24 4q22 11 49 37.5t37 48.5q5 10 5 20v223q0 18 -5 23q-24 42 -86 86q-6 4 -24 4h-479v633h698v-160h-530v-315h313q78 0 137 -43q22 -15 59.5 -52t49.5 -55q34 -52 34 -117v-229q0 -65 -34 -117 q-12 -19 -49.5 -56t-59.5 -52q-59 -43 -137 -43h-238q-131 0 -254 164q-15 18 -57 108z" />
<glyph unicode="6" d="M57 256v715q0 63 35 116q12 19 49.5 56.5t59.5 52.5q59 43 135 43h233q63 0 117 -33q32 -20 71 -59.5t64 -73.5q37 -46 56 -102l-164 -43l-19 37q-16 31 -48.5 62t-61.5 48q-6 4 -23 4h-223q-17 0 -23 -4q-22 -12 -48 -38t-38 -48q-4 -4 -4 -22v-258q72 65 154 65h213 q79 0 135 -41q22 -15 59.5 -51.5t49.5 -54.5q34 -52 34 -117v-254q0 -65 -34 -117q-12 -19 -49.5 -56t-59.5 -52q-59 -43 -135 -43h-256q-76 0 -135 43q-22 15 -59.5 52t-49.5 56q-35 53 -35 117zM225 258q0 -12 4 -20q12 -25 48.5 -58t60.5 -33h252q26 0 60.5 32.5 t47.5 58.5q4 8 4 20v250q0 12 -4 20q-15 29 -48.5 61t-59.5 32h-205q-10 0 -20 -5q-43 -22 -85 -54t-55 -62v-242z" />
<glyph unicode="7" d="M45 1069v160h815v-137l-536 -1092h-185l531 1069h-625z" />
<glyph unicode="8" d="M53 256v178q0 41 15 76t33 56t53 55q-35 34 -53 55t-33 55.5t-15 75.5v164q0 63 35 116q12 19 49.5 56.5t59.5 52.5q59 43 135 43h256q76 0 135 -43q22 -15 59 -52.5t49 -56.5q35 -53 35 -116v-164q0 -58 -24 -97t-76 -89q52 -50 76 -89.5t24 -97.5v-178q0 -64 -35 -117 q-12 -19 -49 -56t-59 -52q-59 -43 -135 -43h-256q-76 0 -135 43q-22 15 -59.5 52t-49.5 56q-35 53 -35 117zM221 258q0 -16 4 -20q15 -28 49 -59.5t60 -31.5h252q24 0 60 33t48 58q4 4 4 20v174q0 15 -4 19q-12 25 -48 57.5t-60 32.5h-252q-26 0 -60 -31.5t-49 -58.5 q-4 -4 -4 -19v-174zM221 811q0 -19 4 -23q11 -22 44 -55.5t53 -34.5h264q24 0 60 32.5t48 57.5q4 4 4 23v156q0 18 -4 22q-12 26 -47.5 58t-60.5 32h-252q-27 0 -61 -31t-48 -59q-4 -4 -4 -22v-156z" />
<glyph unicode="9" d="M47 256l164 43l18 -37q16 -31 48.5 -62t62.5 -48q7 -5 22 -5h224q14 0 22 5q22 12 48 38t38 48q4 4 4 22v258q-72 -65 -153 -65h-213q-79 0 -135 41q-22 15 -59.5 51.5t-49.5 54.5q-35 53 -35 117v254q0 63 35 116q12 19 49.5 56.5t59.5 52.5q59 43 135 43h256 q76 0 135 -43q22 -15 59 -52.5t49 -56.5q35 -53 35 -116v-715q0 -64 -35 -117q-12 -19 -49 -56t-59 -52q-59 -43 -135 -43h-234q-63 0 -116 32q-32 20 -71.5 60t-64.5 74q-35 44 -55 102zM221 719q0 -13 4 -21q15 -28 48.5 -60t60.5 -32h205q12 0 20 4q42 21 83.5 54 t55.5 63v242q0 12 -4 20q-12 25 -48 57.5t-60 32.5h-252q-27 0 -61.5 -32t-47.5 -58q-4 -8 -4 -20v-250z" />
<glyph unicode=":" horiz-adv-x="555" d="M106 0v217h209v-217h-209zM106 549v217h209v-217h-209z" />
<glyph unicode=";" horiz-adv-x="548" d="M14 -178l164 350l156 -49l-139 -301h-181zM106 549v217h209v-217h-209z" />
<glyph unicode="&#x3c;" horiz-adv-x="1488" d="M-8 616l641 619h217l-571 -541h1036v-153h-1030l565 -541h-217z" />
<glyph unicode="=" horiz-adv-x="995" d="M51 297v137h754v-137h-754zM51 573v140h754v-140h-754z" />
<glyph unicode="&#x3e;" horiz-adv-x="1488" d="M23 541v153h1036l-572 541h218l641 -619l-641 -616h-218l566 541h-1030z" />
<glyph unicode="?" horiz-adv-x="950" d="M20 969q27 62 56 104q125 166 254 166h231q78 0 137 -43q22 -15 59.5 -52.5t49.5 -56.5q35 -53 35 -116v-140q0 -67 -40 -120.5t-102 -85.5l-135 -68q-23 -10 -38 -31t-15 -41v-151h-168v160q0 34 8.5 63t28 52.5t37.5 41t50 36t51.5 29t57 27.5t52.5 25q45 23 45 70v129 q0 14 -4 22q-12 26 -48 58t-63 32h-223q-13 0 -21 -4q-26 -13 -61 -47t-51 -65q-5 -8 -21 -41zM326 0v197h204v-197h-204z" />
<glyph unicode="@" horiz-adv-x="1239" d="M55 -70v1028q0 69 27 105q15 28 64.5 78t78.5 67q54 33 111 33h428q24 0 59 -10.5t56 -24.5q59 -41 139 -143q29 -42 29 -105v-798l20 -160h-154l-14 72q-13 -13 -45 -37q-61 -45 -111 -45h-94q-81 0 -135 41q-24 18 -51.5 48t-40.5 50q-33 47 -33 115v387q0 67 33 114 q12 17 42 49.5t50 49.5q55 45 135 45h94q55 0 111 -45q18 -14 41 -37v151q0 9 -4 21q-14 29 -51 63.5t-64 47.5q-12 6 -20 6h-410q-6 0 -18 -6q-28 -15 -65.5 -50.5t-51.5 -64.5q-4 -12 -4 -21v-1022q0 -6 4 -18q14 -29 54 -68.5t63 -50.5q8 -4 18 -4l84 -2l19 -141h-113 q-52 0 -111 35q-28 16 -75 64.5t-66 76.5q-29 48 -29 106zM541 248q0 -15 4 -23q12 -23 36.5 -49.5t45.5 -38.5q12 -6 24 -6h86q7 0 19 4q31 15 75.5 48t59.5 61q2 4 2 14v371l-2 6q-15 29 -60 60.5t-75 43.5q-12 4 -19 4h-86q-12 0 -24 -6q-20 -10 -45 -36.5t-37 -49.5 q-4 -8 -4 -24v-379z" />
<glyph unicode="A" horiz-adv-x="1159" d="M-18 0l428 1229h221l428 -1229h-180l-93 274h-532l-94 -274h-178zM307 432h426l-213 625z" />
<glyph unicode="B" horiz-adv-x="1136" d="M84 0v1229h578q75 0 137 -45q22 -15 59 -51.5t49 -55.5q33 -46 33 -119v-149q0 -62 -22.5 -99t-75.5 -87q53 -50 75.5 -87.5t22.5 -99.5v-170q0 -64 -33 -114q-12 -19 -49 -56.5t-59 -52.5q-59 -43 -137 -43h-578zM252 160h407q27 0 61.5 32t47.5 58q4 8 4 20v164 q0 13 -4 21q-10 22 -37 49t-49 37q-2 2 -20 2h-410v-383zM252 700h410q25 0 59 32.5t47 58.5q4 8 4 22v143q0 17 -4 21q-15 28 -49 60t-60 32h-407v-369z" />
<glyph unicode="C" horiz-adv-x="1107" d="M72 276v676q0 64 30 107q21 29 70 78t78 67q64 35 117 35h272q127 0 252 -166q19 -24 57 -104l-164 -47q-16 46 -55 88t-80 67q-8 2 -16 2h-256q-11 0 -19 -4q-22 -11 -58 -45.5t-54 -64.5q-4 -6 -4 -27v-659q0 -24 43.5 -67.5t72.5 -57.5q8 -4 19 -4h256q12 0 20 4 q37 20 76 63t55 88l164 -43q-25 -65 -57 -106q-132 -166 -252 -166h-270q-55 0 -119 35q-30 18 -79.5 66t-68.5 77q-30 43 -30 108z" />
<glyph unicode="D" horiz-adv-x="1153" d="M84 0v1229h565q63 0 117 -33q28 -17 77 -67t70 -80q29 -42 29 -107v-657q0 -65 -29 -107q-19 -29 -68 -77t-79 -66q-64 -35 -117 -35h-565zM252 160h387q5 0 9 1l5 1q30 14 75.5 58.5t45.5 68.5v649q0 12 -2 16q-14 30 -53.5 65.5t-65.5 47.5q-4 2 -14 2h-387v-909z" />
<glyph unicode="E" horiz-adv-x="1046" d="M84 0v1229h754v-160h-586v-375h553v-159h-553v-375h586v-160h-754z" />
<glyph unicode="F" horiz-adv-x="1001" d="M84 0v1229h752v-160h-584v-375h553v-159h-553v-535h-168z" />
<glyph unicode="G" horiz-adv-x="1212" d="M72 276v674q0 66 30 109q21 29 70 78t78 67q64 35 119 35h315q127 0 254 -168q22 -27 57 -102l-164 -47l-20 41q-16 31 -51.5 65t-61.5 47q-8 4 -20 4h-301q-11 0 -19 -4q-25 -12 -62.5 -47t-51.5 -65q-4 -8 -4 -19v-661q0 -24 46.5 -70.5t75.5 -60.5q4 -2 17 -2h295 q10 0 18 4q29 14 75 60.5t46 70.5v254h-281v159h449v-411q0 -65 35 -287h-164q-2 15 -7.5 40.5t-6.5 31.5q-6 -5 -25 -21.5t-28.5 -23.5t-27 -17.5t-35.5 -15t-38 -4.5h-315q-55 0 -119 35q-30 18 -79.5 66t-68.5 77q-30 43 -30 108z" />
<glyph unicode="H" horiz-adv-x="1157" d="M84 0v1229h168v-535h528v535h168v-1229h-168v535h-528v-535h-168z" />
<glyph unicode="I" horiz-adv-x="456" d="M82 0v1229h168v-1229h-168z" />
<glyph unicode="J" horiz-adv-x="956" d="M-16 262l161 43q14 -35 55 -84t74 -67q8 -4 25 -4h143q9 0 17 4q27 12 74 58t47 67v950h168v-953q0 -64 -31 -108q-21 -29 -69 -77t-77 -66q-64 -35 -118 -35h-160q-131 0 -252 166q-21 31 -57 106z" />
<glyph unicode="K" horiz-adv-x="1069" d="M84 0v1229h168v-537h18l480 537h221l-559 -615l561 -614h-221l-482 535h-18v-535h-168z" />
<glyph unicode="L" horiz-adv-x="972" d="M84 0v1229h168v-1069h573v-160h-741z" />
<glyph unicode="M" horiz-adv-x="1372" d="M84 0v1229h213l328 -670l329 670h209v-1229h-164v977l-321 -660h-111l-317 660v-977h-166z" />
<glyph unicode="N" horiz-adv-x="1169" d="M84 0v1229h199l512 -948v948h166v-1229h-195l-516 938v-938h-166z" />
<glyph unicode="O" horiz-adv-x="1185" d="M74 276v674q0 69 28 109q19 29 69.5 78t80.5 67q64 35 117 35h323q55 0 119 -35q29 -17 77.5 -66.5t69.5 -78.5q31 -44 31 -109v-674q0 -64 -31 -108q-19 -29 -68 -77t-79 -66q-64 -35 -119 -35h-323q-53 0 -117 35q-30 18 -80.5 66.5t-69.5 76.5q-28 40 -28 108z M242 279q0 -21 46 -67t72 -58q8 -4 19 -4h307q11 0 19 4q29 14 72.5 57.5t43.5 67.5v667q0 11 -4 19q-16 29 -52.5 64t-59.5 46q-8 4 -19 4h-307q-11 0 -19 -4q-29 -14 -73.5 -59.5t-44.5 -69.5v-667z" />
<glyph unicode="P" horiz-adv-x="1101" d="M84 0v1229h578q78 0 137 -43q22 -15 59 -52.5t49 -56.5q35 -53 35 -116v-185q0 -61 -35 -114q-12 -19 -50 -56.5t-60 -52.5q-56 -41 -135 -41h-410v-512h-168zM252 672h407q25 0 58.5 28t50.5 54q6 9 6 26v178q0 11 -4 23q-6 20 -42.5 53.5t-57.5 34.5h-13h-405v-397z " />
<glyph unicode="Q" horiz-adv-x="1187" d="M74 276v674q0 69 28 109q19 29 69.5 78t80.5 67q64 35 117 35h323q55 0 119 -35q29 -17 77.5 -66.5t69.5 -78.5q31 -44 31 -109v-674q0 -64 -31 -108q-19 -29 -68 -77t-79 -66q-48 -25 -90 -33h-4l78 -180h-177l-73 178h-176q-53 0 -117 35q-30 18 -80.5 66.5t-69.5 76.5 q-28 40 -28 108zM242 279q0 -21 46 -67t72 -58q8 -4 19 -4h96l-18 47l153 51l41 -98h35q11 0 19 4q29 14 72.5 57.5t43.5 67.5v667q0 11 -4 19q-16 29 -52.5 64t-59.5 46q-8 4 -19 4h-307q-11 0 -19 -4q-29 -14 -73.5 -59.5t-44.5 -69.5v-667z" />
<glyph unicode="R" horiz-adv-x="1177" d="M84 0v1229h578q78 0 137 -43q22 -15 59 -52.5t49 -56.5q35 -53 35 -116v-185q0 -61 -35 -114q-12 -19 -49 -56.5t-59 -52.5q-47 -34 -92 -37l299 -516h-183l-288 512h-283v-512h-168zM252 672h407q26 0 63.5 31t49.5 55q2 4 2 22v176q0 21 -2 23q-11 21 -45.5 55 t-54.5 35h-13h-407v-397z" />
<glyph unicode="S" horiz-adv-x="1167" d="M43 262l162 43l18 -37q19 -33 55 -67t62 -47q8 -4 18 -4h328q8 0 16 4q30 14 74.5 57.5t44.5 67.5v124q0 24 -14 44.5t-33 25.5l-557 143q-68 18 -106.5 78t-38.5 131v125q0 69 28 109q19 29 69.5 78t80.5 67q64 35 117 35h301q127 0 252 -166q19 -24 57 -104l-164 -47 l-20 41q-16 31 -53 65.5t-64 48.5q-6 2 -14 2h-285q-7 0 -19 -4q-26 -12 -72 -57.5t-46 -67.5v-116q0 -23 13 -42t32 -24l555 -147q67 -18 108 -76.5t41 -128.5v-140q0 -68 -28 -108q-19 -28 -69.5 -76.5t-80.5 -66.5q-64 -35 -117 -35h-342q-130 0 -254 166q-16 22 -55 106 z" />
<glyph unicode="T" horiz-adv-x="1032" d="M16 1069v160h869v-160h-350v-1069h-168v1069h-351z" />
<glyph unicode="U" horiz-adv-x="1134" d="M74 274v955h168v-950q0 -21 48 -67t75 -58q8 -4 16 -4h254q10 0 18 4q26 12 71.5 58.5t45.5 66.5v950h168v-955q0 -64 -29 -106q-19 -29 -68 -77t-79 -66q-64 -35 -117 -35h-274q-55 0 -119 35q-30 18 -79.5 66t-68.5 77q-30 43 -30 106z" />
<glyph unicode="V" horiz-adv-x="1107" d="M-31 1229h178l340 -1049l340 1049h179l-408 -1229h-221z" />
<glyph unicode="W" horiz-adv-x="1503" d="M-23 1229h175l215 -1006l227 1006h194l228 -1006l215 1006h174l-283 -1229h-211l-219 954l-221 -954h-211z" />
<glyph unicode="X" d="M-20 0l399 627l-381 602h184l287 -459l289 459h184l-381 -602l400 -627h-187l-305 483l-303 -483h-186z" />
<glyph unicode="Y" horiz-adv-x="1024" d="M-45 1229h184l314 -537q-2 -1 76.5 133.5t157.5 268.5l79 135h182l-413 -707v-522h-168v522z" />
<glyph unicode="Z" horiz-adv-x="1026" d="M72 0v129l594 940h-594v160h794v-133l-579 -936h579v-160h-794z" />
<glyph unicode="[" horiz-adv-x="645" d="M53 0v1229h367v-148h-203v-934h203v-147h-367z" />
<glyph unicode="\" horiz-adv-x="884" d="M10 1229h174l668 -1229h-176z" />
<glyph unicode="]" horiz-adv-x="665" d="M94 0v147h203v934h-203v148h367v-1229h-367z" />
<glyph unicode="^" horiz-adv-x="704" d="M-4 633l207 596h166l206 -596h-143l-145 446l-150 -446h-141z" />
<glyph unicode="_" horiz-adv-x="946" d="M43 -31h791v-147h-791v147z" />
<glyph unicode="`" horiz-adv-x="780" d="M166 1300h201l174 -225l-152 -41z" />
<glyph unicode="a" horiz-adv-x="987" d="M16 244v39q0 70 35 116q13 18 43.5 49t52.5 48q53 39 140 39h331v100q0 17 -6 27q-12 20 -37 42t-47 33q-12 6 -24 6h-193q-43 0 -94 -69l-27 -37l-149 45q18 43 60 95.5t75 76.5q56 39 141 39h189q85 0 141 -41q23 -17 54.5 -48t43.5 -48q33 -46 33 -119v-475l17 -162 h-158l-10 70q-94 -80 -160 -80h-180q-84 0 -140 41q-23 17 -53.5 47.5t-42.5 48.5q-35 46 -35 117zM176 246q0 -13 4 -21q10 -21 35 -44t49 -36q18 -6 25 -6h172q10 0 18 4q33 15 76 45t63 58v143h-329q-13 0 -25 -4q-23 -12 -48.5 -37.5t-35.5 -46.5q-4 -8 -4 -20v-35z" />
<glyph unicode="b" horiz-adv-x="1003" d="M51 0l15 164v1065h159v-414q86 78 158 78h160q83 0 139 -41q22 -16 53.5 -49t44.5 -51q35 -46 35 -119v-383q0 -70 -35 -119q-12 -18 -43.5 -49.5t-54.5 -48.5q-59 -43 -139 -43h-160q-74 0 -164 86l-8 -76h-160zM225 256q18 -26 77 -71.5t87 -45.5h152q12 0 24 6 q22 11 49 37.5t37 48.5q4 8 4 23v375q0 14 -4 22q-11 22 -38 50t-48 38q-8 4 -24 4h-152q-29 0 -87.5 -44t-76.5 -70v-373z" />
<glyph unicode="c" horiz-adv-x="976" d="M53 246v391q0 71 33 117q12 18 43.5 49.5t54.5 48.5q56 41 142 41h202q84 0 140 -41q36 -25 77 -76.5t60 -95.5l-150 -47q-22 41 -56 75.5t-67 34.5h-204q-13 0 -25 -6q-22 -11 -49 -36t-37 -46q-4 -8 -4 -22v-383q0 -15 4 -23q10 -21 37 -46t49 -36q12 -6 25 -6h211 q6 0 24 6q52 27 96 105l150 -49q-16 -40 -39 -72q-13 -18 -43.5 -50t-52.5 -48q-56 -41 -139 -41h-209q-86 0 -142 41q-23 17 -54.5 48.5t-43.5 49.5q-33 46 -33 117z" />
<glyph unicode="d" horiz-adv-x="1009" d="M53 250v383q0 73 35 119q13 18 44.5 51t53.5 49q56 41 140 41h159q72 0 158 -78v414h160v-1065l14 -164h-160l-8 76q-90 -86 -164 -86h-159q-81 0 -140 43q-23 17 -54.5 48.5t-43.5 49.5q-35 49 -35 119zM213 254q0 -15 4 -23q10 -22 37 -48.5t49 -37.5q12 -6 25 -6h151 q28 0 87 44.5t77 70.5v373q-18 27 -76.5 71.5t-87.5 44.5h-151q-17 0 -25 -4q-21 -10 -48 -38t-38 -50q-4 -8 -4 -22v-375z" />
<glyph unicode="e" horiz-adv-x="989" d="M53 246v391q0 71 35 117q12 18 43.5 49.5t54.5 48.5q56 41 142 41h204q86 0 142 -41q23 -17 54.5 -48.5t43.5 -49.5q33 -46 33 -117v-264h-592v-123q0 -15 4 -23q10 -20 35 -45.5t49 -36.5q12 -6 27 -6h207q12 0 24 6q21 10 47 35.5t37 46.5l12 23l150 -49 q-21 -47 -59 -95.5t-76 -74.5q-56 -41 -140 -41h-202q-86 0 -142 41q-23 17 -54.5 48.5t-43.5 49.5q-35 46 -35 117zM213 518h432v115q0 18 -2 22q-10 21 -37.5 46t-50.5 36q-12 6 -25 6h-202q-16 0 -25 -6q-66 -37 -86 -82q-4 -4 -4 -22v-115z" />
<glyph unicode="f" horiz-adv-x="696" d="M-4 733v150h145v98q0 73 33 119q12 18 43.5 49.5t54.5 48.5q59 41 142 41h166v-149h-164q-24 0 -31 -5q-21 -11 -52 -41.5t-32 -48.5v-18v-94h248v-150h-248v-733h-160v733h-145z" />
<glyph unicode="g" horiz-adv-x="1034" d="M53 250v383q0 73 33 119q13 18 44.5 51t53.5 49q56 41 142 41h168q70 0 165 -86l9 76h159l-16 -166v-811q0 -73 -33 -119q-12 -18 -43.5 -49.5t-54.5 -48.5q-59 -43 -141 -43h-205q-80 0 -139 43q-37 26 -78.5 77t-59.5 95l150 49q18 -37 56 -76t69 -39h205q12 0 24 6 q21 11 55 43.5t35 49.5v16v158q-86 -78 -157 -78h-168q-86 0 -142 41q-22 16 -53.5 49t-44.5 51q-33 46 -33 119zM211 254q0 -15 4 -23q11 -22 38.5 -49.5t49.5 -38.5q8 -4 25 -4h159q15 0 19 2q34 18 80 54t67 63v367q-27 31 -82.5 74.5t-83.5 43.5h-159q-7 0 -25 -6 q-23 -13 -50.5 -39t-37.5 -47q-4 -8 -4 -22v-375z" />
<glyph unicode="h" horiz-adv-x="980" d="M51 0v1229h160v-416q89 80 158 80h141q80 0 139 -43q22 -17 54 -49.5t45 -50.5q34 -48 34 -117v-633h-159v629q0 12 -5 22q-11 22 -38 50t-48 38q-8 4 -24 4h-133q-31 0 -88.5 -45t-75.5 -73v-1v-1v-1v-1v-1v-1v-1v-1v-1v-1v-1v-1v-1v-1v-1v-1v-1v-1v-1v-1v-1v-1v-1v-1 v-1v-1v-1v-1v-1v-1v-1v-1v-1v-1v-1v-1v-1v-1v-1v-1v-1v-1v-1v-1v-1v-1v-1v-1v-1v-1v-1v-1v-1v-1v-1v-1v-1v-1v-1v-1v-1v-1v-1v-1v-1v-1v-1v-1v-1v-1v-1v-1v-1v-1v-1v-1v-1v-1v-1v-1v-1v-1v-1v-1v-1v-1v-1v-1v-1v-1v-1v-1v-1v-1v-1v-1v-1v-1v-1v-1v-1v-1v-2v-1v-1v-1v-1v-1 v-1v-1v-1v-1v-1v-1v-1v-1v-1v-1v-1v-1v-1v-2v-1v-1v-1v-1v-1v-1v-1v-1v-2v-1v-1v-1v-1v-1v-1v-1v-2v-1v-1v-1v-1v-1v-2v-1v-1v-1v-1v-1v-2v-1v-1v-1v-1v-2v-1v-1v-1v-1v-2v-1v-1v-1v-1v-2v-1v-1v-1v-2v-1v-1v-1v-2v-1v-1v-1v-2v-1v-1v-2v-1v-1v-1v-2v-1v-1v-2v-1v-1v-1v-2 v-1v-1v-2v-1v-1v-2v-1v-1v-2v-1v-1v-2v-1v-1v-2v-1v-1v-2v-1v-1v-2v-1v-2v-1v-1v-2v-1v-1v-2v-1v-2v-1v-1v-2v-1v-2v-1v-1v-2v-1v-2v-1v-1v-2v-1v-2v-1v-2v-1v-1v-2v-1v-2v-1v-2v-1v-2v-1v-1v-2v-1v-2v-1v-2v-1v-2v-1v-2v-1v-2v-1v-2v-1v-2v-1v-2v-1v-2v-1v-2v-1v-2v-1v-2 v-1v-2v-1v-2v-1v-2v-1v-2v-2v-1v-2v-1v-2v-1v-2v-1v-2v-2v-1v-2v-1v-2v-1v-2v-2v-1v-2v-1v-2v-1v-2v-2v-1v-2v-1v-2v-2v-1v-2v-1v-2v-2v-1v-2v-2v-1v-2v-1v-2v-2v-1v-2v-2v-1v-2v-2v-1v-2v-2v-1v-2v-1v-2v-2v-1v-2v-2v-2v-1v-2v-2v-1v-2v-2v-1v-2v-2v-1v-2v-2v-1v-2v-2v-2 v-1v-2v-2v-1v-2v-2v-2v-1v-2v-2v-2v-1v-2v-2v-1v-2v-2v-2v-1v-2v-2v-2v-1v-2v-2v-2v-2v-1v-2v-2v-2v-1v-2v-2v-2v-2v-1v-2v-2v-2v-2v-1v-2v-2v-2v-2v-1v-2v-2v-2v-2v-2v-1v-2v-2v-2v-2v-2v-1v-2v-2v-2v-2v-2v-1v-2v-2v-2v-2v-2v-2v-2v-1v-2v-2v-2v-2v-2v-2v-2v-1v-2v-2v-2 v-2v-9h-160z" />
<glyph unicode="i" horiz-adv-x="442" d="M59 1065v182h185v-182h-185zM72 0v883h159v-883h-159z" />
<glyph unicode="j" horiz-adv-x="460" d="M-147 -205q152 2 157 6q21 12 46.5 39t37.5 51q4 8 4 23v969h160v-975q0 -70 -35 -119q-13 -18 -44.5 -51t-53.5 -49q-27 -19 -74 -30t-86 -11h-112v147zM86 1065v182h184v-182h-184z" />
<glyph unicode="k" horiz-adv-x="921" d="M55 0v1229h160v-688h25l331 342h213l-399 -414l438 -469h-215l-366 391h-27v-391h-160z" />
<glyph unicode="l" horiz-adv-x="454" d="M72 133v1096h157v-1071l21 -158h-160z" />
<glyph unicode="m" horiz-adv-x="1472" d="M51 883h160l8 -74q93 84 160 84h123h9q64 0 112 -39q13 -10 33.5 -39t27.5 -37q31 31 113 84q60 31 104 31h137q50 0 105 -41q23 -17 54.5 -48.5t43.5 -49.5q33 -46 33 -117v-637h-160v633q0 14 -4 22q-10 21 -34.5 45.5t-47.5 36.5q-9 6 -29 6h-92q-27 0 -81 -39 t-72 -63v-4v-637h-158v633q0 14 -4 22q-10 21 -35.5 46.5t-48.5 37.5q-6 4 -29 4h-94h-14q-52 -4 -146 -114v-629h-159v719z" />
<glyph unicode="n" horiz-adv-x="1003" d="M51 883h160l8 -72q91 82 160 82h153q86 0 142 -41q23 -17 54.5 -48.5t43.5 -49.5q33 -46 33 -117v-637h-160v633q0 18 -2 22q-10 21 -38 47t-50 37q-8 4 -25 4h-145q-27 0 -83.5 -41t-74.5 -65v-637h-159v719z" />
<glyph unicode="o" horiz-adv-x="991" d="M53 246v391q0 71 33 117q12 18 43.5 49.5t54.5 48.5q56 41 142 41h204q86 0 142 -41q23 -17 54.5 -48.5t43.5 -49.5q33 -46 33 -117v-391q0 -71 -33 -117q-12 -18 -43.5 -49.5t-54.5 -48.5q-56 -41 -142 -41h-204q-86 0 -142 41q-23 17 -54.5 48.5t-43.5 49.5 q-33 46 -33 117zM213 250q0 -15 4 -23q10 -21 37.5 -46t50.5 -36q12 -6 25 -6h198q13 0 25 6q19 10 48 36t38 42q4 8 4 27v383q0 20 -6 29q-29 43 -80 73q-12 8 -29 8h-198q-13 0 -25 -6q-22 -11 -49 -36t-39 -46q-4 -8 -4 -22v-383z" />
<glyph unicode="p" horiz-adv-x="1009" d="M51 883h160l8 -76q90 86 164 86h160q80 0 139 -43q23 -17 54.5 -48.5t43.5 -49.5q35 -49 35 -119v-383q0 -73 -35 -119q-13 -18 -44.5 -51t-53.5 -49q-56 -41 -139 -41h-160q-72 0 -158 78v-422h-159v1073zM225 256q18 -28 76.5 -72.5t87.5 -44.5h152q12 0 24 4 q22 12 49 39.5t37 48.5q4 8 4 23v375q0 18 -4 22q-12 22 -38 48t-48 38q-18 6 -24 6h-152q-28 0 -87 -44t-77 -70v-373z" />
<glyph unicode="q" horiz-adv-x="999" d="M53 250v383q0 70 35 119q12 18 43.5 49.5t54.5 48.5q59 43 140 43h159q74 0 164 -86l8 76h160l-14 -164v-1073h-160v422q-86 -78 -158 -78h-159q-84 0 -140 41q-22 16 -53.5 49t-44.5 51q-35 46 -35 119zM213 254q0 -15 4 -23q11 -22 38 -50t48 -38q8 -4 25 -4h151 q29 0 87.5 44t76.5 71v373q-18 26 -77 71t-87 45h-151q-13 0 -25 -6q-22 -11 -48.5 -37.5t-37.5 -48.5q-4 -8 -4 -22v-375z" />
<glyph unicode="r" horiz-adv-x="851" d="M51 883h158l10 -72q86 82 162 82h113q86 0 139 -39q35 -25 76.5 -77.5t60.5 -96.5l-152 -45q-22 41 -54.5 74.5t-65.5 33.5h-111q-30 0 -87.5 -41.5t-74.5 -68.5v-633h-159v719z" />
<glyph unicode="s" horiz-adv-x="960" d="M8 201l154 51q15 -31 44.5 -65t51.5 -44q8 -4 25 -4h247q53 0 103 78q6 9 6 27v67q0 18 -15.5 33t-39.5 16l-340 23q-84 6 -142.5 63t-58.5 138v59q0 68 35 117q13 20 40.5 49t49.5 43q59 41 139 41h213q80 0 139 -41q83 -60 142 -170l-154 -51q-23 41 -57.5 76.5 t-63.5 35.5h-219q-16 0 -24 -4q-43 -21 -74 -69q-6 -9 -6 -27v-59q0 -18 14.5 -33t38.5 -16l340 -25q85 -6 144 -63t59 -138v-69q0 -65 -37 -117q-13 -20 -40.5 -49t-49.5 -43q-59 -41 -140 -41h-245q-81 0 -140 41q-35 24 -74.5 73t-64.5 97z" />
<glyph unicode="t" horiz-adv-x="700" d="M-18 733v150h145v346h160v-346h270v-150h-270v-469q0 -18 4 -26q11 -22 35.5 -47t46.5 -35q12 -6 28 -6h144v-150h-146q-83 0 -139 41q-22 16 -53.5 49t-44.5 51q-35 49 -35 119v473h-145z" />
<glyph unicode="u" horiz-adv-x="999" d="M53 248v635h160v-631q0 -19 2 -23q12 -22 39 -47.5t49 -36.5q8 -4 25 -4h145q27 0 83.5 40.5t74.5 64.5v637h160v-719l16 -164h-160l-8 72q-89 -80 -160 -80h-153q-86 0 -142 41q-23 17 -54.5 48.5t-43.5 49.5q-33 46 -33 117z" />
<glyph unicode="v" horiz-adv-x="882" d="M-29 883h172l230 -695l229 695h170l-303 -883h-190z" />
<glyph unicode="w" horiz-adv-x="1372" d="M-35 883h170l197 -686l188 686h195l196 -686l189 686h168l-262 -883h-191l-199 651l-190 -651h-190z" />
<glyph unicode="x" horiz-adv-x="919" d="M-14 0l309 453l-299 430h194l199 -305l193 305h194l-293 -430l310 -453h-191l-213 319l-213 -319h-190z" />
<glyph unicode="y" horiz-adv-x="880" d="M-29 883h172l230 -686l231 686h166l-424 -1237h-160l119 354h-31z" />
<glyph unicode="z" horiz-adv-x="909" d="M37 733v150h686v-127l-457 -606h479v-150h-692v125l457 608h-473z" />
<glyph unicode="{" horiz-adv-x="714" d="M55 279v671q0 67 29 109q21 30 69 79t76 66q64 35 119 35h137v-160h-127q-5 0 -10 -1l-4 -1q-23 -11 -62 -47.5t-57 -66.5q-2 -2 -2 -17v-665q0 -24 45.5 -68.5t75.5 -58.5l4 -1q5 -1 10 -1h127v-160h-137q-53 0 -117 35q-30 18 -80 66.5t-69 76.5q-27 39 -27 109z" />
<glyph unicode="|" horiz-adv-x="425" d="M68 -193v1594h157v-1594h-157z" />
<glyph unicode="}" horiz-adv-x="733" d="M94 -8v160h127q5 0 10 1l5 1q27 12 74.5 59t47.5 68v665q0 24 -46.5 70.5t-75.5 60.5l-5 1q-5 1 -10 1h-127v160h137q55 0 119 -35q29 -18 78 -67t70 -78q28 -40 28 -109v-671q0 -69 -28 -109q-19 -28 -69.5 -76.5t-80.5 -66.5q-64 -35 -117 -35h-137z" />
<glyph unicode="~" horiz-adv-x="931" d="M49 567l168 47q23 -56 84 -47l162 29q92 18 172 -18.5t113 -120.5l-166 -47q-24 56 -84 47l-162 -29q-93 -18 -173.5 18.5t-113.5 120.5z" />
<glyph unicode="&#xa1;" horiz-adv-x="503" d="M82 1028v201h209v-201h-209zM104 0v891h160v-891h-160z" />
<glyph unicode="&#xa2;" horiz-adv-x="997" d="M53 246v391q0 71 33 117q12 18 43.5 49.5t54.5 48.5q56 41 142 41h51v336h117v-336h55q83 0 139 -41q36 -25 77 -76.5t60 -95.5l-149 -47q-22 41 -56 75.5t-67 34.5h-59v-604h65q7 0 25 6q52 27 96 105l149 -49q-17 -43 -38 -72q-13 -18 -44 -49.5t-53 -48.5 q-56 -41 -139 -41h-61v-348h-117v348h-51q-86 0 -142 41q-23 17 -54.5 48.5t-43.5 49.5q-33 46 -33 117zM213 250q0 -19 4 -23q12 -21 37.5 -45t48.5 -37q18 -6 25 -6h49v604h-49q-7 0 -25 -6q-23 -13 -48.5 -37t-37.5 -45q-4 -4 -4 -22v-383z" />
<glyph unicode="&#xa3;" horiz-adv-x="1214" d="M57 309v150h84v102h-84v150h84v231q0 65 29 107q21 29 69.5 78.5t77.5 66.5q64 35 117 35h242v-160h-232q-5 0 -10 -1l-4 -1q-22 -11 -60.5 -48t-56.5 -67q-2 -2 -2 -241h465v-150h-465v-102h465v-150h-465v-149h410l16 2q27 14 64 48.5t53 65.5q4 8 20 41l162 -47 q-20 -46 -59 -102q-125 -168 -250 -168h-586v309h-84z" />
<glyph unicode="&#xa4;" horiz-adv-x="1146" d="M121 891l106 104l86 -88q35 15 74 15h236q37 0 71 -15l90 90l105 -104l-86 -86q28 -48 28 -107v-127q0 -58 -30 -110l92 -88l-107 -105l-96 95q-32 -13 -67 -13h-236q-40 0 -65 10l-95 -94l-104 107l86 86q-31 48 -31 112v127q0 55 27 107zM315 580q0 -11 4 -19 q9 -17 29 -37t35 -28q8 -4 18 -4h207q15 0 19 4q16 8 36 28t27 37q6 12 6 19v116q0 1 -6 19q-7 15 -30.5 40.5t-36.5 26.5h-222q-14 0 -18 -2q-14 -7 -34 -28t-30 -37q-4 -12 -4 -19v-116z" />
<glyph unicode="&#xa5;" horiz-adv-x="995" d="M-6 1229h184l297 -506q-2 -1 72.5 125.5t149.5 253.5l75 127h182l-317 -520h201v-152h-281v-108h281v-148h-281v-301h-168v301h-291v148h291v108h-291v152h205z" />
<glyph unicode="&#xa6;" horiz-adv-x="385" d="M68 -193v699h157v-699h-157zM68 705v698h157v-698h-157z" />
<glyph unicode="&#xa7;" horiz-adv-x="1044" d="M43 203l152 51q42 -78 94 -109q12 -6 26 -6h295q15 0 27 6q47 26 76 78q4 12 4 15v26q0 18 -15.5 30.5t-39.5 14.5l-310 17q-78 3 -125 34q-19 12 -59 49t-57 58q-43 55 -43 133v21q0 55 20.5 96t63.5 82q-52 33 -73 77t-26 109q-5 61 35 119q39 54 90 92q59 43 139 43 h293q81 0 140 -43q36 -26 77.5 -76.5t59.5 -95.5l-150 -49q-42 79 -98 110q-7 5 -25 5h-295q-12 0 -22 -5q-27 -15 -56 -45.5t-28 -54.5q4 -70 59 -72l295 -14q106 -4 156 -37q19 -12 58.5 -48.5t56.5 -57.5q43 -55 43 -135v-21q0 -78 -43 -133q-10 -12 -47 -49 q86 -62 86 -158v-27q0 -59 -35 -108q-12 -19 -39.5 -47t-50.5 -45q-59 -43 -140 -43h-293q-80 0 -139 43q-22 16 -52.5 48.5t-43.5 51.5q-20 27 -41 70zM225 602q0 -14 4 -22q14 -23 48.5 -61t50.5 -38q3 0 10 -1t10 -1l256 -16q17 0 21 4q25 14 62.5 59.5t37.5 69.5v25 q0 16 -4 20q-14 25 -44 55.5t-52 42.5q-8 4 -23 4l-258 13q-15 3 -20 -2q-21 -10 -50 -44t-45 -63q-4 -4 -4 -22v-23z" />
<glyph unicode="&#xa8;" horiz-adv-x="743" d="M162 1065v182h170v-182h-170zM492 1065v182h170v-182h-170z" />
<glyph unicode="&#xa9;" horiz-adv-x="1323" d="M53 283v667q0 65 29 107q21 30 70 80t77 67q64 35 117 35h516q55 0 119 -35q27 -17 67.5 -63.5t67.5 -83.5q43 -62 43 -107v-667q0 -65 -31 -109q-19 -29 -68 -77t-79 -66q-64 -35 -119 -35h-516q-53 0 -117 35q-30 18 -79 66t-68 77q-29 42 -29 109zM213 285 q0 -23 50 -72t79 -63l4 -2q5 -3 10 -3h496q5 0 10 3l4 2q30 15 81.5 63t51.5 72v661q0 9 -4 17q-19 31 -60.5 72.5t-64.5 51.5l-4 1q-5 2 -10 2h-502q-5 0 -10 -2l-4 -1q-22 -11 -64.5 -52.5t-60.5 -71.5q-2 -2 -2 -17v-661zM295 504q0 -62 35 -115q13 -20 44 -53t52 -47 q56 -41 137 -41h115q50 0 115 45q54 39 139 137l-166 37q-51 -55 -78 -68q-2 -2 -14 -2h-109h-12q-20 1 -52.5 34t-43.5 54q-4 4 -4 23v217q0 19 4 23q11 21 43.5 54t52.5 34h121q12 0 14 -2q27 -13 78 -68l166 37q-85 98 -139 137q-65 45 -115 45h-115q-81 0 -137 -41 q-21 -14 -52 -47t-44 -53q-35 -53 -35 -115v-225z" />
<glyph unicode="&#xaa;" horiz-adv-x="782" d="M96 811v231q0 56 25 93q12 15 37.5 41t42.5 38q48 33 112 33h123q39 0 82 -24v22h135v-485l21 -142h-137l-11 60q-28 -26 -68.5 -49t-62.5 -23h-82q-64 0 -112 33q-44 32 -80 78q-25 34 -25 94zM233 821q0 -13 5 -18q8 -15 28 -35t37 -27q12 -6 19 -6h90q6 0 18 6 q15 7 51 40.5t37 45.5v205q0 15 -2 19q-7 14 -28 33.5t-37 27.5q-8 4 -19 4h-110q-11 0 -19 -4q-18 -9 -38 -27.5t-27 -33.5q-5 -10 -5 -19v-211z" />
<glyph unicode="&#xab;" horiz-adv-x="1226" d="M76 516l319 324l174 -52l-280 -272l282 -272l-176 -45zM492 516l319 324l174 -52l-280 -272l282 -272l-176 -45z" />
<glyph unicode="&#xac;" horiz-adv-x="1089" d="M59 436v150l846 -2v2h2v-436h-159v286h-689z" />
<glyph unicode="&#xad;" horiz-adv-x="684" d="M53 434v150h467v-150h-467z" />
<glyph unicode="&#xae;" horiz-adv-x="1331" d="M53 283v667q0 65 29 107q21 30 70 80t77 67q64 35 117 35h516q55 0 119 -35q27 -17 67.5 -63.5t67.5 -83.5q43 -62 43 -107v-667q0 -65 -31 -109q-19 -29 -68 -77t-79 -66q-64 -35 -119 -35h-516q-53 0 -117 35q-30 18 -79 66t-68 77q-29 42 -29 109zM213 285 q0 -23 50 -72t79 -63l4 -2q5 -3 10 -3h496q5 0 10 3l4 2q30 15 81.5 63t51.5 72v661q0 9 -4 17q-19 31 -60.5 72.5t-64.5 51.5l-4 1q-5 2 -10 2h-502q-5 0 -10 -2l-4 -1q-22 -11 -64.5 -52.5t-60.5 -71.5q-2 -2 -2 -17v-661zM332 233v762h307q78 0 137 -43 q22 -15 59.5 -51.5t49.5 -54.5q7 -10 11 -19t5.5 -21.5t2 -18t0 -22.5t-0.5 -22v-22q0 -3 0.5 -30t0 -36.5t-5 -28t-13.5 -30.5q-13 -20 -49.5 -51t-71.5 -53l151 -250h-184l-117 215h-125v-224h-157zM489 606h150q27 0 63.5 25.5t47.5 48.5q4 4 4 22v43q0 17 -4 21 q-10 20 -35 41.5t-51 34.5q-12 4 -25 4h-150v-240z" />
<glyph unicode="&#xaf;" horiz-adv-x="675" d="M66 1081v146h413v-146h-413z" />
<glyph unicode="&#xb0;" horiz-adv-x="690" d="M84 1206q0 83 56 139t141 56q86 0 143 -56t57 -139q0 -84 -56.5 -139t-143.5 -55q-85 0 -141 55t-56 139zM184 1206q0 -43 28.5 -72.5t68.5 -29.5q42 0 72 30t30 72q0 41 -30.5 71t-71.5 30q-40 0 -68.5 -30t-28.5 -71z" />
<glyph unicode="&#xb1;" d="M86 -31h748v-147h-748v147zM86 436v150h305v284h160v-284h305v-150h-305v-286h-160v286h-305z" />
<glyph unicode="&#xb2;" horiz-adv-x="700" d="M23 1124q35 43 79 74q54 41 131 41h115q94 0 174 -98q31 -38 31 -94v-17q0 -59 -51 -102.5t-113 -61.5l-178 -67q-19 -8 -23 -15t-4 -26v-2h355v-140h-504v150q0 63 32.5 98.5t102.5 61.5l182 67q58 25 58 51q0 22 -20 41t-44 19h-117q-19 0 -45 -14t-43 -33z" />
<glyph unicode="&#xb3;" horiz-adv-x="716" d="M23 737l120 70q43 -47 74 -47h145q5 0 23 6q41 23 41 61q0 13 -5 22.5t-10.5 14t-18 6.5t-19 2.5t-23.5 0t-22 -0.5h-97v125h97q5 0 22 -0.5t23.5 0t19 2.5t18 6.5t10.5 14t5 22.5q0 39 -41 62q-18 6 -23 6h-145q-31 0 -74 -47l-120 70q38 47 75 73q51 39 123 39h144 q106 0 176 -86q28 -43 28 -115q0 -35 -9.5 -58t-20.5 -32.5t-29 -19.5q19 -10 29 -19t20 -32t10 -58q0 -71 -28 -114q-70 -86 -176 -86h-144q-72 0 -123 39q-37 26 -75 73z" />
<glyph unicode="&#xb4;" horiz-adv-x="759" d="M305 1069l180 231h201l-229 -272z" />
<glyph unicode="&#xb5;" horiz-adv-x="999" d="M55 -354v1237h160v-627q18 -28 76.5 -72.5t87.5 -44.5h94q27 1 84 41t74 64v639h160v-721l16 -164h-160l-8 72q-89 -80 -160 -80h-106q-72 0 -158 78v-422h-160z" />
<glyph unicode="&#xb6;" horiz-adv-x="1079" d="M59 797v164q0 63 35 116q12 18 50.5 56t60.5 53q59 43 137 43h596v-1229h-164v532h-76v-532h-161v532h-195q-81 0 -137 41q-22 15 -60.5 53t-50.5 56q-35 53 -35 115zM229 801q0 -19 4 -23q14 -27 48.5 -56.5t62.5 -29.5h193v377h-193q-22 0 -25 -2q-21 -12 -47.5 -39 t-38.5 -49q-4 -4 -4 -23v-155zM698 692h76v377h-76v-377z" />
<glyph unicode="&#xb7;" horiz-adv-x="595" d="M127 434v189h209v-189h-209z" />
<glyph unicode="&#xb8;" horiz-adv-x="831" d="M158 -354l178 262l149 -51l-145 -211h-182z" />
<glyph unicode="&#xb9;" horiz-adv-x="622" d="M63 616v123h142v367h-129v125h262v-492h137v-123h-412z" />
<glyph unicode="&#xba;" horiz-adv-x="821" d="M96 811v231q0 56 25 93q12 15 37.5 41t42.5 38q48 33 112 33h123q65 0 113 -33q38 -27 78 -79q24 -36 24 -93v-231q0 -59 -24 -94q-36 -47 -78 -78q-48 -33 -113 -33h-123q-64 0 -112 33q-18 13 -44 39t-36 39q-25 34 -25 94zM238 825q0 -10 4 -18q8 -16 26.5 -35.5 t34.5 -26.5q12 -6 19 -6h108q10 0 19 6q13 8 32 26.5t25 29.5q4 8 4 24v203q0 17 -2 23q-7 14 -26.5 31.5t-35.5 25.5q-8 4 -16 4h-108q-9 0 -17 -4q-17 -9 -36.5 -27.5t-26.5 -33.5q-4 -8 -4 -19v-203z" />
<glyph unicode="&#xbb;" horiz-adv-x="1230" d="M96 244l283 272l-281 272l174 52l320 -324l-320 -317zM512 244l283 272l-281 272l174 52l320 -324l-320 -317z" />
<glyph unicode="&#xbc;" horiz-adv-x="1370" d="M59 616v123h142v367h-129v125h262v-492h137v-123h-412zM262 0l668 1239h160l-656 -1239h-172zM676 143v115l356 375h121v-359h80v-131h-80v-141h-133v141h-344zM860 274h160v160z" />
<glyph unicode="&#xbd;" horiz-adv-x="1482" d="M63 616v123h142v367h-129v125h262v-492h137v-123h-412zM262 0l668 1239h160l-656 -1239h-172zM811 510q34 42 80 74q54 41 131 41h115q93 0 174 -99q30 -37 30 -94v-16q0 -59 -50.5 -102.5t-112.5 -61.5l-179 -68q-13 -6 -18.5 -11.5t-6.5 -10.5t-1 -19v-2h354v-139h-504 v150q0 63 32 98t103 61l183 68q57 24 57 51q0 22 -19.5 40.5t-43.5 18.5h-117q-19 0 -45 -14t-43 -33z" />
<glyph unicode="&#xbe;" horiz-adv-x="1386" d="M23 737l120 70q43 -47 74 -47h145q5 0 23 6q41 23 41 61q0 13 -5 22.5t-10.5 14t-18 6.5t-19 2.5t-23.5 0t-22 -0.5h-97v125h97q5 0 22 -0.5t23.5 0t19 2.5t18 6.5t10.5 14t5 22.5q0 39 -41 62q-18 6 -23 6h-145q-31 0 -74 -47l-120 70q38 47 75 73q51 39 123 39h144 q106 0 176 -86q28 -43 28 -115q0 -35 -9.5 -58t-20.5 -32.5t-29 -19.5q19 -10 29 -19t20 -32t10 -58q0 -71 -28 -114q-70 -86 -176 -86h-144q-72 0 -123 39q-37 26 -75 73zM279 0l667 1239h160l-655 -1239h-172zM692 143v115l357 375h120v-359h80v-131h-80v-141h-133v141 h-344zM877 274h159v160z" />
<glyph unicode="&#xbf;" horiz-adv-x="952" d="M59 260v135q0 30 8 56.5t18 46.5t31 40.5t36 33t44.5 30t45 25t49 23.5t45.5 22q51 23 51 69v152h168v-160q0 -42 -13.5 -76.5t-38.5 -60t-51 -43t-61 -35.5q-75 -34 -112 -59q-52 -34 -52 -70v-125q0 -18 4 -22q12 -22 38 -48t48 -38q12 -4 25 -4h244l16 2 q26 13 62.5 47.5t54.5 66.5q6 8 20 39l162 -43q-40 -85 -57 -106q-124 -166 -254 -166h-250q-80 0 -139 43q-22 15 -59.5 52t-49.5 56q-33 50 -33 117zM367 1030v199h206v-199h-206z" />
<glyph unicode="&#xc0;" horiz-adv-x="1159" d="M-18 0l428 1229h221l428 -1229h-180l-93 274h-532l-94 -274h-178zM307 432h426l-213 625zM326 1593h200l174 -225l-151 -41z" />
<glyph unicode="&#xc1;" horiz-adv-x="1159" d="M-18 0l428 1229h221l428 -1229h-180l-93 274h-532l-94 -274h-178zM307 432h426l-213 625zM393 1364l180 231h201l-229 -272z" />
<glyph unicode="&#xc2;" horiz-adv-x="1159" d="M-18 0l428 1229h221l428 -1229h-180l-93 274h-532l-94 -274h-178zM221 1352l215 243h168l215 -243h-192l-107 133l-106 -133h-193zM307 432h426l-213 625z" />
<glyph unicode="&#xc3;" horiz-adv-x="1159" d="M-18 0l428 1229h221l428 -1229h-180l-93 274h-532l-94 -274h-178zM205 1493l145 31q10 -26 34.5 -38t51.5 -7l144 26q85 16 157.5 -17.5t102.5 -109.5l-146 -30q-10 26 -34.5 38t-51.5 7l-143 -27q-85 -16 -157.5 17.5t-102.5 109.5zM307 432h426l-213 625z" />
<glyph unicode="&#xc4;" horiz-adv-x="1159" d="M-18 0l428 1229h221l428 -1229h-180l-93 274h-532l-94 -274h-178zM272 1391v182h170v-182h-170zM307 432h426l-213 625zM602 1391v182h170v-182h-170z" />
<glyph unicode="&#xc5;" horiz-adv-x="1159" d="M-18 0l428 1229h221l428 -1229h-180l-93 274h-532l-94 -274h-178zM307 432h426l-213 625zM322 1513q0 83 56 139t140 56q86 0 143.5 -56t57.5 -139q0 -84 -57 -139t-144 -55q-85 0 -140.5 54.5t-55.5 139.5zM422 1513q0 -43 28 -72.5t68 -29.5q42 0 72.5 30t30.5 72 q0 41 -31 71t-72 30q-40 0 -68 -30t-28 -71z" />
<glyph unicode="&#xc6;" horiz-adv-x="1542" d="M-45 0l500 1229h866v-160h-545v-375h512v-159h-512v-375h545v-160h-713v272h-358l-107 -272h-188zM303 432h305v625h-53z" />
<glyph unicode="&#xc7;" horiz-adv-x="1107" d="M72 276v676q0 64 30 107q21 29 70 78t78 67q64 35 117 35h272q127 0 252 -166q19 -24 57 -104l-164 -47q-16 46 -55 88t-80 67q-8 2 -16 2h-256q-11 0 -19 -4q-22 -11 -58 -45.5t-54 -64.5q-4 -6 -4 -27v-659q0 -24 43.5 -67.5t72.5 -57.5q8 -4 19 -4h256q12 0 20 4 q37 20 76 63t55 88l164 -43q-25 -65 -57 -106q-132 -166 -252 -166h-270q-55 0 -119 35q-30 18 -79.5 66t-68.5 77q-30 43 -30 108zM281 -354l178 262l149 -51l-145 -211h-182z" />
<glyph unicode="&#xc8;" horiz-adv-x="1046" d="M84 0v1229h754v-160h-586v-375h553v-159h-553v-375h586v-160h-754zM238 1595h200l174 -225l-151 -41z" />
<glyph unicode="&#xc9;" horiz-adv-x="1046" d="M84 0v1229h754v-160h-586v-375h553v-159h-553v-375h586v-160h-754zM303 1362l180 231h201l-229 -272z" />
<glyph unicode="&#xca;" horiz-adv-x="1046" d="M84 0v1229h754v-160h-586v-375h553v-159h-553v-375h586v-160h-754zM172 1352l215 243h168l215 -243h-192l-107 133l-106 -133h-193z" />
<glyph unicode="&#xcb;" horiz-adv-x="1046" d="M84 0v1229h754v-160h-586v-375h553v-159h-553v-375h586v-160h-754zM193 1391v182h169v-182h-169zM522 1391v182h170v-182h-170z" />
<glyph unicode="&#xcc;" horiz-adv-x="501" d="M-94 1595h200l175 -225l-152 -41zM72 0v1229h168v-1229h-168z" />
<glyph unicode="&#xcd;" horiz-adv-x="501" d="M63 1364l181 231h200l-229 -272zM72 0v1229h168v-1229h-168z" />
<glyph unicode="&#xce;" horiz-adv-x="501" d="M-147 1352l215 243h168l215 -243h-193l-106 133l-107 -133h-192zM72 0v1229h168v-1229h-168z" />
<glyph unicode="&#xcf;" horiz-adv-x="501" d="M-94 1391v182h170v-182h-170zM72 0v1229h168v-1229h-168zM236 1391v182h170v-182h-170z" />
<glyph unicode="&#xd0;" horiz-adv-x="1202" d="M-23 543v141h154v545h565q63 0 117 -33q29 -17 78 -67t70 -80q28 -40 28 -107v-657q0 -67 -28 -107q-19 -29 -68.5 -77t-79.5 -66q-64 -35 -117 -35h-565v543h-154zM299 160h387q5 0 10 1l4 1q30 14 75.5 58.5t45.5 68.5v649q0 12 -2 16q-14 30 -53.5 65.5t-65.5 47.5 q-4 2 -14 2h-387v-385h256v-141h-256v-383z" />
<glyph unicode="&#xd1;" horiz-adv-x="1169" d="M84 0v1229h199l512 -948v948h166v-1229h-195l-516 938v-938h-166zM215 1493l145 31q10 -26 34.5 -38t51.5 -7l144 26q85 16 157.5 -17.5t102.5 -109.5l-145 -30q-10 25 -35 37.5t-52 7.5l-143 -27q-85 -16 -157.5 17.5t-102.5 109.5z" />
<glyph unicode="&#xd2;" horiz-adv-x="1185" d="M74 276v674q0 69 28 109q19 29 69.5 78t80.5 67q64 35 117 35h323q55 0 119 -35q29 -17 77.5 -66.5t69.5 -78.5q31 -44 31 -109v-674q0 -64 -31 -108q-19 -29 -68 -77t-79 -66q-64 -35 -119 -35h-323q-53 0 -117 35q-30 18 -80.5 66.5t-69.5 76.5q-28 40 -28 108z M242 279q0 -21 46 -67t72 -58q8 -4 19 -4h307q11 0 19 4q29 14 72.5 57.5t43.5 67.5v667q0 11 -4 19q-16 29 -52.5 64t-59.5 46q-8 4 -19 4h-307q-11 0 -19 -4q-29 -14 -73.5 -59.5t-44.5 -69.5v-667zM309 1597h201l174 -225l-152 -41z" />
<glyph unicode="&#xd3;" horiz-adv-x="1185" d="M74 276v674q0 69 28 109q19 29 69.5 78t80.5 67q64 35 117 35h323q55 0 119 -35q29 -17 77.5 -66.5t69.5 -78.5q31 -44 31 -109v-674q0 -64 -31 -108q-19 -29 -68 -77t-79 -66q-64 -35 -119 -35h-323q-53 0 -117 35q-30 18 -80.5 66.5t-69.5 76.5q-28 40 -28 108z M242 279q0 -21 46 -67t72 -58q8 -4 19 -4h307q11 0 19 4q29 14 72.5 57.5t43.5 67.5v667q0 11 -4 19q-16 29 -52.5 64t-59.5 46q-8 4 -19 4h-307q-11 0 -19 -4q-29 -14 -73.5 -59.5t-44.5 -69.5v-667zM391 1366l180 231h201l-229 -272z" />
<glyph unicode="&#xd4;" horiz-adv-x="1185" d="M74 276v674q0 69 28 109q19 29 69.5 78t80.5 67q64 35 117 35h323q55 0 119 -35q29 -17 77.5 -66.5t69.5 -78.5q31 -44 31 -109v-674q0 -64 -31 -108q-19 -29 -68 -77t-79 -66q-64 -35 -119 -35h-323q-53 0 -117 35q-30 18 -80.5 66.5t-69.5 76.5q-28 40 -28 108z M233 1354l216 243h167l215 -243h-192l-107 133l-106 -133h-193zM242 279q0 -21 46 -67t72 -58q8 -4 19 -4h307q11 0 19 4q29 14 72.5 57.5t43.5 67.5v667q0 11 -4 19q-16 29 -52.5 64t-59.5 46q-8 4 -19 4h-307q-11 0 -19 -4q-29 -14 -73.5 -59.5t-44.5 -69.5v-667z" />
<glyph unicode="&#xd5;" horiz-adv-x="1185" d="M74 276v674q0 69 28 109q19 29 69.5 78t80.5 67q64 35 117 35h323q55 0 119 -35q29 -17 77.5 -66.5t69.5 -78.5q31 -44 31 -109v-674q0 -64 -31 -108q-19 -29 -68 -77t-79 -66q-64 -35 -119 -35h-323q-53 0 -117 35q-30 18 -80.5 66.5t-69.5 76.5q-28 40 -28 108z M219 1495l146 31q10 -26 34.5 -38t51.5 -7l143 26q85 16 157.5 -17.5t102.5 -109.5l-145 -30q-10 26 -34.5 38t-51.5 7l-144 -27q-85 -16 -157.5 17.5t-102.5 109.5zM242 279q0 -21 46 -67t72 -58q8 -4 19 -4h307q11 0 19 4q29 14 72.5 57.5t43.5 67.5v667q0 11 -4 19 q-16 29 -52.5 64t-59.5 46q-8 4 -19 4h-307q-11 0 -19 -4q-29 -14 -73.5 -59.5t-44.5 -69.5v-667z" />
<glyph unicode="&#xd6;" horiz-adv-x="1185" d="M74 276v674q0 69 28 109q19 29 69.5 78t80.5 67q64 35 117 35h323q55 0 119 -35q29 -17 77.5 -66.5t69.5 -78.5q31 -44 31 -109v-674q0 -64 -31 -108q-19 -29 -68 -77t-79 -66q-64 -35 -119 -35h-323q-53 0 -117 35q-30 18 -80.5 66.5t-69.5 76.5q-28 40 -28 108z M242 279q0 -21 46 -67t72 -58q8 -4 19 -4h307q11 0 19 4q29 14 72.5 57.5t43.5 67.5v667q0 11 -4 19q-16 29 -52.5 64t-59.5 46q-8 4 -19 4h-307q-11 0 -19 -4q-29 -14 -73.5 -59.5t-44.5 -69.5v-667zM272 1391v182h170v-182h-170zM602 1391v182h170v-182h-170z" />
<glyph unicode="&#xd7;" d="M88 770l107 104l258 -256l258 259l104 -105l-256 -260l260 -258l-106 -104l-260 258l-258 -261l-105 107l258 258z" />
<glyph unicode="&#xd8;" horiz-adv-x="1206" d="M74 276v674q0 69 28 109q19 29 69.5 78t80.5 67q64 35 117 35h344q34 0 86 -18l43 77h137l-82 -149q63 -63 82 -90q31 -44 31 -109v-674q0 -64 -31 -108q-19 -29 -68.5 -77t-79.5 -66q-64 -35 -118 -35h-344q-44 0 -97 22l-49 -88h-139l90 164q-55 51 -72 80 q-28 40 -28 108zM242 279q0 -16 18 -37l459 835q-1 0 -5 1t-7 1h-328q-5 0 -9 -1l-5 -1q-29 -14 -76 -60.5t-47 -70.5v-667zM352 158l13 -6l5 -1q4 -1 9 -1h328q5 0 9 1l5 1q30 14 75.5 58.5t45.5 68.5v667q0 15 -2 17q-3 6 -27 34z" />
<glyph unicode="&#xd9;" horiz-adv-x="1128" d="M74 274v955h168v-950q0 -21 48 -67t75 -58q8 -4 16 -4h254q10 0 18 4q26 12 71.5 58.5t45.5 66.5v950h168v-955q0 -64 -29 -106q-19 -29 -68 -77t-79 -66q-64 -35 -117 -35h-274q-55 0 -119 35q-30 18 -79.5 66t-68.5 77q-30 43 -30 106zM268 1597h201l174 -225l-151 -41 z" />
<glyph unicode="&#xda;" horiz-adv-x="1128" d="M74 274v955h168v-950q0 -21 48 -67t75 -58q8 -4 16 -4h254q10 0 18 4q26 12 71.5 58.5t45.5 66.5v950h168v-955q0 -64 -29 -106q-19 -29 -68 -77t-79 -66q-64 -35 -117 -35h-274q-55 0 -119 35q-30 18 -79.5 66t-68.5 77q-30 43 -30 106zM373 1366l180 231h201l-230 -272 z" />
<glyph unicode="&#xdb;" horiz-adv-x="1128" d="M74 274v955h168v-950q0 -21 48 -67t75 -58q8 -4 16 -4h254q10 0 18 4q26 12 71.5 58.5t45.5 66.5v950h168v-955q0 -64 -29 -106q-19 -29 -68 -77t-79 -66q-64 -35 -117 -35h-274q-55 0 -119 35q-30 18 -79.5 66t-68.5 77q-30 43 -30 106zM213 1354l215 243h168l215 -243 h-193l-106 133l-106 -133h-193z" />
<glyph unicode="&#xdc;" horiz-adv-x="1134" d="M74 274v955h168v-950q0 -21 48 -67t75 -58q8 -4 16 -4h254q10 0 18 4q26 12 71.5 58.5t45.5 66.5v950h168v-955q0 -64 -29 -106q-19 -29 -68 -77t-79 -66q-64 -35 -117 -35h-274q-55 0 -119 35q-30 18 -79.5 66t-68.5 77q-30 43 -30 106zM252 1391v182h170v-182h-170z M582 1391v182h170v-182h-170z" />
<glyph unicode="&#xdd;" horiz-adv-x="1040" d="M-37 1229h184l314 -537q-2 -1 76.5 133.5t157.5 268.5l79 135h182l-413 -707v-522h-168v522zM328 1364l180 231h201l-230 -272z" />
<glyph unicode="&#xde;" horiz-adv-x="1089" d="M68 0v1227h168v-250h409q78 0 137 -43q22 -15 59.5 -52.5t49.5 -56.5q35 -53 35 -116v-185q0 -61 -35 -114q-12 -18 -50.5 -56t-60.5 -53q-56 -41 -135 -41h-409v-260h-168zM236 420h407q25 0 61 30.5t50 55.5q4 4 4 22v179q0 18 -4 22q-11 21 -45 54t-54 34h-12h-407 v-397z" />
<glyph unicode="&#xdf;" horiz-adv-x="1085" d="M49 0l19 164v782q0 71 30 111q22 31 70.5 80.5t77.5 66.5q64 35 121 35h120q81 0 140 -41q23 -17 54.5 -48.5t43.5 -49.5q35 -49 35 -121v-31v-16q0 -66 -35 -115q-30 -40 -84 -90q-44 -44 -53 -61q-4 -4 -4 -23v-49q0 -18 14.5 -33t38.5 -16l25 -2l61 -6 q85 -8 144 -63.5t59 -135.5v-98q0 -65 -37 -117q-13 -20 -40.5 -49t-49.5 -43q-59 -41 -140 -41h-213q-67 0 -118 33l88 122q12 -6 26 -6h215q25 0 57 27.5t48 54.5q4 4 4 23v96q0 18 -16.5 32t-40.5 15l-56 4l-30 2q-84 6 -142.5 63t-58.5 138v49q0 68 35 117q21 29 86 88 q33 28 53 65q4 4 4 21v16v27q0 18 -4 22q-12 22 -38 48t-48 38q-10 5 -25 5h-114q-26 0 -76 -48.5t-64 -74.5q-4 -4 -4 -27v-811l-20 -129h-158z" />
<glyph unicode="&#xe0;" horiz-adv-x="987" d="M16 244v39q0 70 35 116q13 18 43.5 49t52.5 48q53 39 140 39h331v100q0 17 -6 27q-12 20 -37 42t-47 33q-12 6 -24 6h-193q-43 0 -94 -69l-27 -37l-149 45q18 43 60 95.5t75 76.5q56 39 141 39h189q85 0 141 -41q23 -17 54.5 -48t43.5 -48q33 -46 33 -119v-475l17 -162 h-158l-10 70q-94 -80 -160 -80h-180q-84 0 -140 41q-23 17 -53.5 47.5t-42.5 48.5q-35 46 -35 117zM166 1300h201l174 -225l-152 -41zM176 246q0 -13 4 -21q10 -21 35 -44t49 -36q18 -6 25 -6h172q10 0 18 4q33 15 76 45t63 58v143h-329q-13 0 -25 -4q-23 -12 -48.5 -37.5 t-35.5 -46.5q-4 -8 -4 -20v-35z" />
<glyph unicode="&#xe1;" horiz-adv-x="987" d="M16 244v39q0 70 35 116q13 18 43.5 49t52.5 48q53 39 140 39h331v100q0 17 -6 27q-12 20 -37 42t-47 33q-12 6 -24 6h-193q-43 0 -94 -69l-27 -37l-149 45q18 43 60 95.5t75 76.5q56 39 141 39h189q85 0 141 -41q23 -17 54.5 -48t43.5 -48q33 -46 33 -119v-475l17 -162 h-158l-10 70q-94 -80 -160 -80h-180q-84 0 -140 41q-23 17 -53.5 47.5t-42.5 48.5q-35 46 -35 117zM176 246q0 -13 4 -21q10 -21 35 -44t49 -36q18 -6 25 -6h172q10 0 18 4q33 15 76 45t63 58v143h-329q-13 0 -25 -4q-23 -12 -48.5 -37.5t-35.5 -46.5q-4 -8 -4 -20v-35z M305 1069l180 231h201l-229 -272z" />
<glyph unicode="&#xe2;" horiz-adv-x="987" d="M16 244v39q0 70 35 116q13 18 43.5 49t52.5 48q53 39 140 39h331v100q0 17 -6 27q-12 20 -37 42t-47 33q-12 6 -24 6h-193q-43 0 -94 -69l-27 -37l-149 45q18 43 60 95.5t75 76.5q56 39 141 39h189q85 0 141 -41q23 -17 54.5 -48t43.5 -48q33 -46 33 -119v-475l17 -162 h-158l-10 70q-94 -80 -160 -80h-180q-84 0 -140 41q-23 17 -53.5 47.5t-42.5 48.5q-35 46 -35 117zM125 1057l215 243h168l215 -243h-193l-106 133l-107 -133h-192zM176 246q0 -13 4 -21q10 -21 35 -44t49 -36q18 -6 25 -6h172q10 0 18 4q33 15 76 45t63 58v143h-329 q-13 0 -25 -4q-23 -12 -48.5 -37.5t-35.5 -46.5q-4 -8 -4 -20v-35z" />
<glyph unicode="&#xe3;" horiz-adv-x="987" d="M16 244v39q0 70 35 116q13 18 43.5 49t52.5 48q53 39 140 39h331v100q0 17 -6 27q-12 20 -37 42t-47 33q-12 6 -24 6h-193q-43 0 -94 -69l-27 -37l-149 45q18 43 60 95.5t75 76.5q56 39 141 39h189q85 0 141 -41q23 -17 54.5 -48t43.5 -48q33 -46 33 -119v-475l17 -162 h-158l-10 70q-94 -80 -160 -80h-180q-84 0 -140 41q-23 17 -53.5 47.5t-42.5 48.5q-35 46 -35 117zM82 1227l145 30q10 -26 34.5 -38t51.5 -7l144 27q85 16 157.5 -17.5t102.5 -109.5l-146 -31q-10 26 -34.5 38t-51.5 7l-143 -26q-85 -16 -157.5 17.5t-102.5 109.5zM176 246 q0 -13 4 -21q10 -21 35 -44t49 -36q18 -6 25 -6h172q10 0 18 4q33 15 76 45t63 58v143h-329q-13 0 -25 -4q-23 -12 -48.5 -37.5t-35.5 -46.5q-4 -8 -4 -20v-35z" />
<glyph unicode="&#xe4;" horiz-adv-x="987" d="M16 244v39q0 70 35 116q13 18 43.5 49t52.5 48q53 39 140 39h331v100q0 17 -6 27q-12 20 -37 42t-47 33q-12 6 -24 6h-193q-43 0 -94 -69l-27 -37l-149 45q18 43 60 95.5t75 76.5q56 39 141 39h189q85 0 141 -41q23 -17 54.5 -48t43.5 -48q33 -46 33 -119v-475l17 -162 h-158l-10 70q-94 -80 -160 -80h-180q-84 0 -140 41q-23 17 -53.5 47.5t-42.5 48.5q-35 46 -35 117zM162 1065v182h170v-182h-170zM176 246q0 -13 4 -21q10 -21 35 -44t49 -36q18 -6 25 -6h172q10 0 18 4q33 15 76 45t63 58v143h-329q-13 0 -25 -4q-23 -12 -48.5 -37.5 t-35.5 -46.5q-4 -8 -4 -20v-35zM492 1065v182h170v-182h-170z" />
<glyph unicode="&#xe5;" horiz-adv-x="1007" d="M16 244v39q0 70 35 116q13 18 43.5 49t52.5 48q53 39 140 39h331v100q0 17 -6 27q-12 20 -37 42t-47 33q-12 6 -24 6h-193q-43 0 -94 -69l-27 -37l-149 45q18 43 60 95.5t75 76.5q56 39 141 39h189q85 0 141 -41q23 -17 54.5 -48t43.5 -48q33 -46 33 -119v-475l17 -162 h-158l-10 70q-94 -80 -160 -80h-180q-84 0 -140 41q-23 17 -53.5 47.5t-42.5 48.5q-35 46 -35 117zM176 246q0 -13 4 -21q10 -21 35 -44t49 -36q18 -6 25 -6h172q10 0 18 4q33 15 76 45t63 58v143h-329q-13 0 -25 -4q-23 -12 -48.5 -37.5t-35.5 -46.5q-4 -8 -4 -20v-35z M229 1227q0 83 56 138.5t141 55.5q86 0 143.5 -55.5t57.5 -138.5q0 -84 -57 -139.5t-144 -55.5q-85 0 -141 55t-56 140zM330 1227q0 -43 28 -73t68 -30q42 0 72 30t30 73q0 41 -30.5 70.5t-71.5 29.5q-40 0 -68 -29.5t-28 -70.5z" />
<glyph unicode="&#xe6;" horiz-adv-x="1560" d="M12 244v41q0 63 35 112q12 19 42.5 49.5t53.5 45.5q59 43 140 43h344v100v8q0 19 -32.5 49.5t-57.5 44.5q-12 6 -25 6h-205q-14 0 -22 -4q-54 -27 -99 -106l-149 49q22 42 41 68q14 20 44.5 53t51.5 49q56 41 139 41h201q62 0 105.5 -22.5t87.5 -67.5q44 46 87 68t105 22 h225q81 0 140 -43q22 -14 53.5 -46t44.5 -52q35 -49 35 -117v-250h-611v-137q0 -13 2 -15q12 -22 39.5 -49t49.5 -37q12 -6 24 -6h232q12 0 24 6q52 27 96 105l152 -51q-25 -48 -63 -95.5t-74 -72.5q-56 -41 -140 -41h-229q-62 0 -105.5 21.5t-86.5 66.5q-44 -44 -88.5 -66 t-104.5 -22h-41h-180h-10q-84 0 -140 41q-22 14 -52.5 46t-43.5 52q-35 49 -35 113zM172 248q0 -19 2 -21q12 -21 42 -49.5t52 -34.5q8 -2 19 -2h225q13 0 25 6q21 10 48.5 37t39.5 49q2 2 2 19v135h-342q-28 0 -61.5 -28t-49.5 -56q-2 -2 -2 -22v-33zM786 530h451v103 q0 18 -2 20q-12 22 -39 47.5t-49 36.5q-12 6 -25 6h-221q-12 0 -24 -6q-19 -9 -53.5 -40t-37.5 -46v-14v-107z" />
<glyph unicode="&#xe7;" horiz-adv-x="976" d="M53 246v391q0 71 33 117q12 18 43.5 49.5t54.5 48.5q56 41 142 41h202q84 0 140 -41q36 -25 77 -76.5t60 -95.5l-150 -47q-22 41 -56 75.5t-67 34.5h-204q-13 0 -25 -6q-22 -11 -49 -36t-37 -46q-4 -8 -4 -22v-383q0 -15 4 -23q10 -21 37 -46t49 -36q12 -6 25 -6h211 q6 0 24 6q52 27 96 105l150 -49q-16 -40 -39 -72q-13 -18 -43.5 -50t-52.5 -48q-56 -41 -139 -41h-209q-86 0 -142 41q-23 17 -54.5 48.5t-43.5 49.5q-33 46 -33 117zM213 -354l178 262l150 -51l-146 -211h-182z" />
<glyph unicode="&#xe8;" horiz-adv-x="989" d="M53 246v391q0 71 35 117q12 18 43.5 49.5t54.5 48.5q56 41 142 41h204q86 0 142 -41q23 -17 54.5 -48.5t43.5 -49.5q33 -46 33 -117v-264h-592v-123q0 -15 4 -23q10 -20 35 -45.5t49 -36.5q12 -6 27 -6h207q12 0 24 6q21 10 47 35.5t37 46.5l12 23l150 -49 q-21 -47 -59 -95.5t-76 -74.5q-56 -41 -140 -41h-202q-86 0 -142 41q-23 17 -54.5 48.5t-43.5 49.5q-35 46 -35 117zM166 1300h201l174 -225l-152 -41zM213 518h432v115q0 18 -2 22q-10 21 -37.5 46t-50.5 36q-12 6 -25 6h-202q-16 0 -25 -6q-66 -37 -86 -82q-4 -4 -4 -22 v-115z" />
<glyph unicode="&#xe9;" horiz-adv-x="989" d="M53 246v391q0 71 35 117q12 18 43.5 49.5t54.5 48.5q56 41 142 41h204q86 0 142 -41q23 -17 54.5 -48.5t43.5 -49.5q33 -46 33 -117v-264h-592v-123q0 -15 4 -23q10 -20 35 -45.5t49 -36.5q12 -6 27 -6h207q12 0 24 6q21 10 47 35.5t37 46.5l12 23l150 -49 q-21 -47 -59 -95.5t-76 -74.5q-56 -41 -140 -41h-202q-86 0 -142 41q-23 17 -54.5 48.5t-43.5 49.5q-35 46 -35 117zM213 518h432v115q0 18 -2 22q-10 21 -37.5 46t-50.5 36q-12 6 -25 6h-202q-16 0 -25 -6q-66 -37 -86 -82q-4 -4 -4 -22v-115zM305 1069l180 231h201 l-229 -272z" />
<glyph unicode="&#xea;" horiz-adv-x="989" d="M53 246v391q0 71 35 117q12 18 43.5 49.5t54.5 48.5q56 41 142 41h204q86 0 142 -41q23 -17 54.5 -48.5t43.5 -49.5q33 -46 33 -117v-264h-592v-123q0 -15 4 -23q10 -20 35 -45.5t49 -36.5q12 -6 27 -6h207q12 0 24 6q21 10 47 35.5t37 46.5l12 23l150 -49 q-21 -47 -59 -95.5t-76 -74.5q-56 -41 -140 -41h-202q-86 0 -142 41q-23 17 -54.5 48.5t-43.5 49.5q-35 46 -35 117zM141 1057l215 243h168l215 -243h-192l-107 133l-106 -133h-193zM213 518h432v115q0 18 -2 22q-10 21 -37.5 46t-50.5 36q-12 6 -25 6h-202q-16 0 -25 -6 q-66 -37 -86 -82q-4 -4 -4 -22v-115z" />
<glyph unicode="&#xeb;" horiz-adv-x="989" d="M53 246v391q0 71 35 117q12 18 43.5 49.5t54.5 48.5q56 41 142 41h204q86 0 142 -41q23 -17 54.5 -48.5t43.5 -49.5q33 -46 33 -117v-264h-592v-123q0 -15 4 -23q10 -20 35 -45.5t49 -36.5q12 -6 27 -6h207q12 0 24 6q21 10 47 35.5t37 46.5l12 23l150 -49 q-21 -47 -59 -95.5t-76 -74.5q-56 -41 -140 -41h-202q-86 0 -142 41q-23 17 -54.5 48.5t-43.5 49.5q-35 46 -35 117zM182 1065v182h170v-182h-170zM213 518h432v115q0 18 -2 22q-10 21 -37.5 46t-50.5 36q-12 6 -25 6h-202q-16 0 -25 -6q-66 -37 -86 -82q-4 -4 -4 -22v-115z M512 1065v182h170v-182h-170z" />
<glyph unicode="&#xec;" horiz-adv-x="442" d="M-154 1300h201l174 -225l-151 -41zM72 0v883h159v-883h-159z" />
<glyph unicode="&#xed;" horiz-adv-x="442" d="M72 0v883h159v-883h-159zM72 1069l180 231h201l-230 -272z" />
<glyph unicode="&#xee;" horiz-adv-x="442" d="M-143 1057l215 243h168l215 -243h-193l-106 133l-107 -133h-192zM72 0v883h159v-883h-159z" />
<glyph unicode="&#xef;" horiz-adv-x="442" d="M-100 1065v182h170v-182h-170zM72 0v883h159v-883h-159zM229 1065v182h170v-182h-170z" />
<glyph unicode="&#xf0;" horiz-adv-x="991" d="M53 256v373q0 63 35 116q12 19 48.5 55.5t58.5 51.5q56 41 135 41h155q74 0 158 -98v57q0 22 -15 45t-38 35l-158 78l-135 -66l-66 125l48 21l-123 63l69 133l226 -112l190 98l68 -125l-105 -55l53 -27q146 -75 146 -205v-604q0 -64 -35 -117q-12 -19 -49.5 -56 t-59.5 -52q-59 -43 -135 -43h-194q-76 0 -135 43q-22 15 -58.5 52t-48.5 56q-35 53 -35 117zM213 254q0 -17 4 -21q15 -28 50 -61t61 -33h200q24 0 61.5 34.5t49.5 59.5q4 4 4 21v369q-14 28 -58 61.5t-85 54.5q-11 4 -19 4h-153q-27 0 -62 -32t-49 -60q-4 -4 -4 -20v-377z " />
<glyph unicode="&#xf1;" horiz-adv-x="1003" d="M51 883h160l8 -72q91 82 160 82h153q86 0 142 -41q23 -17 54.5 -48.5t43.5 -49.5q33 -46 33 -117v-637h-160v633q0 18 -2 22q-10 21 -38 47t-50 37q-8 4 -25 4h-145q-27 0 -83.5 -41t-74.5 -65v-637h-159v719zM117 1227l145 30q10 -26 34.5 -38t51.5 -7l144 27 q85 16 157.5 -17.5t102.5 -109.5l-146 -31q-10 26 -34.5 38t-51.5 7l-143 -26q-85 -16 -157.5 17.5t-102.5 109.5z" />
<glyph unicode="&#xf2;" horiz-adv-x="991" d="M53 246v391q0 71 33 117q12 18 43.5 49.5t54.5 48.5q56 41 142 41h204q86 0 142 -41q23 -17 54.5 -48.5t43.5 -49.5q33 -46 33 -117v-391q0 -71 -33 -117q-12 -18 -43.5 -49.5t-54.5 -48.5q-56 -41 -142 -41h-204q-86 0 -142 41q-23 17 -54.5 48.5t-43.5 49.5 q-33 46 -33 117zM209 1300h201l174 -225l-152 -41zM213 250q0 -15 4 -23q10 -21 37.5 -46t50.5 -36q12 -6 25 -6h198q13 0 25 6q19 10 48 36t38 42q4 8 4 27v383q0 20 -6 29q-29 43 -80 73q-12 8 -29 8h-198q-13 0 -25 -6q-22 -11 -49 -36t-39 -46q-4 -8 -4 -22v-383z" />
<glyph unicode="&#xf3;" horiz-adv-x="991" d="M53 246v391q0 71 33 117q12 18 43.5 49.5t54.5 48.5q56 41 142 41h204q86 0 142 -41q23 -17 54.5 -48.5t43.5 -49.5q33 -46 33 -117v-391q0 -71 -33 -117q-12 -18 -43.5 -49.5t-54.5 -48.5q-56 -41 -142 -41h-204q-86 0 -142 41q-23 17 -54.5 48.5t-43.5 49.5 q-33 46 -33 117zM213 250q0 -15 4 -23q10 -21 37.5 -46t50.5 -36q12 -6 25 -6h198q13 0 25 6q19 10 48 36t38 42q4 8 4 27v383q0 20 -6 29q-29 43 -80 73q-12 8 -29 8h-198q-13 0 -25 -6q-22 -11 -49 -36t-39 -46q-4 -8 -4 -22v-383zM305 1069l180 231h201l-229 -272z" />
<glyph unicode="&#xf4;" horiz-adv-x="991" d="M53 246v391q0 71 33 117q12 18 43.5 49.5t54.5 48.5q56 41 142 41h204q86 0 142 -41q23 -17 54.5 -48.5t43.5 -49.5q33 -46 33 -117v-391q0 -71 -33 -117q-12 -18 -43.5 -49.5t-54.5 -48.5q-56 -41 -142 -41h-204q-86 0 -142 41q-23 17 -54.5 48.5t-43.5 49.5 q-33 46 -33 117zM125 1057l215 243h168l215 -243h-193l-106 133l-107 -133h-192zM213 250q0 -15 4 -23q10 -21 37.5 -46t50.5 -36q12 -6 25 -6h198q13 0 25 6q19 10 48 36t38 42q4 8 4 27v383q0 20 -6 29q-29 43 -80 73q-12 8 -29 8h-198q-13 0 -25 -6q-22 -11 -49 -36 t-39 -46q-4 -8 -4 -22v-383z" />
<glyph unicode="&#xf5;" horiz-adv-x="991" d="M53 246v391q0 71 33 117q12 18 43.5 49.5t54.5 48.5q56 41 142 41h204q86 0 142 -41q23 -17 54.5 -48.5t43.5 -49.5q33 -46 33 -117v-391q0 -71 -33 -117q-12 -18 -43.5 -49.5t-54.5 -48.5q-56 -41 -142 -41h-204q-86 0 -142 41q-23 17 -54.5 48.5t-43.5 49.5 q-33 46 -33 117zM102 1227l146 30q10 -26 34.5 -38t51.5 -7l143 27q85 16 157.5 -17.5t102.5 -109.5l-145 -31q-10 26 -34.5 38t-51.5 7l-144 -26q-85 -16 -157.5 17.5t-102.5 109.5zM213 250q0 -15 4 -23q10 -21 37.5 -46t50.5 -36q12 -6 25 -6h198q13 0 25 6q19 10 48 36 t38 42q4 8 4 27v383q0 20 -6 29q-29 43 -80 73q-12 8 -29 8h-198q-13 0 -25 -6q-22 -11 -49 -36t-39 -46q-4 -8 -4 -22v-383z" />
<glyph unicode="&#xf6;" horiz-adv-x="991" d="M53 246v391q0 71 33 117q12 18 43.5 49.5t54.5 48.5q56 41 142 41h204q86 0 142 -41q23 -17 54.5 -48.5t43.5 -49.5q33 -46 33 -117v-391q0 -71 -33 -117q-12 -18 -43.5 -49.5t-54.5 -48.5q-56 -41 -142 -41h-204q-86 0 -142 41q-23 17 -54.5 48.5t-43.5 49.5 q-33 46 -33 117zM178 1065v182h170v-182h-170zM213 250q0 -15 4 -23q10 -21 37.5 -46t50.5 -36q12 -6 25 -6h198q13 0 25 6q19 10 48 36t38 42q4 8 4 27v383q0 20 -6 29q-29 43 -80 73q-12 8 -29 8h-198q-13 0 -25 -6q-22 -11 -49 -36t-39 -46q-4 -8 -4 -22v-383zM508 1065 v182h170v-182h-170z" />
<glyph unicode="&#xf7;" horiz-adv-x="952" d="M53 434v150h715v-150h-715zM311 125v217h209v-217h-209zM311 674v217h209v-217h-209z" />
<glyph unicode="&#xf8;" horiz-adv-x="1011" d="M53 246v391q0 71 33 117q12 18 43.5 49.5t54.5 48.5q56 41 142 41h225q36 0 63 -8l37 67h137l-69 -123q52 -49 72 -75q32 -45 32 -117v-391q0 -72 -32 -117q-12 -18 -44 -49.5t-55 -48.5q-56 -41 -141 -41h-225q-39 0 -70 8l-41 -74h-137l74 133q-50 46 -66 72 q-33 46 -33 117zM213 250q0 -19 4 -23q4 -8 16 -24l302 540h-205q-7 0 -25 -6q-23 -13 -50 -37t-38 -45q-4 -8 -4 -22v-383zM334 139h215q6 0 24 6q22 12 56 41.5t35 46.5v400q0 18 -2 22l-23 29z" />
<glyph unicode="&#xf9;" horiz-adv-x="999" d="M53 248v635h160v-631q0 -19 2 -23q12 -22 39 -47.5t49 -36.5q8 -4 25 -4h145q27 0 83.5 40.5t74.5 64.5v637h160v-719l16 -164h-160l-8 72q-89 -80 -160 -80h-153q-86 0 -142 41q-23 17 -54.5 48.5t-43.5 49.5q-33 46 -33 117zM168 1300h201l174 -225l-152 -41z" />
<glyph unicode="&#xfa;" horiz-adv-x="999" d="M53 248v635h160v-631q0 -19 2 -23q12 -22 39 -47.5t49 -36.5q8 -4 25 -4h145q27 0 83.5 40.5t74.5 64.5v637h160v-719l16 -164h-160l-8 72q-89 -80 -160 -80h-153q-86 0 -142 41q-23 17 -54.5 48.5t-43.5 49.5q-33 46 -33 117zM305 1069l180 231h201l-229 -272z" />
<glyph unicode="&#xfb;" horiz-adv-x="999" d="M53 248v635h160v-631q0 -19 2 -23q12 -22 39 -47.5t49 -36.5q8 -4 25 -4h145q27 0 83.5 40.5t74.5 64.5v637h160v-719l16 -164h-160l-8 72q-89 -80 -160 -80h-153q-86 0 -142 41q-23 17 -54.5 48.5t-43.5 49.5q-33 46 -33 117zM133 1057l215 243h168l215 -243h-192 l-107 133l-106 -133h-193z" />
<glyph unicode="&#xfc;" horiz-adv-x="999" d="M53 248v635h160v-631q0 -19 2 -23q12 -22 39 -47.5t49 -36.5q8 -4 25 -4h145q27 0 83.5 40.5t74.5 64.5v637h160v-719l16 -164h-160l-8 72q-89 -80 -160 -80h-153q-86 0 -142 41q-23 17 -54.5 48.5t-43.5 49.5q-33 46 -33 117zM162 1065v182h170v-182h-170zM492 1065v182 h170v-182h-170z" />
<glyph unicode="&#xfd;" horiz-adv-x="880" d="M-29 883h172l230 -686l231 686h166l-424 -1237h-160l119 354h-31zM274 1069l181 231h200l-229 -272z" />
<glyph unicode="&#xfe;" horiz-adv-x="1009" d="M66 -356v1585h159v-359l-6 -65q90 86 164 86h160q80 0 139 -43q23 -17 54.5 -48.5t43.5 -49.5q35 -49 35 -119v-383q0 -73 -35 -119q-13 -18 -44.5 -51t-53.5 -49q-56 -41 -139 -41h-160q-72 0 -158 78v-422h-159zM225 254q18 -28 76.5 -72.5t87.5 -44.5h152q12 0 24 4 q21 12 47.5 39t38.5 49q4 4 4 23v375q0 18 -4 22q-12 22 -38 48t-48 38q-18 6 -24 6h-152q-28 0 -87 -44t-77 -70v-373z" />
<glyph unicode="&#xff;" horiz-adv-x="880" d="M-29 883h172l230 -686l231 686h166l-424 -1237h-160l119 354h-31zM121 1065v182h170v-182h-170zM451 1065v182h170v-182h-170z" />
<glyph unicode="&#x152;" horiz-adv-x="1742" d="M74 276v674q0 69 28 109q19 29 69.5 78t80.5 67q64 35 117 35h303q55 0 119 -35q6 -6 18 -12v37h713v-160h-557v-375h524v-159h-524v-375h557v-160h-713v37q-6 -6 -18 -12q-64 -35 -119 -35h-303q-53 0 -117 35q-30 18 -80.5 66.5t-69.5 76.5q-28 40 -28 108zM242 279 q0 -21 46 -67t72 -58q8 -4 19 -4h287q10 0 18 4q29 14 73 57.5t44 67.5v667q0 11 -4 19q-16 29 -53 64t-60 46q-8 4 -18 4h-287q-11 0 -19 -4q-29 -14 -73.5 -59.5t-44.5 -69.5v-667z" />
<glyph unicode="&#x153;" horiz-adv-x="1576" d="M53 246v391q0 71 33 117q12 18 43.5 49.5t54.5 48.5q56 41 142 41h204q86 0 142 -41q25 -18 51 -47q32 32 53 47q56 41 142 41h204q86 0 142 -41q23 -17 54.5 -48.5t43.5 -49.5q33 -46 33 -117v-264h-592v-123v-4v-6q0 -9 4 -13q10 -20 35 -45.5t49 -36.5q12 -6 27 -6 h206q13 0 25 6q21 10 47 35.5t37 46.5l12 23l150 -49q-21 -47 -59 -95.5t-76 -74.5q-56 -41 -140 -41h-202q-86 0 -142 41q-28 20 -53 45q-21 -23 -51 -45q-56 -41 -142 -41h-204q-86 0 -142 41q-23 17 -54.5 48.5t-43.5 49.5q-33 46 -33 117zM213 250q0 -15 4 -23 q10 -21 37.5 -46t50.5 -36q12 -6 25 -6h198q13 0 25 6q19 10 48 36t38 42q4 12 4 23v387v4v4l-6 21q-29 43 -80 73q-12 8 -29 8h-198q-13 0 -25 -6q-22 -11 -49 -36t-39 -46q-4 -8 -4 -22v-383zM803 518h432v115q0 18 -2 22q-10 21 -37.5 46t-50.5 36q-12 6 -25 6h-202 q-16 0 -25 -6q-66 -37 -86 -82q-4 -4 -4 -18v-119z" />
<glyph unicode="&#x178;" horiz-adv-x="1024" d="M-45 1229h184l314 -537q-2 -1 76.5 133.5t157.5 268.5l79 135h182l-413 -707v-522h-168v522zM205 1391v182h170v-182h-170zM535 1391v182h170v-182h-170z" />
<glyph unicode="&#x2c6;" horiz-adv-x="868" d="M125 1057l215 243h168l215 -243h-193l-106 133l-107 -133h-192z" />
<glyph unicode="&#x2dc;" horiz-adv-x="913" d="M82 1227l145 30q10 -26 34.5 -38t51.5 -7l144 27q85 16 157.5 -17.5t102.5 -109.5l-146 -31q-10 26 -34.5 38t-51.5 7l-143 -26q-85 -16 -157.5 17.5t-102.5 109.5z" />
<glyph unicode="&#x2000;" horiz-adv-x="854" />
<glyph unicode="&#x2001;" horiz-adv-x="1708" />
<glyph unicode="&#x2002;" horiz-adv-x="854" />
<glyph unicode="&#x2003;" horiz-adv-x="1708" />
<glyph unicode="&#x2004;" horiz-adv-x="569" />
<glyph unicode="&#x2005;" horiz-adv-x="427" />
<glyph unicode="&#x2006;" horiz-adv-x="284" />
<glyph unicode="&#x2007;" horiz-adv-x="284" />
<glyph unicode="&#x2008;" horiz-adv-x="213" />
<glyph unicode="&#x2009;" horiz-adv-x="341" />
<glyph unicode="&#x200a;" horiz-adv-x="94" />
<glyph unicode="&#x2010;" horiz-adv-x="684" d="M53 434v150h467v-150h-467z" />
<glyph unicode="&#x2011;" horiz-adv-x="684" d="M53 434v150h467v-150h-467z" />
<glyph unicode="&#x2012;" horiz-adv-x="684" d="M53 434v150h467v-150h-467z" />
<glyph unicode="&#x2013;" horiz-adv-x="952" d="M53 434v152h715v-152h-715z" />
<glyph unicode="&#x2014;" horiz-adv-x="1120" d="M53 434v150h903v-150h-903z" />
<glyph unicode="&#x2018;" horiz-adv-x="419" d="M-23 971l164 350l156 -49l-139 -301h-181z" />
<glyph unicode="&#x2019;" horiz-adv-x="419" d="M-2 1055l139 301h180l-163 -350z" />
<glyph unicode="&#x201a;" horiz-adv-x="417" d="M-25 -178l164 350l156 -49l-139 -301h-181z" />
<glyph unicode="&#x201c;" horiz-adv-x="741" d="M-23 1012l140 301h180l-164 -350zM299 1012l139 301h180l-163 -350z" />
<glyph unicode="&#x201d;" horiz-adv-x="741" d="M-23 1006l164 350l156 -49l-139 -301h-181zM299 1006l164 350l155 -49l-139 -301h-180z" />
<glyph unicode="&#x201e;" horiz-adv-x="741" d="M-23 -178l164 350l156 -49l-139 -301h-181zM299 -178l164 350l155 -49l-139 -301h-180z" />
<glyph unicode="&#x2022;" horiz-adv-x="907" d="M115 498v34q0 64 41 115q14 18 45 44t51 38q44 31 110 31h56q66 0 110 -31q65 -40 95 -80q41 -51 41 -117v-34q0 -70 -41 -117q-14 -17 -45 -42.5t-50 -37.5q-51 -31 -110 -31h-56q-59 0 -110 31q-20 12 -52 38.5t-46 43.5q-39 48 -39 115z" />
<glyph unicode="&#x2026;" horiz-adv-x="1404" d="M168 0v211h209v-211h-209zM561 0v211h209v-211h-209zM956 0v211h209v-211h-209z" />
<glyph unicode="&#x202f;" horiz-adv-x="341" />
<glyph unicode="&#x2039;" horiz-adv-x="811" d="M76 516l319 324l174 -52l-280 -272l282 -272l-176 -45z" />
<glyph unicode="&#x203a;" horiz-adv-x="815" d="M96 244l283 272l-281 272l174 52l320 -324l-320 -317z" />
<glyph unicode="&#x205f;" horiz-adv-x="427" />
<glyph unicode="&#x20ac;" horiz-adv-x="1193" d="M53 399v150h88v117h-88v149h88v137q0 65 29 107q21 29 69.5 78.5t77.5 66.5q64 35 117 35h293q72 0 137.5 -49t116.5 -117q26 -38 55 -104l-162 -49l-20 43q-16 31 -53 65.5t-64 48.5q-8 2 -16 2h-277q-5 0 -10 -1l-4 -1q-23 -11 -62 -47.5t-57 -66.5q-2 -2 -2 -23v-125 h484v-149h-484v-117h484v-150h-484v-123q0 -10 2 -12q18 -30 57 -66.5t62 -47.5l4 -2q5 -1 10 -1h277l16 3q27 14 63.5 47.5t53.5 66.5q6 8 20 39l162 -43q-39 -84 -55 -106q-51 -68 -116.5 -117t-137.5 -49h-291q-55 0 -119 35q-30 18 -79 66t-68 77q-29 42 -29 108v125 h-88z" />
<glyph unicode="&#x2122;" horiz-adv-x="1263" d="M72 1098v131h444v-131h-143v-473h-142v473h-159zM541 625v604h176l98 -248l109 248h176v-604h-139v385l-99 -228h-96l-84 219v-376h-141z" />
<glyph unicode="&#x25fc;" horiz-adv-x="880" d="M0 0v881h881v-881h-881z" />
<glyph unicode="&#xfb01;" horiz-adv-x="1138" d="M-4 733v150h145v98q0 73 33 119q12 18 43.5 49.5t54.5 48.5q59 41 142 41h166v-149h-164q-24 0 -31 -5q-21 -11 -52 -41.5t-32 -48.5v-18v-94h248v-150h-248v-733h-160v733h-145zM750 1065v182h184v-182h-184zM762 0v883h160v-883h-160z" />
<glyph unicode="&#xfb02;" horiz-adv-x="1175" d="M-4 733v150h145v98q0 73 33 119q12 18 43.5 49.5t54.5 48.5q59 41 142 41h166v-149h-164q-24 0 -31 -5q-21 -11 -52 -41.5t-32 -48.5v-18v-94h248v-150h-248v-733h-160v733h-145zM784 133v1096h158v-1071l21 -158h-160z" />
</font>
</defs>
</svg>
